<svg xmlns="http://www.w3.org/2000/svg" xml:space="preserve" id="Layer_1" x="0" y="0" style="enable-background:new 0 0 100 64" version="1.1" viewBox="0 0 100 64"><style>.st0{fill:#4a4a49}.st1{fill:#cf131e}.st2{fill:none}.st5{fill:#cabc00}</style><path d="m34.69 15.08-2.21-4.41c.08-.01.17-.02.27-.03.1-.01.19-.01.29-.01.08 0 .18 0 .28.01.1.01.19.02.27.03l1.63 3.45 1.61-3.45.25-.03c.08-.01.17-.01.26-.01s.18 0 .27.01l.26.03-2.18 4.41v2.54l-.25.03c-.08.01-.17.01-.25.01-.08 0-.17 0-.26-.01s-.17-.02-.24-.03v-2.54zM38.29 12.66l.21-.03c.07-.01.14-.01.21-.01.07 0 .14 0 .2.01l.2.03a5.203 5.203 0 0 1 .09.78c.06-.12.13-.23.22-.33.09-.11.19-.2.31-.29a1.652 1.652 0 0 1 .92-.28c.39 0 .69.08.89.24.21.16.37.38.48.66.06-.11.14-.22.24-.33.09-.11.2-.21.31-.29a1.588 1.588 0 0 1 .9-.28c.57 0 .99.16 1.25.48.26.32.39.8.39 1.43v3.16c-.07.01-.15.02-.24.03-.09.01-.17.01-.24.01-.07 0-.15 0-.24-.01s-.17-.02-.24-.03v-2.88c0-.45-.07-.78-.2-1-.14-.22-.36-.33-.67-.33-.33 0-.59.12-.8.36-.2.24-.3.59-.3 1.05v2.81c-.07.01-.15.02-.24.03-.09.01-.17.01-.24.01-.07 0-.15 0-.24-.01s-.17-.02-.24-.03v-2.95c0-.43-.06-.76-.19-.97-.13-.22-.34-.32-.62-.32a1.023 1.023 0 0 0-.82.43c-.11.14-.19.32-.25.54-.06.22-.09.47-.09.75v2.53c-.07.01-.15.02-.24.03-.09.01-.17.01-.24.01-.07 0-.15 0-.24-.01s-.17-.02-.24-.03v-4.97zM49.77 16.77c.05.09.1.2.14.34.04.14.06.27.07.42-.38.15-.82.22-1.31.22-.83 0-1.45-.23-1.87-.7-.42-.47-.63-1.1-.63-1.89 0-.37.05-.71.15-1.03.1-.32.26-.59.46-.82.2-.23.46-.42.76-.55.3-.14.65-.2 1.05-.2.27 0 .51.02.72.05.21.03.4.08.59.15 0 .11-.01.24-.04.38a1.7 1.7 0 0 1-.12.38c-.32-.11-.68-.16-1.08-.16-.5 0-.87.16-1.11.49-.25.33-.37.76-.37 1.31 0 .62.14 1.07.42 1.36.28.29.66.43 1.14.43.19 0 .37-.01.54-.04.15-.03.32-.08.49-.14zM50.98 10.54c.07-.01.15-.02.24-.03.09-.01.17-.01.24-.01.07 0 .15 0 .24.01s.17.02.24.03v2.88c.06-.09.13-.19.22-.29.09-.1.19-.2.32-.29.13-.09.27-.16.44-.21.16-.05.35-.08.55-.08.57 0 .99.16 1.26.49.27.33.41.81.41 1.45v3.14c-.07.01-.15.02-.24.03-.09.01-.17.01-.24.01-.07 0-.15 0-.24-.01s-.17-.02-.24-.03v-2.88c0-.46-.08-.79-.23-1.01-.15-.22-.38-.32-.69-.32-.17 0-.34.03-.5.09-.16.06-.3.16-.43.29-.12.13-.22.3-.29.52-.07.21-.11.47-.11.77v2.54c-.07.01-.15.02-.24.03-.09.01-.17.01-.24.01-.06 0-.14 0-.23-.01s-.17-.02-.24-.03v-7.09zM55.87 12.66l.27-.03c.09-.01.17-.01.24-.01.09 0 .18 0 .28.01.09.01.18.02.25.03l.97 4.05 1.09-4.05.23-.03c.08-.01.17-.01.26-.01.1.01.19.01.27.01.07 0 .15.01.22.02l1.08 3.99.97-3.98.21-.03c.07-.01.15-.01.23-.01.07 0 .15 0 .24.01l.27.03-1.48 4.96-.26.03c-.09.01-.17.01-.24.01-.07 0-.15 0-.23-.01l-.25-.03-1.06-3.75-1.11 3.75-.27.03c-.09.01-.17.01-.24.01-.07 0-.15 0-.24-.01s-.17-.02-.24-.03l-1.46-4.96zM64.12 13.42h-.62c-.01-.05-.02-.11-.03-.18-.01-.07-.01-.13-.01-.2 0-.06 0-.13.01-.2s.02-.13.03-.18h1.57v4.96c-.07.01-.15.02-.24.03-.09.01-.17.01-.24.01-.06 0-.14 0-.23-.01s-.17-.02-.24-.03v-4.2zm-.21-1.85c-.01-.08-.02-.16-.02-.25v-.48c0-.09.01-.17.02-.24.08-.01.17-.02.27-.03.1-.01.18-.01.25-.01s.15 0 .25.01.18.02.26.03c.01.07.02.15.02.24v.48c0 .09-.01.17-.02.25-.08.01-.16.02-.26.03-.09.01-.18.01-.25.01-.08 0-.16 0-.26-.01l-.26-.03zM66.5 10.54c.07-.01.15-.02.24-.03.09-.01.17-.01.24-.01s.15 0 .24.01.17.02.24.03v5.59c0 .18.02.32.05.43.03.1.08.18.13.24s.12.09.19.11c.07.02.15.02.24.02.06 0 .12 0 .2-.01.07-.01.14-.02.19-.03.06.23.09.47.09.74-.09.03-.2.05-.33.06-.13.01-.25.01-.36.01-.19 0-.36-.02-.52-.07-.16-.04-.3-.12-.43-.22-.12-.1-.22-.24-.29-.42-.07-.17-.11-.39-.11-.65v-5.8zM71.58 10.67l.24-.03c.08-.01.17-.01.25-.01.08 0 .17 0 .25.01l.24.03v6.96l-.24.03c-.08.01-.17.01-.26.01-.08 0-.17 0-.26-.01s-.17-.02-.24-.03v-6.96zM74.82 15.38c.01.54.15.94.42 1.19s.66.38 1.18.38c.46 0 .89-.08 1.31-.24.05.1.09.21.13.35.03.14.05.28.06.41a3 3 0 0 1-.7.2c-.25.04-.54.07-.85.07-.45 0-.84-.06-1.16-.19-.32-.13-.59-.3-.8-.53-.21-.23-.36-.5-.46-.81-.1-.31-.14-.66-.14-1.03s.05-.71.14-1.03c.09-.32.24-.6.43-.83.19-.24.44-.42.73-.56.29-.14.64-.21 1.04-.21.34 0 .64.06.9.17.26.12.47.28.65.48.17.2.31.44.4.73.09.28.14.59.14.91 0 .09 0 .19-.01.29-.01.1-.01.19-.02.26h-3.39zm2.45-.71c0-.18-.02-.35-.07-.52-.05-.16-.12-.31-.21-.43a1.07 1.07 0 0 0-.36-.3c-.15-.07-.32-.11-.52-.11-.39 0-.7.12-.9.36-.21.24-.34.57-.38 1h2.44zM82.69 16.77c.05.09.1.2.14.34.04.14.06.27.07.42-.38.15-.82.22-1.31.22-.83 0-1.45-.23-1.87-.7-.42-.47-.63-1.1-.63-1.89 0-.37.05-.71.15-1.03.1-.32.26-.59.46-.82.2-.23.46-.42.76-.55.3-.14.65-.2 1.05-.2.27 0 .51.02.72.05.21.03.4.08.59.15 0 .11-.01.24-.04.38a1.7 1.7 0 0 1-.12.38c-.32-.11-.68-.16-1.08-.16-.5 0-.87.16-1.11.49-.25.33-.37.76-.37 1.31 0 .62.14 1.07.42 1.36.28.29.66.43 1.14.43.19 0 .37-.01.54-.04.16-.03.32-.08.49-.14zM83.9 10.54c.07-.01.15-.02.24-.03.09-.01.17-.01.24-.01.07 0 .15 0 .24.01s.17.02.24.03v2.88c.06-.09.13-.19.22-.29.09-.1.19-.2.32-.29.13-.09.27-.16.44-.21.16-.05.35-.08.55-.08.57 0 .99.16 1.26.49.27.33.41.81.41 1.45v3.14c-.07.01-.15.02-.24.03-.09.01-.17.01-.24.01-.07 0-.15 0-.24-.01s-.17-.02-.24-.03v-2.88c0-.46-.08-.79-.23-1.01-.15-.22-.38-.32-.69-.32-.17 0-.34.03-.5.09-.16.06-.3.16-.43.29-.12.13-.22.3-.29.52-.07.21-.11.47-.11.77v2.54c-.07.01-.15.02-.24.03-.09.01-.17.01-.24.01-.06 0-.14 0-.23-.01s-.17-.02-.24-.03v-7.09zM91.1 17.64h-.52c-.07 0-.13-.01-.17-.01l-1.64-4.96c.08-.01.17-.02.26-.02h.53c.1 0 .19.01.26.02l1.37 4.61 1.42-4.61c.13-.02.29-.03.47-.03h.24c.09 0 .18.01.27.02l-1.93 5.97c-.09.26-.18.49-.28.67-.1.18-.21.33-.33.44-.12.11-.26.19-.41.23-.15.05-.33.07-.53.07-.15 0-.29-.01-.44-.03-.15-.02-.27-.05-.38-.08a1.643 1.643 0 0 1 .16-.75c.06.02.14.04.24.06.1.02.21.03.32.03.08 0 .16-.01.24-.02a.67.67 0 0 0 .21-.1c.06-.05.12-.12.18-.21s.11-.21.16-.37l.3-.93zM97.46 10.54c.07-.01.15-.02.24-.03.09-.01.17-.01.23-.01.07 0 .15 0 .24.01s.17.02.24.03v6.96a6.285 6.285 0 0 1-1.84.25c-.35 0-.68-.04-.99-.13-.31-.09-.59-.23-.82-.43-.23-.2-.42-.46-.55-.77-.14-.32-.2-.71-.2-1.17 0-.4.06-.76.18-1.09.12-.33.29-.61.51-.85.22-.24.48-.42.79-.55.31-.13.65-.19 1.02-.19.17 0 .34.01.51.04.17.03.32.06.45.1v-2.17zm0 2.97c-.13-.05-.27-.09-.42-.12-.15-.03-.31-.04-.48-.04-.26 0-.49.05-.69.15-.19.1-.35.23-.48.4s-.22.37-.28.6c-.06.23-.09.48-.09.75.01.61.15 1.05.43 1.32.28.26.67.4 1.16.4.17 0 .32-.01.46-.02.14-.02.27-.04.38-.07v-3.37zM35.71 25.03c0-.38-.1-.64-.29-.79-.19-.15-.47-.22-.84-.22-.23 0-.44.02-.63.05-.2.04-.39.08-.58.14-.12-.21-.18-.47-.18-.76.22-.07.46-.13.73-.16.26-.04.52-.06.76-.06.64 0 1.14.15 1.47.44.34.29.5.76.5 1.41v3.11c-.23.05-.5.1-.82.16a6.4 6.4 0 0 1-.99.08c-.32 0-.6-.03-.86-.09a1.83 1.83 0 0 1-.65-.28 1.3 1.3 0 0 1-.41-.49c-.1-.2-.15-.44-.15-.73 0-.28.06-.52.17-.73.11-.21.27-.38.46-.52s.42-.24.67-.31c.25-.07.52-.1.79-.1.21 0 .38.01.51.01.13.01.24.02.33.03v-.19zm0 .94c-.1-.01-.22-.03-.37-.04-.15-.01-.27-.02-.38-.02-.4 0-.7.07-.91.22-.21.15-.31.37-.31.68 0 .19.04.34.11.45.07.11.16.19.27.25.11.06.22.09.35.11.13.01.25.02.37.02.15 0 .3-.01.46-.02.16-.02.3-.04.42-.07v-1.58zM44.29 24.7l.24-.03c.08-.01.17-.01.25-.01.08 0 .17 0 .25.01l.23.03v3.4c-.14.06-.28.11-.45.15-.16.04-.33.07-.5.1-.17.02-.35.04-.52.05-.17.01-.34.02-.49.02-.52 0-.98-.08-1.39-.24-.41-.16-.76-.4-1.04-.7-.28-.31-.5-.68-.65-1.12-.15-.44-.23-.94-.23-1.49s.08-1.06.23-1.5c.15-.45.38-.83.66-1.15.29-.32.63-.56 1.03-.73.4-.17.84-.26 1.32-.26.37 0 .69.02.96.07s.52.11.74.2c-.01.15-.04.29-.08.41-.04.13-.09.26-.15.4-.18-.06-.38-.11-.59-.15a3.5 3.5 0 0 0-.79-.07c-.34 0-.65.06-.93.18s-.52.3-.72.54c-.2.24-.35.53-.46.87-.11.35-.16.74-.16 1.19 0 .46.06.85.17 1.19.11.33.27.61.48.83.21.22.45.39.73.49.28.11.59.16.93.16.21 0 .39-.01.54-.03.15-.02.29-.05.4-.08V24.7zM48.69 28.42c-.39 0-.73-.07-1.02-.2-.29-.13-.53-.31-.73-.55-.19-.23-.34-.51-.43-.82a3.77 3.77 0 0 1-.14-1.03c0-.37.05-.71.14-1.03.09-.32.24-.59.43-.82.19-.23.44-.42.73-.55.29-.14.63-.2 1.02-.2s.73.07 1.02.2c.29.14.53.32.73.55.19.23.34.51.43.82.09.32.14.66.14 1.03s-.05.71-.14 1.03c-.09.32-.24.59-.43.82-.19.23-.44.41-.73.55-.29.13-.63.2-1.02.2zm0-.77c.45 0 .77-.16.99-.48.21-.32.32-.77.32-1.34 0-.57-.11-1.02-.32-1.34-.21-.32-.54-.48-.99-.48s-.77.16-.98.48c-.21.32-.31.77-.31 1.34 0 .57.1 1.02.31 1.34.21.32.54.48.98.48zM52.46 24.09h-.81c-.03-.1-.04-.23-.04-.38 0-.14.01-.27.04-.38h.81v-.35c0-.61.15-1.08.46-1.4.31-.32.75-.48 1.34-.48.16 0 .3.01.43.02.12.02.24.04.35.07-.01.16-.03.3-.05.42-.02.12-.05.24-.09.36-.06-.01-.14-.03-.23-.04-.09-.02-.19-.02-.31-.02-.14 0-.27.01-.38.04-.11.03-.21.08-.29.16-.08.08-.14.19-.19.34-.05.15-.07.33-.07.56v.32h1.27c.02.13.03.26.03.4 0 .12-.01.24-.03.36h-1.27v4.21c-.07.01-.15.02-.24.03-.09.01-.17.01-.24.01-.07 0-.15 0-.24-.01s-.17-.02-.24-.03v-4.21zM58.13 25.03c0-.38-.1-.64-.29-.79-.19-.15-.47-.22-.84-.22-.23 0-.44.02-.63.05-.2.04-.39.08-.58.14-.12-.21-.18-.47-.18-.76.22-.07.46-.13.73-.16.26-.04.52-.06.76-.06.64 0 1.14.15 1.47.44.34.29.5.76.5 1.41v3.11c-.23.05-.5.1-.82.16a6.4 6.4 0 0 1-.99.08c-.32 0-.6-.03-.86-.09a1.83 1.83 0 0 1-.65-.28 1.3 1.3 0 0 1-.41-.49c-.1-.2-.15-.44-.15-.73 0-.28.06-.52.17-.73.11-.21.27-.38.46-.52s.42-.24.67-.31c.25-.07.52-.1.79-.1.21 0 .38.01.51.01.13.01.24.02.33.03v-.19zm0 .94c-.1-.01-.22-.03-.37-.04-.15-.01-.27-.02-.38-.02-.4 0-.71.07-.91.22-.21.15-.31.37-.31.68 0 .19.04.34.11.45.07.11.16.19.27.25.11.06.22.09.35.11.13.01.25.02.37.02.15 0 .3-.01.46-.02.16-.02.3-.04.42-.07v-1.58zM60.39 21.21c.07-.01.15-.02.24-.03.09-.01.17-.01.24-.01.07 0 .15 0 .24.01s.17.02.24.03v5.59c0 .18.02.32.05.43.03.1.08.18.13.24s.12.09.19.11c.07.02.15.02.24.02.06 0 .12 0 .2-.01.07-.01.14-.02.19-.03.06.23.09.47.09.74-.09.03-.2.05-.33.06-.13.01-.25.01-.36.01-.19 0-.36-.02-.52-.07-.16-.04-.3-.12-.43-.22-.12-.1-.22-.24-.29-.42-.07-.17-.11-.39-.11-.65v-5.8z" class="st0"/><path d="M69.91 27.29c.14.28.23.54.27.8-.27.12-.55.2-.83.25-.28.05-.59.08-.92.08-.5 0-.96-.08-1.36-.25-.4-.16-.74-.4-1.02-.71-.28-.31-.49-.68-.64-1.12-.15-.44-.22-.93-.22-1.48 0-.55.07-1.06.22-1.5.15-.45.36-.83.64-1.15.28-.32.62-.56 1.02-.73.4-.17.85-.26 1.34-.26a5.186 5.186 0 0 1 1.66.26c-.01.15-.04.29-.08.41-.04.13-.09.26-.15.4-.1-.03-.19-.06-.28-.09-.09-.03-.19-.05-.29-.07-.1-.02-.22-.03-.34-.04-.13-.01-.27-.01-.43-.01-.7 0-1.25.24-1.64.72-.39.48-.59 1.16-.59 2.06 0 .46.05.85.16 1.19.11.34.26.61.46.83.2.22.44.38.72.49.28.11.6.16.94.16.27 0 .52-.02.74-.07.22-.03.43-.09.62-.17zM72.8 28.31h-.52c-.07 0-.13-.01-.17-.01l-1.65-4.96c.08-.01.17-.02.26-.02h.53c.1 0 .19.01.26.02l1.37 4.61 1.42-4.61c.14-.02.29-.03.47-.03h.24c.09 0 .18.01.27.02l-1.93 5.97c-.09.26-.18.49-.28.67-.1.18-.21.33-.33.44-.12.11-.26.19-.41.23-.15.05-.33.07-.53.07-.15 0-.3-.01-.44-.03-.15-.02-.27-.05-.38-.08a1.643 1.643 0 0 1 .16-.75c.06.02.14.04.24.06.1.02.21.03.32.03.08 0 .16-.01.24-.02a.67.67 0 0 0 .21-.1c.07-.05.12-.12.18-.21.05-.09.11-.21.16-.37l.31-.93zM76.13 23.34l.21-.03c.07-.01.14-.01.21-.01.07 0 .14 0 .2.01l.2.03a5.203 5.203 0 0 1 .09.78c.06-.12.13-.23.22-.33.09-.11.19-.2.31-.29a1.652 1.652 0 0 1 .92-.28c.39 0 .69.08.9.24.21.16.37.38.48.66.06-.11.14-.22.24-.33.09-.11.2-.21.31-.29a1.588 1.588 0 0 1 .9-.28c.57 0 .99.16 1.25.48.26.32.39.8.39 1.43v3.16c-.07.01-.15.02-.24.03-.09.01-.17.01-.24.01-.07 0-.15 0-.24-.01s-.17-.02-.24-.03v-2.88c0-.45-.07-.78-.2-1-.14-.22-.36-.33-.67-.33-.33 0-.6.12-.8.36-.2.24-.3.59-.3 1.05v2.81c-.07.01-.15.02-.24.03-.09.01-.17.01-.24.01-.07 0-.15 0-.24-.01s-.17-.02-.24-.03v-2.95c0-.43-.06-.76-.19-.97-.13-.22-.33-.32-.62-.32a1.023 1.023 0 0 0-.82.43c-.11.14-.19.32-.25.54-.06.22-.09.47-.09.75v2.53c-.07.01-.15.02-.24.03-.09.01-.17.01-.24.01-.07 0-.15 0-.24-.01s-.17-.02-.24-.03v-4.97zM84.3 23.34l.2-.03c.06-.01.13-.01.2-.01s.14 0 .21.01c.07.01.14.02.19.03a5.203 5.203 0 0 1 .09.78c.14-.22.31-.41.54-.57.22-.16.51-.24.86-.24h.16c.05 0 .1.01.14.01l.03.18c.01.06.01.13.01.2 0 .08 0 .16-.01.24l-.03.24a.875.875 0 0 0-.16-.02h-.13c-.17 0-.34.02-.5.07-.16.05-.3.13-.43.26-.13.12-.23.29-.3.5-.07.21-.11.49-.11.82v2.47c-.07.01-.15.02-.24.03-.09.01-.17.01-.24.01-.07 0-.15 0-.24-.01l-.25-.03v-4.94zM87.74 23.34c.07-.01.15-.02.24-.03.09-.01.17-.01.23-.01.07 0 .15 0 .24.01s.17.02.24.03v2.72c0 .31.03.57.09.77.06.2.14.36.26.48s.26.2.43.24c.17.05.36.07.58.07.33 0 .61-.04.84-.11v-4.17c.07-.01.15-.02.24-.03.09-.01.17-.01.24-.01.07 0 .15 0 .24.01s.17.02.24.03v4.81c-.23.06-.49.13-.81.18a5.147 5.147 0 0 1-1.86.01 1.72 1.72 0 0 1-.74-.33c-.21-.17-.38-.4-.5-.71-.12-.3-.18-.7-.18-1.2v-2.76z" class="st1"/><path d="m33.17 35.53.24-.03c.08-.01.17-.01.25-.01.08 0 .17 0 .25.01l.24.03v2.86h2.96v-2.86l.23-.03c.08-.01.17-.01.25-.01s.17 0 .26.01l.25.03v6.96l-.23.03c-.08.01-.17.01-.26.01-.08 0-.17 0-.26-.01s-.17-.02-.24-.03v-3.22h-2.96v3.22l-.24.03c-.08.01-.17.01-.26.01-.08 0-.17 0-.26-.01s-.17-.02-.24-.03v-6.96zM40.34 40.24c.01.54.15.94.42 1.19s.66.38 1.19.38c.46 0 .89-.08 1.31-.24.05.1.09.21.13.35.03.14.05.28.06.41a3 3 0 0 1-.7.2c-.25.05-.54.07-.85.07-.45 0-.84-.06-1.16-.19-.32-.13-.59-.3-.8-.53-.21-.23-.36-.5-.46-.81-.1-.31-.15-.66-.15-1.03s.05-.71.14-1.03c.09-.32.24-.6.43-.83.19-.24.44-.42.73-.56.29-.14.64-.21 1.04-.21.34 0 .64.06.9.17.26.12.47.28.65.48.17.2.31.44.4.73.09.28.14.59.14.91 0 .09 0 .19-.01.29-.01.1-.01.19-.02.26h-3.39zm2.46-.72c0-.18-.02-.35-.07-.52-.05-.16-.12-.31-.21-.43a.944.944 0 0 0-.36-.29c-.15-.07-.32-.11-.52-.11-.39 0-.7.12-.9.36-.21.24-.34.57-.38 1h2.44zM47.53 39.21c0-.38-.1-.65-.29-.79-.19-.15-.47-.22-.84-.22-.23 0-.44.02-.63.05-.2.04-.39.08-.58.14-.12-.21-.18-.47-.18-.76.22-.07.46-.13.73-.16.26-.04.52-.06.76-.06.64 0 1.14.15 1.47.44.34.29.5.76.5 1.41v3.11c-.23.05-.5.11-.82.16a6.4 6.4 0 0 1-.99.08c-.32 0-.6-.03-.86-.09a1.83 1.83 0 0 1-.65-.28 1.3 1.3 0 0 1-.41-.49c-.1-.2-.15-.44-.15-.73 0-.28.06-.52.17-.73.11-.21.27-.38.46-.52s.42-.24.67-.31c.25-.07.52-.1.79-.1.21 0 .38 0 .51.01s.24.02.33.03v-.19zm0 .94c-.1-.01-.22-.03-.37-.04-.15-.01-.27-.02-.38-.02-.4 0-.7.07-.91.22-.21.15-.31.37-.31.68 0 .19.04.35.11.45.07.11.16.19.27.25.11.06.22.09.35.11.13.01.25.02.37.02.15 0 .3-.01.46-.02.16-.02.3-.04.42-.07v-1.58zM49.8 35.39c.07-.01.15-.02.24-.03.09-.01.17-.01.24-.01.07 0 .15 0 .24.01s.17.02.24.03v5.59c0 .18.02.32.05.43.03.1.08.18.13.24.05.05.12.09.19.11.07.02.15.02.24.02.06 0 .12 0 .2-.01.07-.01.14-.02.19-.03.06.23.09.47.09.73-.09.03-.2.05-.33.06-.13.01-.25.01-.36.01-.19 0-.36-.02-.52-.07-.16-.05-.3-.12-.43-.22-.12-.1-.22-.24-.29-.42-.07-.17-.11-.39-.11-.65v-5.79zM52.79 38.28h-.75l-.04-.14 1.66-1.86h.08v1.23H55c.03.11.04.23.04.37 0 .07 0 .14-.01.2l-.03.19h-1.26v2.26c0 .27.01.49.03.65.02.16.06.28.12.37.05.09.13.15.22.17.09.03.21.04.35.04.11 0 .21-.01.31-.02.1-.02.18-.03.26-.05.05.13.07.26.08.4.01.14.01.26.01.36-.13.03-.26.06-.41.07-.14.02-.29.02-.46.02-.46 0-.83-.11-1.09-.34-.26-.23-.39-.6-.39-1.12v-2.8zM55.96 35.39c.07-.01.15-.02.24-.03.09-.01.17-.01.24-.01.07 0 .15 0 .24.01s.17.02.24.03v2.88c.06-.09.13-.19.22-.29.09-.1.19-.2.32-.29.13-.09.27-.16.44-.21.16-.05.35-.08.55-.08.57 0 .99.16 1.26.49.27.33.41.81.41 1.45v3.14c-.07.01-.15.02-.24.03-.09.01-.17.01-.24.01-.07 0-.15 0-.24-.01s-.17-.02-.24-.03V39.6c0-.46-.08-.79-.23-1.01-.15-.22-.38-.32-.69-.32-.17 0-.34.03-.5.09-.16.06-.3.16-.43.29-.12.13-.22.3-.29.52-.07.21-.11.47-.11.77v2.54c-.07.01-.15.02-.24.03-.09.01-.17.01-.24.01-.06 0-.14 0-.23-.01s-.17-.02-.24-.03v-7.09zM66.28 39.21c0-.38-.1-.65-.29-.79-.19-.15-.47-.22-.84-.22-.23 0-.44.02-.63.05-.2.04-.39.08-.58.14-.12-.21-.18-.47-.18-.76.22-.07.46-.13.73-.16.26-.04.52-.06.76-.06.65 0 1.13.15 1.47.44.34.29.5.76.5 1.41v3.11c-.23.05-.5.11-.82.16a6.4 6.4 0 0 1-.99.08c-.32 0-.6-.03-.86-.09a1.83 1.83 0 0 1-.65-.28 1.3 1.3 0 0 1-.41-.49c-.1-.2-.15-.44-.15-.73 0-.28.06-.52.17-.73.11-.21.27-.38.46-.52s.42-.24.67-.31c.25-.07.52-.1.79-.1.21 0 .38 0 .51.01s.24.02.33.03v-.19zm0 .94c-.1-.01-.22-.03-.37-.04-.15-.01-.27-.02-.38-.02-.4 0-.71.07-.91.22-.21.15-.31.37-.31.68 0 .19.04.35.11.45.07.11.16.19.27.25.11.06.22.09.35.11.13.01.25.02.37.02.15 0 .3-.01.46-.02.16-.02.3-.04.42-.07v-1.58zM68.57 37.52l.21-.03c.07-.01.14-.01.21-.01.07 0 .14 0 .2.01l.2.03c.02.1.04.23.06.39.02.16.03.3.03.41.06-.11.15-.22.25-.33.1-.11.21-.21.34-.3.13-.09.28-.16.45-.21.17-.05.35-.08.55-.08.57 0 .99.16 1.26.49.27.33.41.81.41 1.45v3.14c-.07.01-.15.02-.24.03-.09.01-.17.01-.24.01-.07 0-.15 0-.24-.01s-.17-.02-.24-.03V39.6c0-.46-.07-.79-.21-1.01-.14-.22-.37-.32-.68-.32-.18 0-.35.03-.51.1-.16.06-.3.16-.43.3-.12.14-.22.31-.29.53-.07.22-.11.48-.11.78v2.52c-.07.01-.15.02-.24.03-.09.01-.17.01-.24.01-.07 0-.15 0-.24-.01s-.17-.02-.24-.03v-4.98zM77.24 35.39c.07-.01.15-.02.24-.03.09-.01.17-.01.23-.01.07 0 .15 0 .24.01s.17.02.24.03v6.96a6.285 6.285 0 0 1-1.84.25c-.35 0-.68-.04-.99-.13-.31-.09-.59-.23-.82-.43-.23-.2-.42-.46-.55-.77-.14-.32-.2-.71-.2-1.17 0-.4.06-.76.18-1.09.12-.33.29-.61.51-.85.22-.24.48-.42.79-.55.31-.13.65-.19 1.02-.19.17 0 .34.01.51.04.17.03.32.06.45.1v-2.17zm0 2.97c-.13-.05-.27-.09-.42-.12-.15-.03-.31-.04-.48-.04-.26 0-.49.05-.69.14-.19.1-.35.23-.48.4s-.22.37-.28.6c-.06.23-.09.48-.09.75.01.61.15 1.05.44 1.32.28.26.67.4 1.16.4.17 0 .32-.01.46-.02.14-.02.27-.04.38-.07v-3.36zM86.35 41.47c.14.28.23.54.27.8-.27.12-.55.2-.83.25-.28.05-.59.08-.92.08-.5 0-.96-.08-1.36-.25-.4-.17-.74-.4-1.02-.71-.28-.31-.49-.68-.64-1.12-.15-.44-.22-.93-.22-1.48 0-.55.07-1.06.22-1.5.15-.45.36-.83.64-1.15.28-.32.62-.56 1.02-.73.4-.17.85-.26 1.34-.26a5.186 5.186 0 0 1 1.66.26c-.01.15-.04.29-.08.41-.04.13-.09.26-.15.4-.1-.03-.19-.06-.28-.09-.09-.03-.19-.05-.29-.07-.1-.02-.22-.03-.34-.04-.13-.01-.27-.01-.43-.01-.7 0-1.25.24-1.64.72-.39.48-.59 1.16-.59 2.06 0 .46.05.86.16 1.19.11.34.27.61.46.83.2.22.44.38.72.49.28.11.6.16.94.16.27 0 .52-.02.74-.07.22-.02.42-.09.62-.17zM90.24 39.21c0-.38-.1-.65-.29-.79-.19-.15-.47-.22-.84-.22-.23 0-.44.02-.63.05-.2.04-.39.08-.58.14-.12-.21-.18-.47-.18-.76.22-.07.46-.13.73-.16.26-.04.52-.06.76-.06.64 0 1.14.15 1.47.44.34.29.5.76.5 1.41v3.11c-.23.05-.5.11-.82.16a6.4 6.4 0 0 1-.99.08c-.32 0-.6-.03-.86-.09s-.47-.15-.65-.28a1.3 1.3 0 0 1-.41-.49c-.1-.2-.14-.44-.14-.73 0-.28.06-.52.17-.73.11-.21.27-.38.46-.52s.42-.24.67-.31c.25-.07.52-.1.79-.1.21 0 .38 0 .51.01s.24.02.33.03v-.19zm0 .94c-.1-.01-.22-.03-.37-.04-.15-.01-.27-.02-.38-.02-.4 0-.7.07-.91.22-.21.15-.31.37-.31.68 0 .19.03.35.11.45.07.11.16.19.27.25.11.06.22.09.35.11.13.01.25.02.37.02.15 0 .3-.01.46-.02.16-.02.3-.04.42-.07v-1.58zM92.52 37.52l.2-.03c.06-.01.13-.01.2-.01s.14 0 .21.01c.07.01.14.02.19.03a5.203 5.203 0 0 1 .09.78c.14-.22.31-.41.54-.57.22-.16.51-.24.86-.24h.16c.05 0 .1.01.14.01l.03.18c.01.06.01.13.01.2 0 .08 0 .16-.01.24-.01.08-.02.17-.03.24a.875.875 0 0 0-.16-.02h-.13c-.17 0-.34.02-.5.07-.16.05-.3.13-.43.26-.13.12-.23.29-.3.5-.07.21-.11.49-.11.82v2.47c-.07.01-.15.02-.24.03-.09.01-.17.01-.24.01-.07 0-.15 0-.24-.01l-.25-.03v-4.94zM96.59 40.24c.01.54.15.94.42 1.19s.66.38 1.19.38c.46 0 .89-.08 1.31-.24.05.1.09.21.13.35.03.14.05.28.06.41a3 3 0 0 1-.7.2c-.25.05-.54.07-.85.07-.45 0-.84-.06-1.16-.19-.32-.13-.59-.3-.8-.53-.21-.23-.36-.5-.46-.81-.1-.31-.14-.66-.14-1.03s.05-.71.14-1.03c.09-.32.24-.6.43-.83.19-.24.44-.42.73-.56.29-.14.64-.21 1.04-.21.34 0 .64.06.9.17.26.12.47.28.65.48.17.2.31.44.4.73.09.28.14.59.14.91 0 .09 0 .19-.01.29-.01.1-.01.19-.02.26h-3.4zm2.46-.72c0-.18-.02-.35-.07-.52-.05-.16-.12-.31-.21-.43a.944.944 0 0 0-.36-.29c-.15-.07-.32-.11-.52-.11-.39 0-.7.12-.9.36-.21.24-.34.57-.38 1h2.44zM33.18 46.19c.14-.01.27-.03.39-.04l.34-.03c.11-.01.23-.02.35-.02.12-.01.26-.01.41-.01.33 0 .65.03.98.1.32.07.61.18.86.34.25.16.46.38.61.65.16.27.24.62.24 1.04 0 .25-.04.48-.13.69-.08.21-.19.39-.32.55-.13.16-.28.3-.44.42-.16.12-.32.22-.48.3l-.12.06 2.02 2.93a5.152 5.152 0 0 1-1.11 0l-2.23-3.22v-.05l.08-.02c.17-.05.36-.11.55-.18.19-.08.37-.18.54-.3.16-.13.3-.28.41-.45.11-.18.16-.39.16-.64 0-.46-.14-.81-.41-1.03-.27-.23-.64-.34-1.11-.34-.11 0-.21 0-.3.01s-.2.02-.31.03v6.2c-.07.01-.15.01-.24.02s-.17.01-.25.01h-.25c-.09 0-.17-.01-.25-.02v-7zM39.34 50.91c.01.54.15.94.42 1.19s.66.38 1.19.38c.46 0 .89-.08 1.31-.24.05.1.09.21.13.35.03.14.05.28.06.41a3 3 0 0 1-.7.2c-.25.05-.54.07-.85.07-.45 0-.84-.06-1.16-.19-.32-.13-.59-.3-.8-.53-.21-.23-.36-.5-.46-.81-.1-.31-.15-.66-.15-1.03s.05-.71.14-1.03c.09-.32.24-.6.43-.83.19-.24.44-.42.73-.56.29-.14.64-.21 1.04-.21.34 0 .64.06.9.17.26.12.47.28.65.48.17.2.31.45.4.73.09.28.14.59.14.91 0 .09 0 .19-.01.29-.01.1-.01.19-.02.26h-3.39zm2.46-.71c0-.18-.02-.35-.07-.52-.05-.16-.12-.31-.21-.43a1.07 1.07 0 0 0-.36-.3c-.15-.07-.32-.11-.52-.11-.39 0-.7.12-.9.36-.21.24-.34.57-.38 1h2.44zM43.82 52.26c.17.07.37.13.58.17.21.04.42.06.62.06.15 0 .29-.02.43-.05.14-.03.25-.08.35-.15.1-.06.18-.14.24-.24.06-.09.09-.2.09-.31 0-.13-.02-.24-.07-.32a.756.756 0 0 0-.19-.21c-.08-.06-.17-.11-.28-.15-.11-.04-.22-.08-.34-.12l-.34-.13c-.41-.15-.71-.33-.9-.52-.19-.19-.28-.45-.28-.78 0-.44.16-.79.47-1.05.31-.26.77-.39 1.38-.39.25 0 .5.02.74.07s.45.11.63.17c-.01.13-.04.26-.07.39-.04.13-.08.25-.13.36-.14-.05-.31-.1-.51-.15-.2-.05-.41-.07-.63-.07-.24 0-.45.04-.63.13-.18.08-.28.23-.28.45 0 .11.02.2.07.28.04.08.11.14.18.2.08.05.17.1.27.14.1.04.21.08.32.12l.43.14c.15.05.3.11.44.18a1.216 1.216 0 0 1 .6.66c.06.15.09.33.09.55 0 .24-.05.46-.15.65-.1.2-.23.36-.41.5-.18.14-.39.25-.64.32-.25.08-.53.12-.83.12-.31 0-.58-.02-.81-.06-.23-.04-.45-.1-.65-.17.01-.13.04-.26.08-.39.03-.14.08-.27.13-.4zM48.93 50.91c.01.54.15.94.42 1.19s.66.38 1.19.38c.46 0 .89-.08 1.31-.24.05.1.09.21.13.35.03.14.05.28.06.41a3 3 0 0 1-.7.2c-.25.05-.54.07-.85.07-.45 0-.84-.06-1.16-.19-.32-.13-.59-.3-.8-.53-.21-.23-.36-.5-.46-.81-.1-.31-.15-.66-.15-1.03s.05-.71.14-1.03c.09-.32.24-.6.43-.83.19-.24.44-.42.73-.56.29-.14.64-.21 1.04-.21.34 0 .64.06.9.17.26.12.47.28.65.48.17.2.31.45.4.73.09.28.14.59.14.91 0 .09 0 .19-.01.29-.01.1-.01.19-.02.26h-3.39zm2.45-.71c0-.18-.02-.35-.07-.52-.05-.16-.12-.31-.21-.43a1.07 1.07 0 0 0-.36-.3c-.15-.07-.32-.11-.52-.11-.39 0-.7.12-.9.36-.21.24-.34.57-.38 1h2.44zM56.11 49.89c0-.38-.1-.64-.29-.79-.19-.15-.47-.22-.84-.22-.23 0-.44.02-.63.05-.2.04-.39.08-.58.14-.12-.21-.18-.47-.18-.76.22-.07.46-.13.73-.16.26-.04.52-.06.76-.06.65 0 1.13.15 1.47.44.34.29.5.76.5 1.41v3.11c-.23.05-.5.11-.82.16a6.4 6.4 0 0 1-.99.08c-.32 0-.6-.03-.86-.09a1.83 1.83 0 0 1-.65-.28 1.3 1.3 0 0 1-.41-.49c-.1-.2-.15-.44-.15-.73 0-.28.06-.52.17-.73.11-.21.27-.38.46-.52s.42-.24.67-.31c.25-.07.52-.1.79-.1.21 0 .38 0 .51.01s.24.02.33.03v-.19zm0 .94c-.1-.01-.22-.03-.37-.04-.15-.01-.27-.02-.38-.02-.4 0-.7.07-.91.22-.21.15-.31.37-.31.68 0 .19.04.34.11.45.07.11.16.19.27.25.11.06.22.09.35.11.13.01.25.02.37.02.15 0 .3-.01.46-.02.16-.02.3-.04.42-.07v-1.58zM58.4 48.2l.2-.03c.06-.01.13-.01.2-.01s.14 0 .21.01c.07.01.14.02.19.03a5.203 5.203 0 0 1 .09.78c.14-.22.31-.41.54-.57.22-.16.51-.24.86-.24h.16c.05 0 .1.01.14.01l.03.18c.01.06.01.13.01.2 0 .08 0 .16-.01.24l-.03.24c-.05-.01-.1-.02-.16-.02h-.13c-.17 0-.34.02-.5.07-.16.05-.3.13-.43.26-.13.12-.23.29-.3.5-.07.21-.11.49-.11.82v2.47c-.07.01-.15.02-.24.03-.09.01-.17.01-.24.01-.07 0-.15 0-.24-.01l-.25-.03V48.2zM65.06 52.3c.05.09.1.2.13.34.04.14.06.27.07.42-.38.15-.82.22-1.31.22-.83 0-1.45-.23-1.87-.7-.42-.47-.63-1.1-.63-1.89 0-.37.05-.71.15-1.03.1-.32.26-.59.46-.82.2-.23.46-.42.76-.55.3-.14.65-.2 1.05-.2.27 0 .51.02.72.05.21.03.4.08.59.15 0 .11-.01.24-.04.38a1.7 1.7 0 0 1-.12.38c-.32-.11-.68-.16-1.08-.16-.5 0-.87.16-1.11.49-.25.33-.37.76-.37 1.31 0 .62.14 1.07.42 1.36.28.29.66.43 1.14.43.19 0 .37-.01.54-.04.17-.03.34-.08.5-.14zM66.27 46.07c.07-.01.15-.02.24-.03.09-.01.17-.01.24-.01.07 0 .15 0 .24.01s.17.02.24.03v2.88c.06-.09.13-.19.22-.29.09-.1.19-.2.32-.29.13-.09.27-.16.44-.21.16-.05.35-.08.55-.08.57 0 .99.16 1.26.49.27.33.41.81.41 1.45v3.14c-.07.01-.15.02-.24.03-.09.01-.17.01-.24.01-.07 0-.15 0-.24-.01s-.17-.02-.24-.03v-2.88c0-.46-.08-.79-.23-1.01-.15-.22-.38-.32-.69-.32-.17 0-.34.03-.5.09-.16.06-.3.16-.43.29-.12.13-.22.3-.29.52-.07.21-.11.47-.11.77v2.54c-.07.01-.15.02-.24.03-.09.01-.17.01-.24.01-.06 0-.14 0-.23-.01s-.17-.02-.24-.03v-7.09z" class="st0"/><path d="M73.46 46.2c.07-.01.16-.02.27-.03.11-.01.2-.01.3-.01.09 0 .18 0 .28.01l.26.03 1.19 5.8 1.43-5.8c.08-.01.16-.02.26-.03.09-.01.18-.01.27-.01.08 0 .17 0 .26.01.1.01.18.02.25.03l1.44 5.85 1.21-5.85.23-.03c.08-.01.16-.01.24-.01.09 0 .18 0 .28.01.09.01.18.02.25.03l-1.67 6.96c-.08.01-.17.02-.27.03-.1.01-.2.01-.28.01-.09 0-.19 0-.3-.01l-.3-.03-1.37-5.45-1.39 5.45-.3.03c-.11.01-.21.01-.29.01-.08 0-.17 0-.27-.01s-.19-.02-.27-.03l-1.71-6.96zM85.11 49.89c0-.38-.1-.64-.29-.79-.19-.15-.47-.22-.84-.22-.23 0-.44.02-.63.05-.2.04-.39.08-.58.14-.12-.21-.18-.47-.18-.76.22-.07.46-.13.73-.16.26-.04.52-.06.76-.06.65 0 1.14.15 1.47.44.34.29.5.76.5 1.41v3.11c-.23.05-.5.11-.82.16a6.4 6.4 0 0 1-.99.08c-.32 0-.6-.03-.86-.09s-.47-.15-.65-.28a1.3 1.3 0 0 1-.41-.49c-.1-.2-.15-.44-.15-.73 0-.28.06-.52.17-.73.11-.21.27-.38.46-.52s.42-.24.67-.31c.25-.07.52-.1.79-.1.21 0 .38 0 .51.01s.24.02.33.03v-.19zm0 .94c-.1-.01-.22-.03-.37-.04-.15-.01-.27-.02-.38-.02-.4 0-.7.07-.91.22-.21.15-.31.37-.31.68 0 .19.04.34.11.45.07.11.16.19.27.25.11.06.22.09.35.11.13.01.25.02.37.02.15 0 .3-.01.46-.02.16-.02.3-.04.42-.07v-1.58zM87.37 46.07c.07-.01.15-.02.24-.03.09-.01.17-.01.24-.01.07 0 .15 0 .24.01s.17.02.24.03v5.59c0 .18.02.32.05.43.03.1.08.18.13.24s.12.09.19.11c.07.02.15.02.24.02.06 0 .12 0 .2-.01.07-.01.14-.02.19-.03.06.23.09.47.09.74-.09.03-.2.05-.33.06-.13.01-.25.01-.36.01-.19 0-.36-.02-.52-.07-.16-.05-.3-.12-.43-.22-.12-.1-.22-.24-.29-.42-.07-.17-.11-.39-.11-.65v-5.8zM90.9 50.91c.01.54.15.94.42 1.19s.66.38 1.18.38c.46 0 .89-.08 1.31-.24.05.1.09.21.13.35.03.14.05.28.06.41a3 3 0 0 1-.7.2c-.26.05-.54.07-.85.07-.45 0-.84-.06-1.16-.19-.32-.13-.59-.3-.8-.53-.21-.23-.36-.5-.46-.81-.1-.31-.15-.66-.15-1.03s.05-.71.14-1.03c.09-.32.24-.6.43-.83.19-.24.44-.42.73-.56.29-.14.64-.21 1.04-.21.34 0 .64.06.9.17.26.12.47.28.65.48.17.2.31.45.4.73.09.28.14.59.14.91 0 .09 0 .19-.01.29-.01.1-.01.19-.02.26H90.9zm2.45-.71c0-.18-.02-.35-.07-.52-.05-.16-.12-.31-.21-.43a1.07 1.07 0 0 0-.36-.3c-.14-.07-.32-.11-.52-.11-.39 0-.7.12-.91.36-.21.24-.34.57-.38 1h2.45zM95.37 52.26c.17.07.37.13.58.17.21.04.42.06.62.06.15 0 .29-.02.43-.05.14-.03.25-.08.35-.15.1-.06.18-.14.24-.24.06-.09.09-.2.09-.31 0-.13-.02-.24-.07-.32a.756.756 0 0 0-.19-.21c-.08-.06-.17-.11-.28-.15-.11-.04-.22-.08-.34-.12l-.34-.13c-.41-.15-.71-.33-.9-.52-.19-.19-.28-.45-.28-.78 0-.44.16-.79.47-1.05.31-.26.77-.39 1.38-.39.25 0 .5.02.74.07s.45.11.63.17c-.01.13-.04.26-.07.39-.04.13-.08.25-.13.36-.14-.05-.31-.1-.51-.15-.2-.05-.41-.07-.63-.07-.24 0-.45.04-.63.13-.18.08-.28.23-.28.45 0 .11.02.2.07.28.05.08.11.14.18.2.08.05.17.1.27.14.1.04.21.08.32.12l.43.14c.15.05.3.11.44.18a1.216 1.216 0 0 1 .6.66c.06.15.09.33.09.55 0 .24-.05.46-.15.65-.1.2-.23.36-.41.5-.18.14-.39.25-.64.32-.25.08-.53.12-.83.12-.31 0-.58-.02-.81-.06-.23-.04-.45-.1-.65-.17.01-.13.04-.26.08-.39.04-.14.08-.27.13-.4z" class="st1"/><path d="M19.38 17.45c0-5.28-3.21-8.2-7.18-11.23-3.98 3.03-7.18 5.94-7.18 11.23s3.19 8.2 7.17 11.23c3.97-3.03 7.19-5.94 7.19-11.23zM5.19 46.05c0 5.29 3.21 8.2 7.19 11.23 3.89-2.98 7-5.88 7-11.09 0-5.29-3.21-8.2-7.19-11.23-3.89 2.98-7 5.89-7 11.09z" class="st2"/><path d="M10.88 58.41c.51-.38 1.01-.75 1.49-1.13-3.98-3.03-7.19-5.94-7.19-11.23 0-5.2 3.11-8.11 7-11.09 0 0-.01 0-.01-.01-.43-.32-.86-.65-1.3-.98-.93-.69-1.87-1.4-2.8-2.15-4.1 3.28-7.9 7.33-7.9 14.23 0 7.02 3.93 11.09 8.1 14.39.01.01.02.01.03.02l-.03-.02c.85-.67 1.77-1.4 2.61-2.03z" style="fill:#008247"/><path d="M12.18 28.68c-3.98-3.03-7.17-5.95-7.17-11.23s3.21-8.2 7.18-11.23c-.43-.33-.87-.66-1.32-.99-.83-.63-1.96-1.48-2.8-2.15C3.91 6.38 0 10.45 0 17.45c0 7 3.91 11.07 8.07 14.37.93-.75 1.88-1.46 2.8-2.15.45-.34.89-.66 1.31-.99z" style="fill:#0090a7"/><path d="M13.88 1.22C13.34.81 12.8.41 12.28.01L8.07 3.08c.85.68 1.97 1.52 2.81 2.15.45.33.88.66 1.32.99 3.98 3.03 7.18 5.94 7.18 11.23s-3.21 8.21-7.19 11.23l.01.01c.55.42 1.12.85 1.69 1.28.8.6 1.61 1.21 2.42 1.84l.01.01c4.16-3.3 8.08-7.37 8.08-14.37-.01-8.37-5.59-12.55-10.52-16.23z" class="st1"/><path d="M8.08 31.82s-.01 0 0 0c-.01 0-.01 0 0 0-.01 0-.01 0 0 0 .02-.01.03-.03.05-.04-.02.01-.04.03-.05.04zM11.32 29.34l.87-.66-.01-.01c-.28.23-.57.45-.86.67z" class="st5"/><path d="m16.31 31.82-.01-.01c-.8-.64-1.62-1.25-2.42-1.84-.58-.43-1.14-.86-1.69-1.28-.29.22-.57.44-.87.66.29-.22.57-.44.86-.66-.43.32-.86.65-1.3.98-.93.69-1.87 1.4-2.8 2.15.02-.01.03-.03.05-.04-.02.01-.04.03-.05.04.93.75 1.88 1.46 2.8 2.15a217.9 217.9 0 0 1 1.31.99c3.98 3.03 7.19 5.94 7.19 11.23 0 5.21-3.11 8.11-7 11.09-.49.37-.99.75-1.49 1.13-.84.63-1.76 1.36-2.61 2.03l.03.02 4.1 3.13c.52-.4.94-.76 1.48-1.17 4.92-3.69 10.51-7.86 10.51-16.23-.01-7-3.93-11.07-8.09-14.37z" class="st5"/></svg>