<svg xmlns="http://www.w3.org/2000/svg" width="253" height="97" fill="none"><g clip-path="url(#a)"><path fill="#6F8F9D" fill-rule="evenodd" d="M16.117 79.72c.836-.171 2.053-.286 3.176-.286 1.767 0 2.929.344 3.727 1.068.628.553 1.008 1.432 1.008 2.442 0 1.68-1.085 2.806-2.415 3.262v.057c.969.344 1.559 1.258 1.88 2.595.42 1.794.724 3.031.972 3.527h-1.711c-.21-.362-.495-1.467-.837-3.069-.381-1.775-1.084-2.443-2.586-2.5h-1.56v5.57h-1.654V79.72Zm1.653 5.838h1.692c1.77 0 2.893-.973 2.893-2.44 0-1.662-1.2-2.386-2.948-2.386-.8 0-1.35.076-1.637.151v4.675ZM27.635 88.056c.037 2.269 1.464 3.206 3.139 3.206 1.197 0 1.94-.212 2.547-.46l.305 1.184c-.59.266-1.615.591-3.08.591-2.815 0-4.526-1.888-4.526-4.653 0-2.805 1.652-5 4.335-5 3.005 0 3.783 2.652 3.783 4.35 0 .344-.018.61-.055.802l-6.448-.02Zm4.887-1.203c.02-1.048-.436-2.725-2.3-2.725-1.71 0-2.434 1.562-2.566 2.725h4.866ZM36.323 90.69c.514.306 1.389.648 2.224.648 1.199 0 1.77-.591 1.77-1.373 0-.802-.476-1.24-1.693-1.698-1.674-.61-2.453-1.505-2.453-2.612 0-1.49 1.217-2.71 3.176-2.71.932 0 1.75.249 2.244.574l-.4 1.202c-.361-.21-1.027-.536-1.882-.536-.989 0-1.522.573-1.522 1.26 0 .783.533 1.125 1.732 1.582 1.577.592 2.414 1.394 2.414 2.786 0 1.639-1.274 2.785-3.423 2.785-1.008 0-1.94-.266-2.586-.65l.399-1.257ZM45.374 88.056c.037 2.269 1.462 3.206 3.136 3.206 1.198 0 1.94-.212 2.549-.46l.305 1.184c-.59.266-1.617.591-3.081.591-2.815 0-4.525-1.888-4.525-4.653 0-2.805 1.653-5 4.334-5 3.005 0 3.784 2.652 3.784 4.35 0 .344-.019.61-.056.802l-6.446-.02Zm4.885-1.203c.02-1.048-.436-2.725-2.3-2.725-1.71 0-2.434 1.562-2.566 2.725h4.866ZM60.773 90.175c0 .802.038 1.584.133 2.212h-1.502l-.151-1.164h-.058c-.494.725-1.503 1.375-2.814 1.375-1.864 0-2.815-1.317-2.815-2.652 0-2.232 1.977-3.452 5.534-3.432v-.192c0-.762-.21-2.156-2.092-2.137-.875 0-1.768.25-2.415.688l-.38-1.127c.76-.475 1.883-.8 3.043-.8 2.832 0 3.517 1.927 3.517 3.777v3.452Zm-1.635-2.498c-1.825-.04-3.898.286-3.898 2.08 0 1.105.723 1.601 1.56 1.601 1.216 0 1.996-.762 2.263-1.545.057-.174.075-.363.075-.535v-1.601ZM63.813 86.036c0-1.086-.018-2.023-.077-2.88H65.2l.077 1.81h.057c.418-1.237 1.445-2.02 2.567-2.02.171 0 .304.019.457.056v1.566a5.134 5.134 0 0 0-.59-.037c-1.179 0-2.016.895-2.245 2.134-.037.25-.057.516-.057.8v4.922h-1.671l.018-6.351ZM76.803 92.063c-.439.211-1.409.535-2.645.535-2.775 0-4.582-1.89-4.582-4.732 0-2.842 1.94-4.92 4.946-4.92.986 0 1.862.248 2.318.497l-.381 1.278c-.4-.212-1.027-.44-1.938-.44-2.111 0-3.254 1.582-3.254 3.51 0 2.137 1.371 3.452 3.197 3.452.95 0 1.578-.229 2.051-.438l.288 1.258ZM79.102 78.843h1.673v5.76h.037a2.99 2.99 0 0 1 1.197-1.183 3.25 3.25 0 0 1 1.712-.476c1.238 0 3.215.763 3.215 3.948v5.495H85.26v-5.305c0-1.506-.55-2.747-2.128-2.747-1.085 0-1.92.765-2.245 1.678-.094.23-.113.479-.113.802v5.572h-1.673V78.843ZM100.85 90.175c0 .802.037 1.584.134 2.212h-1.503l-.152-1.164h-.057c-.496.725-1.504 1.375-2.815 1.375-1.863 0-2.814-1.317-2.814-2.652 0-2.232 1.979-3.452 5.533-3.432v-.192c0-.762-.208-2.156-2.092-2.137-.873 0-1.768.25-2.415.688l-.379-1.127c.761-.475 1.883-.8 3.043-.8 2.831 0 3.517 1.927 3.517 3.777v3.452Zm-1.636-2.498c-1.825-.04-3.898.286-3.898 2.08 0 1.105.723 1.601 1.56 1.601 1.216 0 1.996-.762 2.264-1.545.056-.174.074-.363.074-.535v-1.601ZM103.872 85.654c0-.97-.018-1.735-.075-2.498h1.483l.096 1.507h.037c.456-.86 1.52-1.718 3.041-1.718 1.275 0 3.253.764 3.253 3.93v5.512h-1.673v-5.32c0-1.49-.551-2.748-2.131-2.748-1.084 0-1.939.783-2.244 1.717a2.56 2.56 0 0 0-.114.781v5.57h-1.673v-6.733ZM122.713 78.843V90c0 .82.019 1.757.076 2.387h-1.503l-.077-1.604h-.036c-.514 1.031-1.615 1.813-3.119 1.813-2.226 0-3.956-1.89-3.956-4.695-.017-3.088 1.902-4.957 4.128-4.957 1.427 0 2.374.668 2.775 1.391h.039v-5.492h1.673Zm-1.673 8.067c0-.229-.019-.495-.076-.724-.248-1.049-1.161-1.927-2.417-1.927-1.729 0-2.757 1.525-2.757 3.548 0 1.888.932 3.434 2.72 3.434 1.121 0 2.149-.762 2.454-2.002.057-.23.076-.459.076-.725V86.91ZM130.24 79.702a23.963 23.963 0 0 1 3.537-.268c2.377 0 4.069.535 5.19 1.583 1.162 1.05 1.826 2.556 1.826 4.636 0 2.099-.664 3.816-1.845 4.999-1.217 1.2-3.195 1.85-5.685 1.85-1.198 0-2.168-.04-3.023-.155V79.702Zm1.672 11.387c.42.076 1.028.076 1.673.076 3.538.02 5.46-1.983 5.46-5.455.017-3.07-1.693-4.959-5.193-4.959-.856 0-1.502.076-1.94.173v10.165ZM144.268 88.056c.038 2.269 1.463 3.206 3.136 3.206 1.199 0 1.94-.212 2.549-.46l.305 1.184c-.59.266-1.617.591-3.082.591-2.813 0-4.524-1.888-4.524-4.653 0-2.805 1.654-5 4.335-5 3.005 0 3.785 2.652 3.785 4.35 0 .344-.02.61-.057.802l-6.447-.02Zm4.888-1.203c.019-1.048-.438-2.725-2.3-2.725-1.713 0-2.436 1.562-2.57 2.725h4.87ZM153.792 83.157l1.807 5.168c.304.86.551 1.622.742 2.383h.056c.209-.761.475-1.524.78-2.383l1.788-5.168h1.748l-3.611 9.23h-1.598l-3.5-9.23h1.788ZM163.375 88.056c.037 2.269 1.462 3.206 3.136 3.206 1.198 0 1.94-.212 2.548-.46l.305 1.184c-.591.266-1.617.591-3.083.591-2.812 0-4.523-1.888-4.523-4.653 0-2.805 1.654-5 4.335-5 3.004 0 3.784 2.652 3.784 4.35 0 .344-.02.61-.057.802l-6.445-.02Zm4.884-1.203c.022-1.048-.435-2.725-2.3-2.725-1.711 0-2.434 1.562-2.567 2.725h4.867ZM172.289 92.387h1.674V78.843h-1.674v13.544ZM180.826 92.597c-2.471 0-4.412-1.833-4.412-4.75 0-3.09 2.035-4.902 4.565-4.902 2.644 0 4.43 1.927 4.43 4.729 0 3.434-2.376 4.923-4.564 4.923h-.019Zm.059-1.26c1.594 0 2.794-1.507 2.794-3.604 0-1.564-.778-3.529-2.758-3.529-1.958 0-2.815 1.83-2.815 3.586 0 2.022 1.143 3.547 2.757 3.547h.022ZM187.859 86.169c0-1.183-.02-2.138-.074-3.014h1.499l.094 1.584h.041c.665-1.145 1.769-1.794 3.251-1.794 2.243 0 3.917 1.888 3.917 4.691 0 3.32-2.035 4.96-4.184 4.96-1.237 0-2.281-.533-2.833-1.449h-.037v5.016h-1.674V86.17Zm1.674 2.461c0 .229.019.475.077.685a2.557 2.557 0 0 0 2.49 1.964c1.768 0 2.794-1.449 2.794-3.566 0-1.85-.95-3.432-2.718-3.432-1.141 0-2.226.8-2.549 2.06-.037.228-.094.475-.094.685v1.604ZM199.019 85.654c0-.97-.037-1.735-.078-2.498h1.466l.076 1.487h.057c.512-.877 1.369-1.698 2.909-1.698 1.236 0 2.187.764 2.588 1.852h.037a3.626 3.626 0 0 1 1.044-1.202c.554-.42 1.144-.65 2.018-.65 1.234 0 3.042.801 3.042 4.007v5.435h-1.636v-5.226c0-1.793-.664-2.842-1.997-2.842-.968 0-1.691.705-1.996 1.507-.076.25-.133.553-.133.84v5.721h-1.636v-5.532c0-1.487-.646-2.536-1.92-2.536-1.025 0-1.808.84-2.073 1.68a2.283 2.283 0 0 0-.133.818v5.57h-1.635v-6.733ZM216.166 88.056c.037 2.269 1.463 3.206 3.138 3.206 1.197 0 1.938-.212 2.547-.46l.304 1.184c-.589.266-1.617.591-3.079.591-2.815 0-4.527-1.888-4.527-4.653 0-2.805 1.654-5 4.336-5 3.004 0 3.783 2.652 3.783 4.35 0 .344-.019.61-.055.802l-6.447-.02Zm4.887-1.203c.019-1.048-.438-2.725-2.3-2.725-1.714 0-2.435 1.562-2.57 2.725h4.87ZM225.081 85.654c0-.97-.018-1.735-.075-2.498h1.483l.094 1.507h.04c.456-.86 1.521-1.718 3.044-1.718 1.273 0 3.249.764 3.249 3.93v5.512h-1.673v-5.32c0-1.49-.55-2.748-2.131-2.748-1.083 0-1.938.783-2.243 1.717a2.53 2.53 0 0 0-.114.781v5.57h-1.674v-6.733Z" clip-rule="evenodd"/><mask id="b" width="261" height="103" x="0" y="0" maskUnits="userSpaceOnUse" style="mask-type:alpha"><path fill="#fff" d="M0 0h261v103H0V0Z"/></mask><g fill-rule="evenodd" clip-rule="evenodd" mask="url(#b)"><path fill="#6F8F9D" d="M237.916 80.94v2.212h2.396v1.28h-2.396v4.979c0 1.144.325 1.793 1.255 1.793.459 0 .722-.04.97-.115l.076 1.278a4.534 4.534 0 0 1-1.483.23c-.778 0-1.408-.267-1.806-.708-.458-.515-.647-1.334-.647-2.42v-5.037h-1.426v-1.28h1.426v-1.696l1.635-.516Z"/><path fill="#FFFFFE" d="M13.055 0C5.82 0-.068 4.991-.068 11.13v41.861c0 6.133 5.888 11.125 13.123 11.125h63.88c7.236 0 13.12-4.992 13.12-11.125v-41.86C90.055 4.99 84.17 0 76.935 0h-63.88Z"/><path fill="#00ACBA" d="M13.227 60.187h38.917c-2.328-2.677-3.226-7.497-3.502-13.866-.008-.191.148-.253.294-.21.126.038.218.169.259.365 1.17 5.908 2.162 11.305 5.639 13.528.817.526 2.067.028 3.305-.615-1.168-2.718-1.559-6.342-1.744-10.696-.014-.194.146-.252.293-.206.126.037.222.165.258.36.75 4.374 1.514 7.493 2.782 9.568 5.116-3.223 10.976-12.34 14.426-24.847 3.41-12.34 3.456-23.746.598-29.292-2.39 1.356-4.906 4.013-7.632 7.712-.144.2-.312.216-.45.152-.122-.055-.179-.186-.104-.307 2.455-3.726 4.017-6.368 6.654-8.233h-8c-1.687 1.472-4.002 3.502-5.855 6.017-.141.196-.308.219-.447.148-.12-.052-.175-.19-.102-.301 1.529-2.323 2.723-4.295 4.362-5.864h-49.95c-5.138 0-9.302 3.267-9.302 7.295v42c0 4.026 4.164 7.292 9.301 7.292Z"/><path fill="#00ACBA" d="M78.288 34.717c-3.328 12.06-9.987 21.499-15.735 25.471h5.653c4.852-4.016 10.59-12.975 13.697-24.25 4.12-14.892 3.332-28.433-1.55-31.93a11.244 11.244 0 0 0-2.517-.382c3.623 6.061 4.026 18.157.452 31.09ZM73.178 60.185h4.15c5.139 0 9.303-3.265 9.303-7.292V34.79a84.452 84.452 0 0 1-.59 2.297C83.257 47.172 78.14 55.43 73.178 60.184Z"/><path fill="#FFFFFE" d="M20.279 20.994v7.98h7.673v-7.98H32.6V41.67h-4.648V33.05h-7.673v8.619h-4.652V20.994h4.652ZM36.821 36.888c1.224.642 3.178 1.29 5.165 1.29 2.143 0 3.274-.891 3.274-2.273 0-1.258-.981-2.023-3.46-2.884-3.421-1.227-5.681-3.128-5.681-6.17 0-3.523 2.965-6.192 7.792-6.192 2.359 0 4.04.46 5.263 1.045l-1.04 3.74a9.653 9.653 0 0 0-4.283-.98c-2.018 0-2.995.953-2.995 1.994 0 1.317 1.13 1.901 3.822 2.944C48.315 30.754 50 32.652 50 35.598c0 3.469-2.633 6.414-8.29 6.414-2.353 0-4.674-.649-5.839-1.29l.95-3.834ZM68.286 41.12c-.827.396-2.782.886-5.26.886-7.127 0-10.798-4.474-10.798-10.396 0-7.056 5.018-10.95 11.257-10.95 2.415 0 4.246.49 5.077.917l-.983 3.683c-.916-.4-2.232-.768-3.911-.768-3.67 0-6.546 2.24-6.546 6.873 0 4.143 2.45 6.744 6.575 6.744 1.437 0 2.966-.273 3.916-.672l.673 3.682Z"/><path fill="#6F8F9D" d="M99.073 15.434c.537.143 1.244.199 2.038.199 2.999 0 4.783-1.474 4.783-4.06 0-2.554-1.784-3.776-4.499-3.776-1.078 0-1.898.114-2.322.197v7.44ZM96.61 6.233c1.188-.228 2.745-.395 4.726-.395 2.435 0 4.218.568 5.35 1.591 1.047.907 1.7 2.3 1.7 4.002 0 1.734-.51 3.095-1.5 4.089-1.305 1.392-3.427 2.1-5.833 2.1-.736 0-1.415-.028-1.981-.17v7.667H96.61V6.233ZM122.625 21.368c0 1.42.029 2.668.116 3.75h-2.21l-.14-2.245h-.058c-.623 1.106-2.092 2.555-4.528 2.555-2.151 0-4.727-1.223-4.727-6.02v-8.036h2.492v7.586c0 2.609.818 4.398 3.056 4.398 1.669 0 2.831-1.163 3.284-2.3.14-.34.226-.795.226-1.278v-8.406h2.489v9.996ZM129.248 19.61c0 .312.031.623.088.907.48 1.732 1.951 2.922 3.738 2.922 2.629 0 4.158-2.127 4.158-5.28 0-2.782-1.413-5.138-4.075-5.138-1.698 0-3.283 1.191-3.763 3.067a3.837 3.837 0 0 0-.146 1.049v2.472ZM126.76 4.956h2.488v8.602h.059c.879-1.532 2.46-2.496 4.67-2.496 3.396 0 5.777 2.837 5.777 6.982 0 4.942-3.116 7.383-6.174 7.383-1.979 0-3.534-.767-4.582-2.584h-.059l-.141 2.273h-2.152c.086-.936.114-2.328.114-3.55V4.957ZM142.867 25.118h2.487V4.957h-2.487v20.16ZM149.491 25.117h2.491V11.374h-2.491v13.743Zm1.189-16.27c-.937 0-1.559-.74-1.559-1.617 0-.88.652-1.59 1.613-1.59.963 0 1.587.71 1.587 1.59 0 .878-.624 1.617-1.616 1.617h-.025ZM165.878 24.636c-.652.313-2.093.793-3.939.793-4.13 0-6.816-2.808-6.816-7.04 0-4.23 2.883-7.326 7.357-7.326 1.472 0 2.773.37 3.457.739l-.568 1.903c-.596-.314-1.527-.655-2.889-.655-3.143 0-4.839 2.358-4.839 5.226 0 3.177 2.036 5.139 4.753 5.139a7.078 7.078 0 0 0 3.057-.652l.427 1.873ZM177.341 5.979v8.007h9.228V5.979h2.491v19.137h-2.491v-8.972h-9.228v8.972h-2.489V5.98h2.489ZM201.966 16.884c.033-1.565-.648-4.063-3.421-4.063-2.549 0-3.624 2.328-3.823 4.063h7.244Zm-7.271 1.788c.057 3.377 2.178 4.768 4.669 4.768 1.781 0 2.89-.31 3.793-.683l.454 1.764c-.878.396-2.407.879-4.585.879-4.191 0-6.739-2.811-6.739-6.928 0-4.174 2.465-7.44 6.457-7.44 4.472 0 5.631 3.95 5.631 6.476 0 .508-.03.909-.083 1.19l-9.597-.026ZM214.675 18.103c-2.713-.056-5.798.424-5.798 3.094 0 1.647 1.069 2.388 2.318 2.388 1.808 0 2.974-1.137 3.37-2.3.086-.257.11-.541.11-.795v-2.387Zm2.437 3.721c0 1.19.057 2.354.198 3.293h-2.238l-.225-1.735h-.085c-.736 1.08-2.236 2.046-4.19 2.046-2.774 0-4.187-1.958-4.187-3.945 0-3.322 2.942-5.14 8.233-5.113v-.281c0-1.137-.308-3.209-3.11-3.18-1.302 0-2.631.366-3.595 1.021l-.567-1.677c1.13-.71 2.802-1.19 4.531-1.19 4.218 0 5.235 2.867 5.235 5.621v5.14ZM221.104 25.118h2.489V4.957h-2.489v20.16ZM230.73 8.08v3.293h3.563v1.9h-3.563v7.412c0 1.704.481 2.672 1.868 2.672.68 0 1.074-.058 1.443-.17l.11 1.9c-.479.17-1.241.34-2.206.34-1.16 0-2.094-.396-2.69-1.05-.679-.766-.959-1.988-.959-3.604v-7.5h-2.126v-1.9h2.126V8.846l2.434-.765ZM237.098 4.957h2.49v8.575h.055c.4-.71 1.021-1.36 1.786-1.762a4.83 4.83 0 0 1 2.544-.707c1.844 0 4.785 1.133 4.785 5.876v8.178h-2.487V17.22c0-2.242-.821-4.088-3.171-4.088-1.615 0-2.86 1.134-3.344 2.5-.141.34-.168.709-.168 1.194v8.29h-2.49V4.957ZM105.951 51.241l-1.897-5.51c-.395-1.246-.68-2.385-.962-3.492h-.086a45.99 45.99 0 0 1-.934 3.469l-1.866 5.533h5.745Zm-6.255 1.93-1.983 6.021h-2.547l6.482-19.138h2.972l6.512 19.138h-2.635l-2.039-6.02h-6.762ZM122.736 50.842c0-.404-.028-.767-.14-1.11-.451-1.476-1.643-2.668-3.479-2.668-2.383 0-4.079 2.017-4.079 5.225 0 2.67 1.388 4.94 4.049 4.94 1.558 0 2.942-.964 3.451-2.585.143-.397.198-.88.198-1.333v-2.469Zm2.492 6.333c0 3.177-.65 5.078-1.95 6.3-1.363 1.221-3.287 1.649-5.015 1.649-1.64 0-3.453-.4-4.555-1.135l.623-1.932c.905.594 2.322 1.105 4.019 1.105 2.546 0 4.417-1.334 4.417-4.826v-1.502h-.059c-.736 1.277-2.236 2.297-4.358 2.297-3.397 0-5.83-2.896-5.83-6.73 0-4.657 3.03-7.267 6.196-7.267 2.382 0 3.653 1.22 4.275 2.355h.059l.082-2.043h2.211c-.088.966-.115 2.073-.115 3.748v7.981ZM138.026 50.953c.025-1.56-.654-4.057-3.43-4.057-2.545 0-3.619 2.33-3.821 4.057h7.251Zm-7.275 1.794c.055 3.377 2.177 4.767 4.669 4.767 1.783 0 2.886-.313 3.795-.68l.454 1.76c-.878.4-2.411.88-4.59.88-4.19 0-6.733-2.812-6.733-6.93 0-4.175 2.46-7.437 6.451-7.437 4.473 0 5.634 3.948 5.634 6.475 0 .508-.03.908-.087 1.192l-9.593-.027ZM143.513 49.165c0-1.447-.025-2.584-.113-3.721h2.21l.14 2.246h.056c.682-1.278 2.268-2.556 4.532-2.556 1.894 0 4.836 1.135 4.836 5.85v8.205h-2.49v-7.922c0-2.214-.819-4.088-3.17-4.088-1.611 0-2.888 1.165-3.337 2.554-.115.314-.174.767-.174 1.163v8.293h-2.49V49.165ZM168.991 58.706c-.65.313-2.098.795-3.933.795-4.135 0-6.826-2.813-6.826-7.043s2.89-7.324 7.361-7.324c1.474 0 2.774.367 3.454.735l-.565 1.904c-.594-.311-1.531-.652-2.889-.652-3.143 0-4.841 2.357-4.841 5.226 0 3.178 2.041 5.139 4.757 5.139a7.168 7.168 0 0 0 3.058-.652l.424 1.872ZM173.317 45.447l2.972 8.12c.341.907.68 1.987.907 2.812h.057c.253-.825.538-1.875.877-2.869l2.716-8.063h2.633l-3.736 9.797c-1.783 4.714-3.001 7.124-4.7 8.63-1.245 1.052-2.433 1.475-3.056 1.59l-.625-2.1c.625-.172 1.447-.569 2.181-1.223.679-.537 1.5-1.505 2.094-2.78.113-.258.202-.428.202-.597 0-.143-.057-.342-.202-.626l-5.035-12.691h2.715Z"/><path fill="#00ACBA" d="M6.598 72.75H252.13v-3.181H6.598v3.18Z"/></g></g><defs><clipPath id="a"><path fill="#fff" d="M0 0h253v97H0z"/></clipPath></defs></svg>