<svg xmlns="http://www.w3.org/2000/svg" width="251" height="165.249" version="1.2" viewBox="0 0 188.25 123.937"><path d="M202.969 155.684c-3.942-1.16-6.274-1.418-6.274-3.61 0-1.504 1.407-2.62 3.84-2.62 2.899 0 7.977 2.257 7.977 2.257l2.586-5.98s-4.567-2.68-10.27-2.68c-7.64 0-12.555 4.168-12.555 9.668 0 4.77 3.114 6.918 9.782 8.68 3.75.988 6.035 1.761 6.035 4.21 0 1.805-1.703 3.137-3.895 3.137-4.922 0-10.215-2.992-10.215-2.992l-2.761 5.86s4.57 3.62 11.855 3.62c8.278 0 13.438-4.34 13.438-10.27 0-4.597-3.114-7.39-9.543-9.28M131.586 143.637h-7.52v30.691h7.805l-.039-18.234s6.098 10.539 11.523 18.234c5.266.012 6.504 0 6.504 0v-30.687h-7.656l.008 15.992s-4.281-7.465-10.625-15.996M174.992 174.27v-13.22h-11.586v13.22h-7.804v-30.625h7.804v11.644h11.586v-11.644h7.79v30.625h-7.79M129.348 205.363c-.547-.37-1.27-.707-1.996-.707-1.04 0-1.606.582-1.606 1.309 0 .808.863 1.426 2.317 2.574 1.656 1.32 2.539 2.363 2.539 3.879 0 1.555-1.485 3.352-4.274 3.352-1.289 0-2.719-.387-3.637-1.235l.903-1.41c.652.477 1.41.984 2.523.984 1.024 0 1.926-.543 1.926-1.71 0-1.356-1.66-2.254-2.652-3.032-1.2-.969-2.204-1.726-2.204-3.37 0-1.657 1.676-2.997 3.918-2.997 1.415 0 2.543.512 3.125 1.074l-.882 1.29M141.7 205.453c-.602-.316-1.606-.687-2.56-.687-2.538 0-4.374 1.78-4.374 4.586 0 2.921 2.027 4.652 4.445 4.652.953 0 1.836-.266 2.488-.617l.688 1.535c-.758.441-2.082.848-3.282.848-4.285 0-6.984-2.825-6.984-6.458 0-3.363 2.68-6.312 7.02-6.312 1.289 0 2.488.46 3.336.953l-.778 1.5M149.469 214.004c-2.594 0-3.512-2.434-3.512-4.797 0-2.273 1.04-4.441 3.512-4.441 2.469 0 3.511 2.168 3.511 4.441 0 2.363-.917 4.797-3.511 4.797zm0 1.766c3.793 0 6.156-2.88 6.156-6.563 0-3.453-2.61-6.207-6.156-6.207-3.547 0-6.156 2.754-6.156 6.207 0 3.684 2.363 6.563 6.156 6.563M159.79 215.555v-10.68h-3.81v-1.656h10.11v1.656h-3.809v10.68h-2.492M167.527 203.215h2.489v10.68h4.906v1.656h-7.395v-12.336M179.715 210.676c.582-1.621 1.164-3.121 1.676-5.028h.035c.582 1.907 1.11 3.407 1.64 5.028zm.953-7.461-5.023 12.34h2.152l1.266-3.371h4.375l1.144 3.37h2.785l-4.637-12.34h-2.062M199.563 215.555h-1.797c-2.364-2.84-4.727-5.66-7.051-8.852h-.035v8.852h-1.993v-12.34h1.817c2.363 2.82 4.707 5.625 7.031 8.797h.035v-8.797h1.993v12.34M204.207 204.875h1.797c2.61 0 4.09 1.586 4.09 4.14 0 3.434-1.535 4.88-4.371 4.88h-1.516zm-2.488-1.656v12.332h4.039c4.37 0 6.98-2.45 6.98-6.52 0-2.976-1.726-5.812-6.754-5.812h-4.265" style="fill:#14427d;fill-opacity:1;fill-rule:nonzero;stroke:none" transform="matrix(1.69402 0 0 1.69402 -189.282 -241.956)"/><path d="M167.406 193.02c-2.535-4.551-11.187-12.083-26.554-9.61-5.836.508-8.262.875-11.356.637-12.234-.942-14.367-7.695-14.48-8.063h-3.059s1.684 13.137 15.066 15.356c3.278.543 10.11-.102 14.528-.824 10.844-1.778 19.144-2.059 25.875 7.242 0 0 .086.101.16.101.14 0 .172-.101.172-.101s.875-1.781-.352-4.738M219.586 175.984c-.117.368-2.379 7.09-14.617 8.032-3.094.238-5.516-.13-11.356-.633-15.234-2.453-21.683 5.054-23.55 9.14-1.223 2.739-.555 5.235-.555 5.235s.043.101.156.101c.074 0 .16-.101.16-.101 6.727-9.301 12.246-9.047 23.09-7.274 4.422.723 11.25 1.371 14.531.825 13.383-2.22 15.196-15.325 15.196-15.325h-3.055" style="fill:#0097de;fill-opacity:1;fill-rule:nonzero;stroke:none" transform="matrix(1.69402 0 0 1.69402 -189.282 -241.956)"/></svg>