<?xml version="1.0" encoding="utf-8"?>
<!-- Generator: Adobe Illustrator 23.0.6, SVG Export Plug-In . SVG Version: 6.00 Build 0)  -->
<svg version="1.1" id="Layer_1" xmlns="http://www.w3.org/2000/svg" xmlns:xlink="http://www.w3.org/1999/xlink" x="0px" y="0px"
	 viewBox="0 0 255.12 255.12" style="enable-background:new 0 0 255.12 255.12;" xml:space="preserve">
<style type="text/css">
	.st0{fill:#004380;}
	.st1{fill:#0096DC;}
</style>
<g>
	<path class="st0" d="M201.84,59.36c-8.21-2.42-13.07-2.96-13.07-7.51c0-3.14,2.93-5.46,8-5.46c6.03,0,16.61,4.7,16.61,4.7
		l5.38-12.45c0,0-9.51-5.58-21.38-5.58c-15.91,0-26.15,8.68-26.15,20.13c0,9.94,6.49,14.41,20.37,18.08
		c7.81,2.06,12.57,3.67,12.57,8.77c0,3.76-3.55,6.53-8.11,6.53c-10.25,0-21.27-6.23-21.27-6.23l-5.76,12.2c0,0,9.52,7.54,24.69,7.54
		c17.24,0,27.98-9.03,27.98-21.38C221.71,69.12,215.23,63.3,201.84,59.36"/>
	<path class="st0" d="M53.19,34.27c-7.75,0-15.66,0-15.66,0v63.91h16.25L53.7,60.22c0,0,12.7,21.94,24,37.96
		c10.97,0.03,13.54,0,13.54,0v-63.9H75.3l0.01,33.3C75.31,67.58,66.4,52.04,53.19,34.27"/>
</g>
<polygon class="st0" points="143.58,98.07 143.58,70.54 119.46,70.54 119.46,98.07 103.21,98.07 103.21,34.29 119.46,34.29 
	119.46,58.55 143.58,58.55 143.58,34.29 159.8,34.29 159.8,98.07 "/>
<g>
	<path class="st1" d="M127.79,137.11c-5.29-9.47-23.3-25.16-55.3-20.01c-12.15,1.06-17.2,1.82-23.64,1.32
		c-25.47-1.96-29.92-16.02-30.16-16.79h-6.36c0,0,3.5,27.36,31.37,31.98c6.83,1.13,21.05-0.21,30.25-1.72
		c22.58-3.7,39.87-4.29,53.89,15.08h0.69C128.51,146.98,130.34,143.27,127.79,137.11"/>
	<path class="st1" d="M236.44,101.64c-0.25,0.77-4.96,14.77-30.44,16.73c-6.44,0.49-11.49-0.27-23.65-1.32
		c-31.72-5.11-45.16,10.53-49.05,19.04c-2.55,5.71-1.15,10.9-1.15,10.9h0.65c14.01-19.37,25.51-18.84,48.09-15.14
		c9.2,1.51,23.42,2.85,30.25,1.72c27.87-4.62,31.65-31.92,31.65-31.92H236.44z"/>
	<path class="st0" d="M48.53,162.81c-1.14-0.77-2.65-1.47-4.16-1.47c-2.17,0-3.35,1.21-3.35,2.72c0,1.69,1.81,2.98,4.83,5.36
		c3.45,2.75,5.28,4.92,5.28,8.08c0,3.23-3.08,6.98-8.89,6.98c-2.69,0-5.67-0.81-7.57-2.58l1.87-2.94c1.36,1,2.94,2.06,5.25,2.06
		c2.13,0,4.01-1.14,4.01-3.56c0-2.83-3.46-4.7-5.52-6.32c-2.5-2.02-4.59-3.6-4.59-7.01c0-3.45,3.49-6.25,8.16-6.25
		c2.95,0,5.29,1.07,6.51,2.24L48.53,162.81z"/>
	<path class="st0" d="M74.25,163.01c-1.25-0.66-3.34-1.43-5.33-1.43c-5.29,0-9.11,3.71-9.11,9.54c0,6.09,4.22,9.69,9.26,9.69
		c1.98,0,3.82-0.55,5.18-1.29l1.44,3.2c-1.58,0.92-4.34,1.77-6.84,1.77c-8.93,0-14.55-5.88-14.55-13.45
		c0-7.01,5.58-13.15,14.62-13.15c2.68,0,5.18,0.96,6.95,1.99L74.25,163.01z"/>
	<path class="st0" d="M90.43,184.49c7.9,0,12.82-5.99,12.82-13.67c0-7.19-5.43-12.93-12.82-12.93c-7.39,0-12.82,5.74-12.82,12.93
		C77.61,178.49,82.53,184.49,90.43,184.49 M90.43,180.81c-5.4,0-7.31-5.06-7.31-9.99c0-4.73,2.17-9.25,7.31-9.25
		c5.15,0,7.32,4.51,7.32,9.25C97.74,175.74,95.83,180.81,90.43,180.81"/>
</g>
<polygon class="st0" points="111.92,184.03 111.92,161.8 103.99,161.8 103.99,158.35 125.04,158.35 125.04,161.8 117.11,161.8 
	117.11,184.03 "/>
<polygon class="st0" points="128.04,158.34 133.22,158.34 133.22,180.58 143.43,180.58 143.43,184.03 128.04,184.03 "/>
<g>
	<path class="st0" d="M155.4,158.34l-10.46,25.69h4.48l2.64-7.01h9.11l2.38,7.01h5.8l-9.66-25.69H155.4z M153.41,173.88
		c1.22-3.38,2.43-6.5,3.49-10.46h0.07c1.21,3.97,2.32,7.09,3.42,10.46H153.41z"/>
	<path class="st0" d="M194.75,184.03h-3.74c-4.92-5.91-9.84-11.78-14.68-18.42h-0.08v18.42h-4.14v-25.69h3.78
		c4.92,5.87,9.8,11.7,14.65,18.31h0.07v-18.31h4.15V184.03z"/>
	<path class="st0" d="M199.23,158.35v25.68h8.41c9.11,0,14.54-5.1,14.54-13.57c0-6.2-3.6-12.11-14.06-12.11H199.23z M204.41,161.8
		h3.74c5.43,0,8.52,3.3,8.52,8.62c0,7.15-3.19,10.16-9.11,10.16h-3.15V161.8z"/>
	<path class="st0" d="M221.21,220.65v-9.61h1.33c0.9,0,1.92-0.02,2.81,0.27c1.79,0.54,2.33,1.99,2.5,2.64
		c0.2,0.73,0.2,1.48,0.2,1.74c0,3.21-1.7,4.37-3.08,4.75c-1,0.29-2.28,0.22-2.53,0.22H221.21z M219.53,221.86h2.91
		c1.16-0.02,2.25-0.02,3.37-0.36c1.82-0.56,3.17-1.89,3.74-3.69c0.32-0.97,0.34-1.85,0.34-2.23c0-0.68-0.03-2.36-1.31-3.84
		c-0.1-0.14-0.42-0.48-0.82-0.77c-1.12-0.85-2.26-1.02-3.64-1.09c-0.51-0.03-1.04-0.03-1.56-0.03h-3.03V221.86z M207.46,221.86h1.36
		v-9.36l6.96,9.36h1.16v-12.01h-1.38v9.39l-7.04-9.39h-1.06V221.86z M202.7,217.13h-3.9l2.02-5.17L202.7,217.13z M203.11,218.32
		l1.24,3.54h1.82l-4.54-12.01h-1.11l-4.98,12.01h1.5l1.31-3.54H203.11z M188.67,221.86h6.6v-1.21h-4.92v-10.8h-1.68V221.86z
		 M181.93,221.86h1.72v-10.82h3.88v-1.19H178v1.19h3.93V221.86z M176.08,215.85c0,0.46-0.07,2.3-1.16,3.62
		c-1.06,1.29-2.38,1.38-2.99,1.38c-0.59,0-1.97-0.09-3.01-1.4c-1.06-1.33-1.14-3.18-1.14-3.62c0-1.72,0.7-3.64,2.28-4.53
		c0.32-0.19,0.95-0.48,1.91-0.48c1.17,0,1.92,0.46,2.3,0.73C175.99,212.88,176.08,215.33,176.08,215.85 M171.92,209.64
		c-2.59,0.02-4.05,1.39-4.66,2.16c-1.28,1.57-1.33,3.35-1.33,4.05c0,0.78,0.12,3.2,2.06,4.87c1.48,1.29,3.08,1.34,3.81,1.34
		c2.72,0,4.15-1.39,4.82-2.28c1.17-1.58,1.29-3.4,1.29-4.07c0-1.73-0.66-3.49-1.99-4.66C174.39,209.71,172.62,209.63,171.92,209.64
		 M165.83,210.83c-0.6-0.39-1.89-1.21-3.83-1.21c-0.63,0-2.52,0.14-4.12,1.31c-0.82,0.61-2.45,2.19-2.45,5
		c0,2.5,1.41,4.77,3.78,5.68c0.49,0.19,1.28,0.44,2.54,0.44c1.82,0,3.01-0.56,3.66-0.93c0.1-0.05,0.17-0.1,0.26-0.15l-0.65-0.99
		c-0.21,0.12-0.44,0.27-0.66,0.37c-0.97,0.46-1.91,0.49-2.28,0.49c-2.14,0-3.3-1.17-3.78-1.84c-0.97-1.29-1.02-2.67-1.02-3.23
		c0-2.04,0.97-3.98,2.99-4.68c0.73-0.26,1.36-0.27,1.65-0.27c1.28,0,2.16,0.34,3.2,1.04L165.83,210.83z M154.06,210.72
		c-0.48-0.39-1.43-1.07-3.01-1.07c-1.99,0-3.06,1-3.44,1.75c-0.09,0.17-0.27,0.59-0.27,1.16c0,0.46,0.1,1.17,0.83,1.97
		c0.26,0.27,0.56,0.56,1.19,1.02c0.63,0.46,1.8,1.28,2.36,1.84c0.61,0.63,0.71,1.21,0.71,1.58c0,0.7-0.41,1.91-2.16,1.91
		c-1.07,0-1.87-0.46-2.7-1.04l-0.8,1.09c0.17,0.12,0.34,0.24,0.51,0.34c1.26,0.73,2.42,0.8,2.96,0.8c1.63,0,2.54-0.61,3.05-1.11
		c0.83-0.8,0.92-1.68,0.92-2.14c0-1.22-0.63-2.08-1.53-2.82c-0.27-0.22-0.54-0.43-0.82-0.63c-1.24-0.92-2.11-1.51-2.49-2.06
		c-0.08-0.14-0.27-0.43-0.27-0.87c0-0.36,0.14-0.73,0.37-1c0.49-0.58,1.29-0.6,1.51-0.6c0.58,0,1.17,0.12,2.16,0.85L154.06,210.72z
		 M132.01,221.86h1.69v-5.97h5.75v5.97h1.68v-12.01h-1.68v4.83h-5.75v-4.83h-1.69V221.86z M130.5,210.83
		c-0.6-0.39-1.89-1.21-3.83-1.21c-0.63,0-2.52,0.14-4.12,1.31c-0.82,0.61-2.45,2.19-2.45,5c0,2.5,1.41,4.77,3.78,5.68
		c0.49,0.19,1.28,0.44,2.53,0.44c1.82,0,3.01-0.56,3.66-0.93c0.1-0.05,0.17-0.1,0.26-0.15l-0.65-0.99c-0.2,0.12-0.44,0.27-0.66,0.37
		c-0.97,0.46-1.91,0.49-2.28,0.49c-2.14,0-3.3-1.17-3.78-1.84c-0.97-1.29-1.02-2.67-1.02-3.23c0-2.04,0.97-3.98,2.99-4.68
		c0.73-0.26,1.36-0.27,1.65-0.27c1.28,0,2.16,0.34,3.2,1.04L130.5,210.83z M112.92,215.68v-4.65h1.07c0.59,0,1.24,0,1.72,0.43
		c0.61,0.53,0.63,1.46,0.63,1.63c0,0.39-0.07,1.97-1.55,2.45c-0.27,0.08-0.55,0.12-1.12,0.14H112.92z M111.24,221.86h1.68v-4.98
		h1.72l2.72,5.19l1.67-0.51l-2.94-5.12c0.19-0.1,0.43-0.25,0.77-0.58c0.8-0.77,1.21-1.77,1.21-2.89c0-0.95-0.29-1.51-0.51-1.85
		c-0.83-1.19-2.16-1.22-2.62-1.24c-0.29-0.02-0.58-0.02-0.88-0.02h-2.81V221.86z M106.81,217.13h-3.9l2.02-5.17L106.81,217.13z
		 M107.22,218.32l1.24,3.54h1.82l-4.54-12.01h-1.11l-4.98,12.01h1.5l1.31-3.54H107.22z M91.42,221.86h6.87v-1.21H93.1v-4.51h4.34
		v-1.21H93.1v-3.9h4.42v-1.19h-6.11V221.86z M88.96,210.72c-0.48-0.39-1.43-1.07-3.01-1.07c-1.99,0-3.06,1-3.44,1.75
		c-0.09,0.17-0.27,0.59-0.27,1.16c0,0.46,0.1,1.17,0.83,1.97c0.26,0.27,0.56,0.56,1.19,1.02c0.63,0.46,1.8,1.28,2.36,1.84
		c0.61,0.63,0.71,1.21,0.71,1.58c0,0.7-0.41,1.91-2.16,1.91c-1.07,0-1.87-0.46-2.7-1.04l-0.8,1.09c0.17,0.12,0.34,0.24,0.51,0.34
		c1.26,0.73,2.42,0.8,2.96,0.8c1.63,0,2.54-0.61,3.05-1.11c0.83-0.8,0.92-1.68,0.92-2.14c0-1.22-0.63-2.08-1.53-2.82
		c-0.27-0.22-0.54-0.43-0.82-0.63c-1.24-0.92-2.11-1.51-2.48-2.06c-0.08-0.14-0.27-0.43-0.27-0.87c0-0.36,0.14-0.73,0.37-1
		c0.49-0.58,1.29-0.6,1.51-0.6c0.58,0,1.17,0.12,2.16,0.85L88.96,210.72z M74.03,221.86h6.87v-1.21h-5.19v-4.51h4.34v-1.21h-4.34
		v-3.9h4.42v-1.19h-6.11V221.86z M66.49,215.68v-4.65h1.07c0.6,0,1.24,0,1.72,0.43c0.61,0.53,0.63,1.46,0.63,1.63
		c0,0.39-0.07,1.97-1.55,2.45c-0.27,0.08-0.54,0.12-1.12,0.14H66.49z M64.81,221.86h1.68v-4.98h1.72l2.72,5.19l1.67-0.51l-2.94-5.12
		c0.19-0.1,0.43-0.25,0.77-0.58c0.8-0.77,1.21-1.77,1.21-2.89c0-0.95-0.29-1.51-0.51-1.85c-0.83-1.19-2.16-1.22-2.62-1.24
		c-0.29-0.02-0.58-0.02-0.89-0.02h-2.81V221.86z M58.78,210.72c-0.48-0.39-1.43-1.07-3.01-1.07c-1.99,0-3.06,1-3.44,1.75
		c-0.09,0.17-0.27,0.59-0.27,1.16c0,0.46,0.1,1.17,0.83,1.97c0.26,0.27,0.56,0.56,1.19,1.02c0.63,0.46,1.8,1.28,2.36,1.84
		c0.61,0.63,0.71,1.21,0.71,1.58c0,0.7-0.41,1.91-2.16,1.91c-1.07,0-1.87-0.46-2.7-1.04l-0.8,1.09c0.17,0.12,0.34,0.24,0.51,0.34
		c1.26,0.73,2.42,0.8,2.96,0.8c1.63,0,2.54-0.61,3.05-1.11c0.83-0.8,0.92-1.68,0.92-2.14c0-1.22-0.63-2.08-1.53-2.82
		c-0.27-0.22-0.54-0.43-0.82-0.63c-1.24-0.92-2.11-1.51-2.48-2.06c-0.08-0.14-0.27-0.43-0.27-0.87c0-0.36,0.14-0.73,0.37-1
		c0.49-0.58,1.29-0.6,1.51-0.6c0.58,0,1.17,0.12,2.16,0.85L58.78,210.72z M40.65,221.86h1.69v-5.97h5.75v5.97h1.68v-12.01h-1.68
		v4.83h-5.75v-4.83h-1.69V221.86z M28.58,221.86h1.36v-9.36l6.96,9.36h1.16v-12.01h-1.38v9.39l-7.04-9.39h-1.06V221.86z"/>
</g>
</svg>
