<svg xmlns="http://www.w3.org/2000/svg" width="358" height="94" fill="none"><path fill="#193E72" d="M63.874 0v57.797L19.31 0H0v93.789h20.585V34.086L66.631 93.79H84.46V0H63.874Zm58.359 0h-21.009v93.789h21.009V0Zm76.18 0v37.683h-38.621V0h-21.009v93.789h21.009V57.797h38.621v35.992h20.797V0h-20.797Zm85.1 37.683h-26.526V18.628h26.529c4.453.215 10.821 1.906 10.821 9.528 0 7.621-6.368 9.527-10.824 9.527Zm10.612 16.726c11.883-2.54 20.797-11.641 20.797-26.884 0-16.941-11.886-27.102-26.53-27.525h-52.411v93.789h21.009V57.797h15.491l22.283 35.992h23.981l-24.62-39.38Z"/><path fill="#EA5D4E" d="M358.001 0h-8.278v94h8.278V0Z"/></svg>