<svg xmlns="http://www.w3.org/2000/svg" width="711" height="223" fill="none"><path fill="#FFF6E6" d="M461.002 0h137v82h-137z"/><path fill="#FED47A" d="M382.332 0h78.936v81.756h-78.936z"/><path fill="#193E72" d="M479.172 34.216v5.136h6.504v2.58h-6.504V49h-3.24V31.648h10.944v2.568h-7.704Zm12.934 2.472V49h-2.976V36.688h2.976Zm.408-3.588c0 .256-.052.496-.156.72-.104.224-.244.42-.42.588a1.99 1.99 0 0 1-.6.408c-.232.096-.48.144-.744.144-.256 0-.5-.048-.732-.144a2.036 2.036 0 0 1-.588-.408 2.036 2.036 0 0 1-.408-.588 1.808 1.808 0 0 1-.144-.72c0-.264.048-.512.144-.744a1.99 1.99 0 0 1 .408-.6c.168-.168.364-.3.588-.396a1.77 1.77 0 0 1 .732-.156c.264 0 .512.052.744.156.232.096.432.228.6.396.176.168.316.368.42.6.104.232.156.48.156.744Zm5.386 5.1c.248-.248.508-.476.78-.684a4.79 4.79 0 0 1 1.872-.888 4.744 4.744 0 0 1 1.152-.132c.672 0 1.268.116 1.788.348.52.224.952.544 1.296.96.352.408.616.9.792 1.476.184.568.276 1.196.276 1.884V49h-2.964v-7.836c0-.752-.172-1.332-.516-1.74-.344-.416-.868-.624-1.572-.624-.512 0-.992.116-1.44.348a5.16 5.16 0 0 0-1.272.948V49h-2.964V36.688h1.812c.384 0 .636.18.756.54l.204.972Zm18.503 1.632c-.336-.408-.704-.696-1.104-.864a3.195 3.195 0 0 0-1.272-.252c-.448 0-.852.084-1.212.252-.36.168-.668.424-.924.768-.256.336-.452.768-.588 1.296-.136.52-.204 1.136-.204 1.848 0 .72.056 1.332.168 1.836.12.496.288.904.504 1.224.216.312.48.54.792.684.312.136.66.204 1.044.204.616 0 1.14-.128 1.572-.384.432-.256.84-.62 1.224-1.092v-5.52Zm2.964-8.664V49h-1.812c-.392 0-.64-.18-.744-.54l-.252-1.188a6.182 6.182 0 0 1-1.716 1.38c-.64.352-1.388.528-2.244.528-.672 0-1.288-.14-1.848-.42a4.196 4.196 0 0 1-1.452-1.212c-.4-.536-.712-1.196-.936-1.98-.216-.784-.324-1.68-.324-2.688 0-.912.124-1.76.372-2.544a6.19 6.19 0 0 1 1.068-2.04 4.918 4.918 0 0 1 1.668-1.344c.648-.328 1.376-.492 2.184-.492.688 0 1.276.108 1.764.324a4.52 4.52 0 0 1 1.308.876v-6.492h2.964Z"/><path fill="#fff" fill-rule="evenodd" d="M419.3 23.28c-7.726 0-13.989 6.486-13.989 14.488 0 8.001 6.263 14.488 13.989 14.488 7.726 0 13.989-6.487 13.989-14.488 0-8.002-6.263-14.489-13.989-14.489Zm-17.986 14.488c0-10.288 8.053-18.628 17.986-18.628s17.986 8.34 17.986 18.628-8.053 18.627-17.986 18.627-17.986-8.34-17.986-18.627Z" clip-rule="evenodd"/><path fill="#fff" fill-rule="evenodd" d="M429.179 47.998a1.95 1.95 0 0 1 2.826 0l8.693 9.004a2.121 2.121 0 0 1 0 2.927 1.95 1.95 0 0 1-2.826 0l-8.693-9.004a2.123 2.123 0 0 1 0-2.927Z" clip-rule="evenodd"/><path fill="#E1EEF0" d="M461 81h137v79H461z"/><path fill="#2EA9B0" d="M382 82h79v74h-79z"/><path fill="#193E72" d="M481.176 118.904c.608 0 1.136-.076 1.584-.228.456-.152.828-.36 1.116-.624.296-.272.516-.592.66-.96.144-.368.216-.772.216-1.212 0-.88-.292-1.556-.876-2.028-.576-.472-1.46-.708-2.652-.708h-2.064v5.76h2.016ZM489.48 128h-2.916c-.552 0-.952-.216-1.2-.648l-3.648-5.556a1.26 1.26 0 0 0-.456-.444c-.16-.088-.4-.132-.72-.132h-1.38V128h-3.228v-17.352h5.292c1.176 0 2.184.124 3.024.372.848.24 1.54.58 2.076 1.02.544.44.944.968 1.2 1.584.256.608.384 1.28.384 2.016a5.13 5.13 0 0 1-.264 1.656c-.168.52-.416.992-.744 1.416-.32.424-.72.796-1.2 1.116a5.923 5.923 0 0 1-1.62.756c.208.12.4.264.576.432.176.16.336.352.48.576L489.48 128Zm8.541-7.572c0-.384-.056-.744-.168-1.08a2.498 2.498 0 0 0-.48-.9 2.192 2.192 0 0 0-.828-.6c-.328-.152-.712-.228-1.152-.228-.856 0-1.532.244-2.028.732-.488.488-.8 1.18-.936 2.076h5.592Zm-5.652 1.788c.048.632.16 1.18.336 1.644.176.456.408.836.696 1.14.288.296.628.52 1.02.672.4.144.84.216 1.32.216.48 0 .892-.056 1.236-.168a5.52 5.52 0 0 0 .912-.372 15.1 15.1 0 0 0 .684-.372c.2-.112.392-.168.576-.168.248 0 .432.092.552.276l.852 1.08a5.072 5.072 0 0 1-1.104.972 6.562 6.562 0 0 1-1.284.624c-.44.152-.892.26-1.356.324a9.58 9.58 0 0 1-1.332.096 6.66 6.66 0 0 1-2.388-.42 5.453 5.453 0 0 1-1.92-1.26c-.544-.56-.972-1.248-1.284-2.064-.312-.824-.468-1.776-.468-2.856 0-.84.136-1.628.408-2.364a5.672 5.672 0 0 1 1.164-1.932 5.546 5.546 0 0 1 1.86-1.308c.736-.32 1.564-.48 2.484-.48.776 0 1.492.124 2.148.372.656.248 1.22.612 1.692 1.092.472.472.84 1.056 1.104 1.752.272.688.408 1.476.408 2.364 0 .448-.048.752-.144.912-.096.152-.28.228-.552.228h-7.62Zm19.36-3.924c-.088.112-.176.2-.264.264-.08.064-.2.096-.36.096a.841.841 0 0 1-.444-.132 7.894 7.894 0 0 0-.516-.312c-.2-.12-.44-.224-.72-.312-.272-.096-.612-.144-1.02-.144-.52 0-.976.096-1.368.288a2.59 2.59 0 0 0-.984.804c-.256.352-.448.78-.576 1.284a6.79 6.79 0 0 0-.192 1.692c0 .656.068 1.24.204 1.752.144.512.348.944.612 1.296.264.344.584.608.96.792.376.176.8.264 1.272.264s.852-.056 1.14-.168c.296-.12.544-.248.744-.384.2-.144.372-.272.516-.384.152-.12.32-.18.504-.18.24 0 .42.092.54.276l.852 1.08a5.52 5.52 0 0 1-1.068.972 6.12 6.12 0 0 1-1.2.624c-.408.152-.832.26-1.272.324a8.832 8.832 0 0 1-1.296.096c-.76 0-1.476-.14-2.148-.42a5.143 5.143 0 0 1-1.764-1.248c-.504-.544-.904-1.208-1.2-1.992-.288-.792-.432-1.692-.432-2.7 0-.904.128-1.74.384-2.508a5.698 5.698 0 0 1 1.152-2.004 5.22 5.22 0 0 1 1.872-1.332c.744-.32 1.6-.48 2.568-.48.92 0 1.724.148 2.412.444.696.296 1.32.72 1.872 1.272l-.78 1.08Zm5.554-.468c.384-.736.84-1.312 1.368-1.728.528-.424 1.152-.636 1.872-.636.568 0 1.024.124 1.368.372l-.192 2.22a.588.588 0 0 1-.18.312.478.478 0 0 1-.3.084c-.12 0-.3-.02-.54-.06-.232-.04-.46-.06-.684-.06-.328 0-.62.048-.876.144a2.218 2.218 0 0 0-.696.42c-.2.176-.38.392-.54.648a6.88 6.88 0 0 0-.432.876V128h-2.964v-12.312h1.74c.304 0 .516.056.636.168.12.104.2.296.24.576l.18 1.392Zm16.766-2.136V128h-1.812c-.392 0-.64-.18-.744-.54l-.204-.984a6.736 6.736 0 0 1-1.668 1.248c-.608.312-1.324.468-2.148.468-.672 0-1.268-.112-1.788-.336a3.642 3.642 0 0 1-1.296-.972 4.315 4.315 0 0 1-.804-1.476 6.465 6.465 0 0 1-.264-1.896v-7.824h2.964v7.824c0 .752.172 1.336.516 1.752.352.408.876.612 1.572.612.512 0 .992-.112 1.44-.336a5.16 5.16 0 0 0 1.272-.948v-8.904h2.964Zm6.01 0V128h-2.976v-12.312h2.976Zm.408-3.588c0 .256-.052.496-.156.72-.104.224-.244.42-.42.588a1.99 1.99 0 0 1-.6.408c-.232.096-.48.144-.744.144-.256 0-.5-.048-.732-.144a2.036 2.036 0 0 1-.588-.408 2.036 2.036 0 0 1-.408-.588 1.808 1.808 0 0 1-.144-.72c0-.264.048-.512.144-.744a1.99 1.99 0 0 1 .408-.6c.168-.168.364-.3.588-.396a1.77 1.77 0 0 1 .732-.156c.264 0 .512.052.744.156.232.096.432.228.6.396.176.168.316.368.42.6.104.232.156.48.156.744Zm6.718 16.092c-1.072 0-1.896-.3-2.472-.9-.568-.608-.852-1.444-.852-2.508v-6.876h-1.26a.578.578 0 0 1-.408-.156c-.112-.104-.168-.26-.168-.468v-1.176l1.98-.324.624-3.36a.658.658 0 0 1 .228-.372.678.678 0 0 1 .432-.132h1.536v3.876h3.288v2.112h-3.288v6.672c0 .384.092.684.276.9.192.216.452.324.78.324.184 0 .336-.02.456-.06.128-.048.236-.096.324-.144.096-.048.18-.092.252-.132a.387.387 0 0 1 .216-.072.32.32 0 0 1 .216.072.85.85 0 0 1 .18.192l.888 1.44c-.432.36-.928.632-1.488.816-.56.184-1.14.276-1.74.276Zm14.934-8.304c-.64.416-1.108.888-1.404 1.416a3.412 3.412 0 0 0-.432 1.68c0 .44.076.836.228 1.188.152.352.356.652.612.9.264.24.568.428.912.564a3.24 3.24 0 0 0 1.116.192c.704 0 1.348-.108 1.932-.324a5.6 5.6 0 0 0 1.584-.924l-4.548-4.692ZM573.675 128h-2.904c-.304 0-.552-.036-.744-.108-.184-.072-.38-.224-.588-.456l-1.2-1.236a8.69 8.69 0 0 1-5.616 1.992c-.664 0-1.32-.112-1.968-.336a5.484 5.484 0 0 1-1.716-.996 5.095 5.095 0 0 1-1.224-1.56c-.304-.616-.456-1.308-.456-2.076 0-.544.088-1.056.264-1.536.176-.488.42-.94.732-1.356a5.672 5.672 0 0 1 1.116-1.116 7.442 7.442 0 0 1 1.416-.864c-.432-.6-.744-1.184-.936-1.752a5.401 5.401 0 0 1-.288-1.716c0-.6.108-1.168.324-1.704a4.114 4.114 0 0 1 .96-1.416c.416-.4.928-.716 1.536-.948.608-.24 1.296-.36 2.064-.36.704 0 1.332.108 1.884.324.56.216 1.036.504 1.428.864.4.36.712.772.936 1.236.232.464.368.944.408 1.44l-1.884.396c-.352.072-.608-.08-.768-.456a2.673 2.673 0 0 0-.288-.588 1.886 1.886 0 0 0-.408-.492 1.733 1.733 0 0 0-.564-.336 1.96 1.96 0 0 0-.744-.132c-.336 0-.636.06-.9.18a1.917 1.917 0 0 0-1.08 1.152 2.305 2.305 0 0 0-.144.816c0 .24.024.472.072.696.048.224.128.448.24.672.112.224.256.456.432.696.184.232.408.484.672.756l4.608 4.788a8.407 8.407 0 0 0 .636-1.596 8.87 8.87 0 0 0 .312-1.704.782.782 0 0 1 .192-.444.56.56 0 0 1 .432-.168h1.848a10.478 10.478 0 0 1-.456 3.024 9.78 9.78 0 0 1-1.272 2.652l3.636 3.768Z"/><path fill="#fff" fill-rule="evenodd" d="M406.929 125.929A10.001 10.001 0 0 1 414 123h14a10.001 10.001 0 0 1 10 10v4a2 2 0 1 1-4 0v-4a6.003 6.003 0 0 0-1.757-4.243A6.003 6.003 0 0 0 428 127h-14a6.003 6.003 0 0 0-4.243 1.757A6.003 6.003 0 0 0 408 133v4a2 2 0 1 1-4 0v-4c0-2.652 1.054-5.196 2.929-7.071ZM421 103a6 6 0 1 0 0 12 6 6 0 0 0 0-12Zm-10 6c0-5.523 4.477-10 10-10s10 4.477 10 10-4.477 10-10 10-10-4.477-10-10Z" clip-rule="evenodd"/><path fill="#E0DFF1" d="M461 156h137v67H461z"/><path fill="#6667AD" d="M382 156h79v67h-79z"/><path fill="#fff" fill-rule="evenodd" d="M412.5 177.501c-.42 0-.823.18-1.12.502a1.786 1.786 0 0 0-.463 1.212v23.998c0 .455.166.891.463 1.212.297.322.7.503 1.12.503h19c.42 0 .823-.181 1.12-.503.297-.321.463-.757.463-1.212v-23.998c0-.455-.166-.891-.463-1.212a1.523 1.523 0 0 0-1.12-.502h-3.167c-.874 0-1.583-.768-1.583-1.715 0-.946.709-1.714 1.583-1.714h3.167c1.26 0 2.468.542 3.359 1.506.891.965 1.391 2.273 1.391 3.637v23.998c0 1.364-.5 2.672-1.391 3.637-.891.964-2.099 1.506-3.359 1.506h-19c-1.26 0-2.468-.542-3.359-1.506-.891-.965-1.391-2.273-1.391-3.637v-23.998c0-1.364.5-2.672 1.391-3.637.891-.964 2.099-1.506 3.359-1.506h3.167c.874 0 1.583.768 1.583 1.714 0 .947-.709 1.715-1.583 1.715H412.5Z" clip-rule="evenodd"/><path fill="#fff" fill-rule="evenodd" d="M414.084 174.072c0-1.893 1.418-3.428 3.167-3.428h9.5c1.749 0 3.166 1.535 3.166 3.428v3.429c0 1.893-1.417 3.428-3.166 3.428h-9.5c-1.749 0-3.167-1.535-3.167-3.428v-3.429Zm12.667 0h-9.5v3.429h9.5v-3.429Z" clip-rule="evenodd"/><path fill="#193E72" d="M479.172 185.216v5.136h6.504v2.58h-6.504V200h-3.24v-17.352h10.944v2.568h-7.704Zm14.256 2.28c.912 0 1.74.148 2.484.444a5.384 5.384 0 0 1 1.92 1.26 5.492 5.492 0 0 1 1.236 1.992c.288.784.432 1.66.432 2.628 0 .976-.144 1.856-.432 2.64a5.611 5.611 0 0 1-1.236 2.004 5.307 5.307 0 0 1-1.92 1.272c-.744.296-1.572.444-2.484.444-.92 0-1.756-.148-2.508-.444a5.424 5.424 0 0 1-1.932-1.272 5.845 5.845 0 0 1-1.236-2.004c-.288-.784-.432-1.664-.432-2.64 0-.968.144-1.844.432-2.628.296-.784.708-1.448 1.236-1.992a5.504 5.504 0 0 1 1.932-1.26c.752-.296 1.588-.444 2.508-.444Zm0 10.404c1.024 0 1.78-.344 2.268-1.032.496-.688.744-1.696.744-3.024s-.248-2.34-.744-3.036c-.488-.696-1.244-1.044-2.268-1.044-1.04 0-1.812.352-2.316 1.056-.496.696-.744 1.704-.744 3.024s.248 2.328.744 3.024c.504.688 1.276 1.032 2.316 1.032Zm11.333-15.732V200h-2.964v-17.832h2.964Zm5.953 0V200h-2.964v-17.832h2.964Zm8.401 5.328c.912 0 1.74.148 2.484.444a5.384 5.384 0 0 1 1.92 1.26 5.492 5.492 0 0 1 1.236 1.992c.288.784.432 1.66.432 2.628 0 .976-.144 1.856-.432 2.64a5.611 5.611 0 0 1-1.236 2.004 5.307 5.307 0 0 1-1.92 1.272c-.744.296-1.572.444-2.484.444-.92 0-1.756-.148-2.508-.444a5.424 5.424 0 0 1-1.932-1.272 5.845 5.845 0 0 1-1.236-2.004c-.288-.784-.432-1.664-.432-2.64 0-.968.144-1.844.432-2.628.296-.784.708-1.448 1.236-1.992a5.504 5.504 0 0 1 1.932-1.26c.752-.296 1.588-.444 2.508-.444Zm0 10.404c1.024 0 1.78-.344 2.268-1.032.496-.688.744-1.696.744-3.024s-.248-2.34-.744-3.036c-.488-.696-1.244-1.044-2.268-1.044-1.04 0-1.812.352-2.316 1.056-.496.696-.744 1.704-.744 3.024s.248 2.328.744 3.024c.504.688 1.276 1.032 2.316 1.032Zm25.702-10.212L540.905 200h-2.376c-.272 0-.46-.176-.564-.528l-2.208-7.116c-.072-.24-.14-.476-.204-.708-.056-.24-.104-.48-.144-.72-.048.24-.104.484-.168.732-.056.24-.12.48-.192.72l-2.244 7.092c-.096.352-.308.528-.636.528h-2.28l-3.9-12.312h2.364c.216 0 .4.052.552.156a.726.726 0 0 1 .3.396l1.764 6.576c.088.36.164.712.228 1.056.072.344.132.688.18 1.032.088-.344.18-.688.276-1.032.104-.344.212-.696.324-1.056l2.04-6.6a.765.765 0 0 1 .276-.396.858.858 0 0 1 .516-.156h1.308c.208 0 .384.052.528.156a.726.726 0 0 1 .3.396l1.98 6.6c.104.36.2.716.288 1.068.096.344.188.688.276 1.032.104-.68.252-1.38.444-2.1l1.812-6.576a.81.81 0 0 1 .3-.396.858.858 0 0 1 .516-.156h2.256Zm1.59 3.828h6.216v2.472h-6.216v-2.472Zm19.657-3.828V200h-1.812c-.392 0-.64-.18-.744-.54l-.204-.984a6.736 6.736 0 0 1-1.668 1.248c-.608.312-1.324.468-2.148.468-.672 0-1.268-.112-1.788-.336a3.642 3.642 0 0 1-1.296-.972 4.315 4.315 0 0 1-.804-1.476 6.465 6.465 0 0 1-.264-1.896v-7.824h2.964v7.824c0 .752.172 1.336.516 1.752.352.408.876.612 1.572.612.512 0 .992-.112 1.44-.336a5.16 5.16 0 0 0 1.272-.948v-8.904h2.964Zm5.903 9.12c.336.408.7.696 1.092.864.4.168.832.252 1.296.252.448 0 .852-.084 1.212-.252a2.33 2.33 0 0 0 .912-.768c.256-.344.452-.776.588-1.296.136-.528.204-1.148.204-1.86 0-.72-.06-1.328-.18-1.824-.112-.504-.276-.912-.492-1.224a1.957 1.957 0 0 0-.792-.684 2.411 2.411 0 0 0-1.044-.216c-.616 0-1.14.132-1.572.396-.432.256-.84.62-1.224 1.092v5.52Zm-.156-7.44a6.422 6.422 0 0 1 1.716-1.38c.64-.352 1.392-.528 2.256-.528a4 4 0 0 1 1.836.42c.56.28 1.04.688 1.44 1.224.408.528.72 1.184.936 1.968.224.776.336 1.668.336 2.676 0 .92-.124 1.772-.372 2.556a6.19 6.19 0 0 1-1.068 2.04 4.894 4.894 0 0 1-1.668 1.356c-.648.32-1.376.48-2.184.48-.688 0-1.276-.104-1.764-.312a4.402 4.402 0 0 1-1.308-.888v5.04h-2.964v-16.332h1.812c.384 0 .636.18.756.54l.24 1.14ZM63.874 64v57.797L19.31 64H0v93.789h20.585V98.086l46.046 59.703H84.46V64H63.874Zm58.359 0h-21.009v93.789h21.009V64Zm76.18 0v37.683h-38.621V64h-21.009v93.789h21.009v-35.992h38.621v35.992h20.797V64h-20.797Zm85.1 37.683h-26.526V82.628h26.529c4.453.215 10.821 1.906 10.821 9.528 0 7.621-6.368 9.527-10.824 9.527Zm10.612 16.726c11.883-2.54 20.797-11.641 20.797-26.885 0-16.94-11.886-27.101-26.53-27.524h-52.411v93.789h21.009v-35.992h15.491l22.283 35.992h23.981l-24.62-39.38Z"/><path fill="#EA5D4E" d="M358.001 64h-8.278v94h8.278V64Z"/></svg>