<svg width="359" height="30" viewBox="0 0 359 30" fill="none" xmlns="http://www.w3.org/2000/svg">
<path d="M4.67725 4.288V11.136H13.3493V14.576H4.67725V24H0.35725V0.863998H14.9493V4.288H4.67725ZM21.923 7.584V24H17.955V7.584H21.923ZM22.467 2.8C22.467 3.14133 22.3977 3.46133 22.259 3.76C22.1203 4.05866 21.9337 4.32 21.699 4.544C21.475 4.768 21.2083 4.94933 20.899 5.088C20.5897 5.216 20.259 5.28 19.907 5.28C19.5657 5.28 19.2403 5.216 18.931 5.088C18.6323 4.94933 18.371 4.768 18.147 4.544C17.923 4.32 17.7417 4.05866 17.603 3.76C17.475 3.46133 17.411 3.14133 17.411 2.8C17.411 2.448 17.475 2.11733 17.603 1.808C17.7417 1.49867 17.923 1.232 18.147 1.008C18.371 0.783999 18.6323 0.607999 18.931 0.48C19.2403 0.341333 19.5657 0.271999 19.907 0.271999C20.259 0.271999 20.5897 0.341333 20.899 0.48C21.2083 0.607999 21.475 0.783999 21.699 1.008C21.9337 1.232 22.1203 1.49867 22.259 1.808C22.3977 2.11733 22.467 2.448 22.467 2.8ZM29.648 9.6C29.9787 9.26933 30.3253 8.96533 30.688 8.688C31.0613 8.4 31.4507 8.16 31.856 7.968C32.272 7.76533 32.7147 7.61067 33.184 7.504C33.6533 7.38667 34.1653 7.328 34.72 7.328C35.616 7.328 36.4107 7.48267 37.104 7.792C37.7973 8.09067 38.3733 8.51733 38.832 9.072C39.3013 9.616 39.6533 10.272 39.888 11.04C40.1333 11.7973 40.256 12.6347 40.256 13.552V24H36.304V13.552C36.304 12.5493 36.0747 11.776 35.616 11.232C35.1573 10.6773 34.4587 10.4 33.52 10.4C32.8373 10.4 32.1973 10.5547 31.6 10.864C31.0027 11.1733 30.4373 11.5947 29.904 12.128V24H25.952V7.584H28.368C28.88 7.584 29.216 7.824 29.376 8.304L29.648 9.6ZM54.3185 11.776C53.8705 11.232 53.3798 10.848 52.8465 10.624C52.3238 10.4 51.7585 10.288 51.1505 10.288C50.5532 10.288 50.0145 10.4 49.5345 10.624C49.0545 10.848 48.6438 11.1893 48.3025 11.648C47.9612 12.096 47.6998 12.672 47.5185 13.376C47.3372 14.0693 47.2465 14.8907 47.2465 15.84C47.2465 16.8 47.3212 17.616 47.4705 18.288C47.6305 18.9493 47.8545 19.4933 48.1425 19.92C48.4305 20.336 48.7825 20.64 49.1985 20.832C49.6145 21.0133 50.0785 21.104 50.5905 21.104C51.4118 21.104 52.1105 20.9333 52.6865 20.592C53.2625 20.2507 53.8065 19.7653 54.3185 19.136V11.776ZM58.2705 0.223999V24H55.8545C55.3318 24 55.0012 23.76 54.8625 23.28L54.5265 21.696C53.8652 22.4533 53.1025 23.0667 52.2385 23.536C51.3852 24.0053 50.3878 24.24 49.2465 24.24C48.3505 24.24 47.5292 24.0533 46.7825 23.68C46.0358 23.3067 45.3905 22.768 44.8465 22.064C44.3132 21.3493 43.8972 20.4693 43.5985 19.424C43.3105 18.3787 43.1665 17.184 43.1665 15.84C43.1665 14.624 43.3318 13.4933 43.6625 12.448C43.9932 11.4027 44.4678 10.496 45.0865 9.728C45.7052 8.96 46.4465 8.36267 47.3105 7.936C48.1745 7.49867 49.1452 7.28 50.2225 7.28C51.1398 7.28 51.9238 7.424 52.5745 7.712C53.2252 8 53.8065 8.38933 54.3185 8.88V0.223999H58.2705ZM62.1068 27.92C61.9148 27.76 61.8188 27.5627 61.8188 27.328C61.8188 27.2427 61.8454 27.1467 61.8988 27.04C61.9628 26.9333 62.0374 26.8373 62.1228 26.752C62.2401 26.624 62.3841 26.464 62.5548 26.272C62.7254 26.0907 62.8961 25.8773 63.0668 25.632C63.2374 25.3973 63.3921 25.136 63.5308 24.848C63.6801 24.5707 63.7921 24.272 63.8668 23.952C63.5254 23.952 63.2161 23.8933 62.9388 23.776C62.6614 23.648 62.4214 23.4773 62.2188 23.264C62.0268 23.0507 61.8721 22.8 61.7548 22.512C61.6481 22.224 61.5948 21.9093 61.5948 21.568C61.5948 21.2693 61.6481 20.992 61.7548 20.736C61.8721 20.4693 62.0321 20.24 62.2348 20.048C62.4374 19.8453 62.6828 19.6907 62.9708 19.584C63.2588 19.4667 63.5734 19.408 63.9148 19.408C64.3201 19.408 64.6721 19.4827 64.9708 19.632C65.2801 19.7707 65.5308 19.968 65.7228 20.224C65.9254 20.4693 66.0748 20.7573 66.1708 21.088C66.2774 21.408 66.3308 21.7493 66.3308 22.112C66.3308 22.624 66.2508 23.1627 66.0908 23.728C65.9414 24.2933 65.7174 24.8587 65.4188 25.424C65.1201 25.9893 64.7468 26.5387 64.2988 27.072C63.8614 27.6053 63.3601 28.096 62.7948 28.544L62.1068 27.92ZM85.068 11.872C85.8787 11.872 86.5827 11.7707 87.18 11.568C87.788 11.3653 88.284 11.088 88.668 10.736C89.0627 10.3733 89.356 9.94667 89.548 9.456C89.74 8.96533 89.836 8.42667 89.836 7.84C89.836 6.66667 89.4467 5.76533 88.668 5.136C87.9 4.50667 86.7213 4.192 85.132 4.192H82.38V11.872H85.068ZM96.14 24H92.252C91.516 24 90.9827 23.712 90.652 23.136L85.788 15.728C85.6067 15.4507 85.404 15.2533 85.18 15.136C84.9667 15.0187 84.6467 14.96 84.22 14.96H82.38V24H78.076V0.863998H85.132C86.7 0.863998 88.044 1.02933 89.164 1.36C90.2947 1.68 91.2173 2.13333 91.932 2.72C92.6573 3.30667 93.1907 4.01067 93.532 4.832C93.8733 5.64267 94.044 6.53867 94.044 7.52C94.044 8.29867 93.9267 9.03467 93.692 9.728C93.468 10.4213 93.1373 11.0507 92.7 11.616C92.2733 12.1813 91.74 12.6773 91.1 13.104C90.4707 13.5307 89.7507 13.8667 88.94 14.112C89.2173 14.272 89.4733 14.464 89.708 14.688C89.9427 14.9013 90.156 15.1573 90.348 15.456L96.14 24ZM107.528 13.904C107.528 13.392 107.453 12.912 107.304 12.464C107.165 12.0053 106.952 11.6053 106.664 11.264C106.376 10.9227 106.008 10.656 105.56 10.464C105.123 10.2613 104.611 10.16 104.024 10.16C102.883 10.16 101.981 10.4853 101.32 11.136C100.669 11.7867 100.253 12.7093 100.072 13.904H107.528ZM99.992 16.288C100.056 17.1307 100.205 17.8613 100.44 18.48C100.675 19.088 100.984 19.5947 101.368 20C101.752 20.3947 102.205 20.6933 102.728 20.896C103.261 21.088 103.848 21.184 104.488 21.184C105.128 21.184 105.677 21.1093 106.136 20.96C106.605 20.8107 107.011 20.6453 107.352 20.464C107.704 20.2827 108.008 20.1173 108.264 19.968C108.531 19.8187 108.787 19.744 109.032 19.744C109.363 19.744 109.608 19.8667 109.768 20.112L110.904 21.552C110.467 22.064 109.976 22.496 109.432 22.848C108.888 23.1893 108.317 23.4667 107.72 23.68C107.133 23.8827 106.531 24.0267 105.912 24.112C105.304 24.1973 104.712 24.24 104.136 24.24C102.995 24.24 101.933 24.0533 100.952 23.68C99.9707 23.296 99.1173 22.736 98.392 22C97.6667 21.2533 97.096 20.336 96.68 19.248C96.264 18.1493 96.056 16.88 96.056 15.44C96.056 14.32 96.2373 13.2693 96.6 12.288C96.9627 11.296 97.48 10.4373 98.152 9.712C98.8347 8.976 99.6613 8.39467 100.632 7.968C101.613 7.54133 102.717 7.328 103.944 7.328C104.979 7.328 105.933 7.49333 106.808 7.824C107.683 8.15467 108.435 8.64 109.064 9.28C109.693 9.90933 110.184 10.688 110.536 11.616C110.899 12.5333 111.08 13.584 111.08 14.768C111.08 15.3653 111.016 15.7707 110.888 15.984C110.76 16.1867 110.515 16.288 110.152 16.288H99.992ZM125.806 11.056C125.688 11.2053 125.571 11.3227 125.454 11.408C125.347 11.4933 125.187 11.536 124.974 11.536C124.771 11.536 124.574 11.4773 124.382 11.36C124.19 11.232 123.96 11.0933 123.694 10.944C123.427 10.784 123.107 10.6453 122.734 10.528C122.371 10.4 121.918 10.336 121.374 10.336C120.68 10.336 120.072 10.464 119.55 10.72C119.027 10.9653 118.59 11.3227 118.238 11.792C117.896 12.2613 117.64 12.832 117.47 13.504C117.299 14.1653 117.214 14.9173 117.214 15.76C117.214 16.6347 117.304 17.4133 117.486 18.096C117.678 18.7787 117.95 19.3547 118.302 19.824C118.654 20.2827 119.08 20.6347 119.582 20.88C120.083 21.1147 120.648 21.232 121.278 21.232C121.907 21.232 122.414 21.1573 122.798 21.008C123.192 20.848 123.523 20.6773 123.79 20.496C124.056 20.304 124.286 20.1333 124.478 19.984C124.68 19.824 124.904 19.744 125.15 19.744C125.47 19.744 125.71 19.8667 125.87 20.112L127.006 21.552C126.568 22.064 126.094 22.496 125.582 22.848C125.07 23.1893 124.536 23.4667 123.982 23.68C123.438 23.8827 122.872 24.0267 122.286 24.112C121.71 24.1973 121.134 24.24 120.558 24.24C119.544 24.24 118.59 24.0533 117.694 23.68C116.798 23.296 116.014 22.7413 115.342 22.016C114.67 21.2907 114.136 20.4053 113.742 19.36C113.358 18.304 113.166 17.104 113.166 15.76C113.166 14.5547 113.336 13.44 113.678 12.416C114.03 11.3813 114.542 10.4907 115.214 9.744C115.886 8.98667 116.718 8.39467 117.71 7.968C118.702 7.54133 119.843 7.328 121.134 7.328C122.36 7.328 123.432 7.52533 124.35 7.92C125.278 8.31467 126.11 8.88 126.846 9.616L125.806 11.056ZM133.211 10.432C133.723 9.45067 134.331 8.68267 135.035 8.128C135.739 7.56267 136.571 7.28 137.531 7.28C138.289 7.28 138.897 7.44533 139.355 7.776L139.099 10.736C139.046 10.928 138.966 11.0667 138.859 11.152C138.763 11.2267 138.63 11.264 138.459 11.264C138.299 11.264 138.059 11.2373 137.739 11.184C137.43 11.1307 137.126 11.104 136.827 11.104C136.39 11.104 136.001 11.168 135.659 11.296C135.318 11.424 135.009 11.6107 134.731 11.856C134.465 12.0907 134.225 12.3787 134.011 12.72C133.809 13.0613 133.617 13.4507 133.435 13.888V24H129.483V7.584H131.803C132.209 7.584 132.491 7.65867 132.651 7.808C132.811 7.94667 132.918 8.20267 132.971 8.576L133.211 10.432ZM155.565 7.584V24H153.149C152.626 24 152.295 23.76 152.157 23.28L151.885 21.968C151.213 22.6507 150.471 23.2053 149.661 23.632C148.85 24.048 147.895 24.256 146.797 24.256C145.901 24.256 145.106 24.1067 144.413 23.808C143.73 23.4987 143.154 23.0667 142.685 22.512C142.215 21.9573 141.858 21.3013 141.613 20.544C141.378 19.776 141.261 18.9333 141.261 18.016V7.584H145.213V18.016C145.213 19.0187 145.442 19.7973 145.901 20.352C146.37 20.896 147.069 21.168 147.997 21.168C148.679 21.168 149.319 21.0187 149.917 20.72C150.514 20.4107 151.079 19.9893 151.613 19.456V7.584H155.565ZM163.579 7.584V24H159.611V7.584H163.579ZM164.123 2.8C164.123 3.14133 164.054 3.46133 163.915 3.76C163.777 4.05866 163.59 4.32 163.355 4.544C163.131 4.768 162.865 4.94933 162.555 5.088C162.246 5.216 161.915 5.28 161.563 5.28C161.222 5.28 160.897 5.216 160.587 5.088C160.289 4.94933 160.027 4.768 159.803 4.544C159.579 4.32 159.398 4.05866 159.259 3.76C159.131 3.46133 159.067 3.14133 159.067 2.8C159.067 2.448 159.131 2.11733 159.259 1.808C159.398 1.49867 159.579 1.232 159.803 1.008C160.027 0.783999 160.289 0.607999 160.587 0.48C160.897 0.341333 161.222 0.271999 161.563 0.271999C161.915 0.271999 162.246 0.341333 162.555 0.48C162.865 0.607999 163.131 0.783999 163.355 1.008C163.59 1.232 163.777 1.49867 163.915 1.808C164.054 2.11733 164.123 2.448 164.123 2.8ZM173.08 24.256C171.651 24.256 170.552 23.856 169.784 23.056C169.027 22.2453 168.648 21.1307 168.648 19.712V10.544H166.968C166.755 10.544 166.574 10.4747 166.424 10.336C166.275 10.1973 166.2 9.98933 166.2 9.712V8.144L168.84 7.712L169.672 3.232C169.726 3.01867 169.827 2.85333 169.976 2.736C170.126 2.61867 170.318 2.56 170.552 2.56H172.6V7.728H176.984V10.544H172.6V19.44C172.6 19.952 172.723 20.352 172.968 20.64C173.224 20.928 173.571 21.072 174.008 21.072C174.254 21.072 174.456 21.0453 174.616 20.992C174.787 20.928 174.931 20.864 175.048 20.8C175.176 20.736 175.288 20.6773 175.384 20.624C175.48 20.56 175.576 20.528 175.672 20.528C175.79 20.528 175.886 20.56 175.96 20.624C176.035 20.6773 176.115 20.7627 176.2 20.88L177.384 22.8C176.808 23.28 176.147 23.6427 175.4 23.888C174.654 24.1333 173.88 24.256 173.08 24.256ZM192.992 13.184C192.138 13.7387 191.514 14.368 191.12 15.072C190.736 15.7653 190.544 16.512 190.544 17.312C190.544 17.8987 190.645 18.4267 190.848 18.896C191.05 19.3653 191.322 19.7653 191.664 20.096C192.016 20.416 192.421 20.6667 192.88 20.848C193.349 21.0187 193.845 21.104 194.368 21.104C195.306 21.104 196.165 20.96 196.944 20.672C197.722 20.3733 198.426 19.9627 199.056 19.44L192.992 13.184ZM208.4 24H204.528C204.122 24 203.792 23.952 203.536 23.856C203.29 23.76 203.029 23.5573 202.752 23.248L201.152 21.6C200.138 22.432 199.002 23.0827 197.744 23.552C196.485 24.0213 195.125 24.256 193.664 24.256C192.778 24.256 191.904 24.1067 191.04 23.808C190.186 23.4987 189.424 23.056 188.752 22.48C188.08 21.904 187.536 21.2107 187.12 20.4C186.714 19.5787 186.512 18.656 186.512 17.632C186.512 16.9067 186.629 16.224 186.864 15.584C187.098 14.9333 187.424 14.3307 187.84 13.776C188.256 13.2213 188.752 12.7253 189.328 12.288C189.904 11.84 190.533 11.456 191.216 11.136C190.64 10.336 190.224 9.55733 189.968 8.8C189.712 8.032 189.584 7.26933 189.584 6.512C189.584 5.712 189.728 4.95467 190.016 4.24C190.314 3.51467 190.741 2.88533 191.296 2.352C191.85 1.81867 192.533 1.39733 193.344 1.088C194.154 0.768 195.072 0.608 196.096 0.608C197.034 0.608 197.872 0.752 198.608 1.04C199.354 1.328 199.989 1.712 200.512 2.192C201.045 2.672 201.461 3.22133 201.76 3.84C202.069 4.45867 202.25 5.09867 202.304 5.76L199.792 6.288C199.322 6.384 198.981 6.18133 198.768 5.68C198.672 5.40267 198.544 5.14133 198.384 4.896C198.234 4.64 198.053 4.42133 197.84 4.24C197.626 4.048 197.376 3.89867 197.088 3.792C196.8 3.67467 196.469 3.616 196.096 3.616C195.648 3.616 195.248 3.696 194.896 3.856C194.544 4.00533 194.245 4.21333 194 4.48C193.765 4.736 193.584 5.04 193.456 5.392C193.328 5.73333 193.264 6.096 193.264 6.48C193.264 6.8 193.296 7.10933 193.36 7.408C193.424 7.70667 193.53 8.00533 193.68 8.304C193.829 8.60267 194.021 8.912 194.256 9.232C194.501 9.54133 194.8 9.87733 195.152 10.24L201.296 16.624C201.648 15.952 201.93 15.2427 202.144 14.496C202.357 13.7493 202.496 12.992 202.56 12.224C202.592 11.9787 202.677 11.7813 202.816 11.632C202.954 11.4827 203.146 11.408 203.392 11.408H205.856C205.845 12.816 205.642 14.16 205.248 15.44C204.853 16.72 204.288 17.8987 203.552 18.976L208.4 24ZM223.177 4.288V11.136H231.849V14.576H223.177V24H218.857V0.863998H233.449V4.288H223.177ZM242.185 7.328C243.401 7.328 244.505 7.52533 245.497 7.92C246.499 8.31467 247.353 8.87467 248.057 9.6C248.771 10.3253 249.321 11.2107 249.705 12.256C250.089 13.3013 250.281 14.4693 250.281 15.76C250.281 17.0613 250.089 18.2347 249.705 19.28C249.321 20.3253 248.771 21.216 248.057 21.952C247.353 22.688 246.499 23.2533 245.497 23.648C244.505 24.0427 243.401 24.24 242.185 24.24C240.958 24.24 239.843 24.0427 238.841 23.648C237.838 23.2533 236.979 22.688 236.265 21.952C235.561 21.216 235.011 20.3253 234.617 19.28C234.233 18.2347 234.041 17.0613 234.041 15.76C234.041 14.4693 234.233 13.3013 234.617 12.256C235.011 11.2107 235.561 10.3253 236.265 9.6C236.979 8.87467 237.838 8.31467 238.841 7.92C239.843 7.52533 240.958 7.328 242.185 7.328ZM242.185 21.2C243.55 21.2 244.558 20.7413 245.209 19.824C245.87 18.9067 246.201 17.5627 246.201 15.792C246.201 14.0213 245.87 12.672 245.209 11.744C244.558 10.816 243.55 10.352 242.185 10.352C240.798 10.352 239.769 10.8213 239.097 11.76C238.435 12.688 238.105 14.032 238.105 15.792C238.105 17.552 238.435 18.896 239.097 19.824C239.769 20.7413 240.798 21.2 242.185 21.2ZM257.296 0.223999V24H253.344V0.223999H257.296ZM265.233 0.223999V24H261.281V0.223999H265.233ZM276.435 7.328C277.651 7.328 278.755 7.52533 279.747 7.92C280.749 8.31467 281.603 8.87467 282.307 9.6C283.021 10.3253 283.571 11.2107 283.955 12.256C284.339 13.3013 284.531 14.4693 284.531 15.76C284.531 17.0613 284.339 18.2347 283.955 19.28C283.571 20.3253 283.021 21.216 282.307 21.952C281.603 22.688 280.749 23.2533 279.747 23.648C278.755 24.0427 277.651 24.24 276.435 24.24C275.208 24.24 274.093 24.0427 273.091 23.648C272.088 23.2533 271.229 22.688 270.515 21.952C269.811 21.216 269.261 20.3253 268.867 19.28C268.483 18.2347 268.291 17.0613 268.291 15.76C268.291 14.4693 268.483 13.3013 268.867 12.256C269.261 11.2107 269.811 10.3253 270.515 9.6C271.229 8.87467 272.088 8.31467 273.091 7.92C274.093 7.52533 275.208 7.328 276.435 7.328ZM276.435 21.2C277.8 21.2 278.808 20.7413 279.459 19.824C280.12 18.9067 280.451 17.5627 280.451 15.792C280.451 14.0213 280.12 12.672 279.459 11.744C278.808 10.816 277.8 10.352 276.435 10.352C275.048 10.352 274.019 10.8213 273.347 11.76C272.685 12.688 272.355 14.032 272.355 15.792C272.355 17.552 272.685 18.896 273.347 19.824C274.019 20.7413 275.048 21.2 276.435 21.2ZM310.705 7.584L305.489 24H302.321C301.958 24 301.707 23.7653 301.569 23.296L298.625 13.808C298.529 13.488 298.438 13.1733 298.353 12.864C298.278 12.544 298.214 12.224 298.161 11.904C298.097 12.224 298.022 12.5493 297.937 12.88C297.862 13.2 297.777 13.52 297.681 13.84L294.689 23.296C294.561 23.7653 294.278 24 293.841 24H290.801L285.601 7.584H288.753C289.041 7.584 289.286 7.65333 289.489 7.792C289.691 7.93067 289.825 8.10667 289.889 8.32L292.241 17.088C292.358 17.568 292.459 18.0373 292.545 18.496C292.641 18.9547 292.721 19.4133 292.785 19.872C292.902 19.4133 293.025 18.9547 293.153 18.496C293.291 18.0373 293.435 17.568 293.585 17.088L296.305 8.288C296.369 8.07467 296.491 7.89867 296.673 7.76C296.865 7.62133 297.094 7.552 297.361 7.552H299.105C299.382 7.552 299.617 7.62133 299.809 7.76C300.011 7.89867 300.145 8.07467 300.209 8.288L302.849 17.088C302.987 17.568 303.115 18.0427 303.233 18.512C303.361 18.9707 303.483 19.4293 303.601 19.888C303.739 18.9813 303.937 18.048 304.193 17.088L306.609 8.32C306.683 8.10667 306.817 7.93067 307.009 7.792C307.201 7.65333 307.43 7.584 307.697 7.584H310.705ZM312.824 12.688H321.112V15.984H312.824V12.688ZM339.034 7.584V24H336.618C336.095 24 335.764 23.76 335.626 23.28L335.354 21.968C334.682 22.6507 333.94 23.2053 333.13 23.632C332.319 24.048 331.364 24.256 330.266 24.256C329.37 24.256 328.575 24.1067 327.882 23.808C327.199 23.4987 326.623 23.0667 326.154 22.512C325.684 21.9573 325.327 21.3013 325.082 20.544C324.847 19.776 324.73 18.9333 324.73 18.016V7.584H328.682V18.016C328.682 19.0187 328.911 19.7973 329.37 20.352C329.839 20.896 330.538 21.168 331.466 21.168C332.148 21.168 332.788 21.0187 333.386 20.72C333.983 20.4107 334.548 19.9893 335.082 19.456V7.584H339.034ZM346.904 19.744C347.352 20.288 347.837 20.672 348.36 20.896C348.893 21.12 349.469 21.232 350.088 21.232C350.685 21.232 351.224 21.12 351.704 20.896C352.184 20.672 352.589 20.3307 352.92 19.872C353.261 19.4133 353.523 18.8373 353.704 18.144C353.885 17.44 353.976 16.6133 353.976 15.664C353.976 14.704 353.896 13.8933 353.736 13.232C353.587 12.56 353.368 12.016 353.08 11.6C352.792 11.184 352.44 10.88 352.024 10.688C351.619 10.496 351.155 10.4 350.632 10.4C349.811 10.4 349.112 10.576 348.536 10.928C347.96 11.2693 347.416 11.7547 346.904 12.384V19.744ZM346.696 9.824C347.368 9.06667 348.131 8.45333 348.984 7.984C349.837 7.51467 350.84 7.28 351.992 7.28C352.888 7.28 353.704 7.46667 354.44 7.84C355.187 8.21333 355.827 8.75733 356.36 9.472C356.904 10.176 357.32 11.0507 357.608 12.096C357.907 13.1307 358.056 14.32 358.056 15.664C358.056 16.8907 357.891 18.0267 357.56 19.072C357.229 20.1173 356.755 21.024 356.136 21.792C355.528 22.56 354.787 23.1627 353.912 23.6C353.048 24.0267 352.077 24.24 351 24.24C350.083 24.24 349.299 24.1013 348.648 23.824C347.997 23.536 347.416 23.1413 346.904 22.64V29.36H342.952V7.584H345.368C345.88 7.584 346.216 7.824 346.376 8.304L346.696 9.824Z" fill="#193E72"/>
</svg>
