<svg xmlns="http://www.w3.org/2000/svg" width="323" height="32" fill="none"><path fill="#193E72" d="M21.404.285v19.413L6.471.285H0v31.502h6.898V11.734l15.43 20.053h5.974V.285h-6.898ZM40.96.285h-7.04v31.502h7.04V.285ZM66.488.285v12.657H53.546V.285h-7.04v31.502h7.04V19.698h12.942v12.089h6.969V.285h-6.969ZM95.005 12.942h-8.889v-6.4h8.89c1.492.072 3.626.64 3.626 3.2s-2.134 3.2-3.627 3.2Zm3.556 5.618c3.982-.853 6.969-3.91 6.969-9.03 0-5.69-3.983-9.103-8.89-9.245H79.077v31.502h7.04V19.698h5.191l7.467 12.089h8.036L98.56 18.56Z"/><path fill="#EA5D4E" d="M119.965.285h-2.774v31.573h2.774V.285Z"/><path fill="#193E72" d="M141.155.355v12.303h-1.138c-.142 0-.284 0-.427-.071-.142-.072-.284-.214-.355-.285l-6.4-8.178c0 .356.071.711.071 1.067v7.538h-2.062V.355h1.493c.071 0 .142 0 .213.072.072 0 .143.07.143.142l.142.213 6.471 8.249-.071-.569V.355h1.92ZM143.147 5.12c.995-.924 2.275-1.422 3.626-1.351.498 0 .925.071 1.351.213.356.142.711.427.996.711.284.285.498.64.64 1.067.142.427.213.853.213 1.351v5.547h-.924c-.142 0-.285 0-.427-.071-.142-.071-.213-.214-.284-.356l-.214-.64a3.862 3.862 0 0 1-.64.498c-.213.142-.426.284-.64.355a1.37 1.37 0 0 1-.711.214c-.284.07-.569.07-.853.07-.356 0-.711-.07-.996-.141a1.694 1.694 0 0 1-.782-.427c-.213-.213-.427-.427-.498-.711a2.795 2.795 0 0 1-.213-.996c0-.213.071-.426.142-.64.071-.213.214-.426.356-.64.213-.213.426-.426.64-.569.284-.213.64-.355.995-.426.427-.142.854-.214 1.351-.285.569-.07 1.209-.142 1.778-.142v-.64a1.618 1.618 0 0 0-.355-1.28c-.285-.284-.711-.427-1.138-.427-.285 0-.569 0-.853.143-.214.07-.427.142-.569.284l-.498.285c-.142.07-.285.142-.427.142a.542.542 0 0 1-.355-.142c-.071-.072-.214-.143-.214-.285l-.497-.711Zm4.835 3.769c-.498 0-.995.071-1.564.142-.356.071-.711.142-.996.285a1.107 1.107 0 0 0-.569.426c-.071.142-.142.356-.142.498 0 .284.071.569.356.782.284.143.568.285.853.214.355 0 .782-.072 1.138-.214.355-.213.64-.426.924-.71V8.888ZM166.684 3.769c.568 0 1.208.071 1.777.284 1.067.427 1.849 1.21 2.205 2.276.213.569.284 1.209.284 1.849 0 .64-.071 1.28-.284 1.849a5.821 5.821 0 0 1-.854 1.422c-.355.427-.853.711-1.351.925-.569.213-1.137.355-1.777.284-.64 0-1.209-.071-1.778-.284a4.158 4.158 0 0 1-1.351-.925c-.356-.427-.711-.924-.854-1.422-.213-.57-.355-1.21-.284-1.85 0-.64.071-1.28.284-1.848.214-.569.498-.996.925-1.422.355-.427.853-.711 1.351-.925a6.226 6.226 0 0 1 1.707-.213Zm0 7.396c.64.07 1.208-.214 1.635-.711.356-.64.569-1.352.498-2.134.071-.782-.142-1.493-.498-2.133-.355-.498-.995-.782-1.635-.711a1.697 1.697 0 0 0-1.636.782c-.427.64-.569 1.351-.569 2.133-.071.782.142 1.494.569 2.134.356.426.996.71 1.636.64ZM174.507 4.978c.142-.143.355-.356.569-.498.213-.142.426-.285.64-.356.213-.07.497-.213.711-.213.284-.071.569-.071.782-.071.427 0 .853.071 1.28.213.356.142.64.427.924.711.285.285.427.64.569 1.067.143.427.214.853.214 1.351v5.547h-2.134V7.11c0-.427-.071-.853-.355-1.28-.285-.284-.711-.498-1.138-.427-.356 0-.711.071-.996.214-.355.213-.64.426-.924.71v6.33h-2.133V3.91h1.28c.284 0 .497.142.569.356l.142.71ZM181.974 5.12c.995-.924 2.275-1.422 3.626-1.351.498 0 .925.071 1.351.213.356.142.711.427.996.711.284.285.498.64.64 1.067.142.427.213.924.213 1.351v5.476h-.995c-.143 0-.285 0-.427-.071-.142-.072-.213-.214-.284-.356l-.214-.64a3.862 3.862 0 0 1-.64.498c-.213.142-.426.284-.64.355a1.372 1.372 0 0 1-.711.214c-.284.07-.569.07-.853.07-.356 0-.711-.07-.996-.141a1.695 1.695 0 0 1-.782-.427c-.213-.213-.427-.427-.498-.711a2.796 2.796 0 0 1-.213-.996c0-.213.071-.426.142-.64.071-.213.213-.426.356-.64.213-.213.426-.426.64-.569.284-.213.64-.355.995-.426.427-.143.925-.285 1.351-.285.569-.07 1.209-.142 1.778-.142v-.569a1.618 1.618 0 0 0-.355-1.28c-.285-.284-.712-.427-1.067-.427-.285 0-.569 0-.853.143-.214.07-.427.142-.569.284l-.498.285c-.142.07-.285.142-.427.142a.542.542 0 0 1-.355-.142c-.071-.072-.214-.143-.214-.285l-.497-.711Zm4.835 3.769c-.498 0-.995.071-1.564.142-.356.071-.711.142-.996.285a1.107 1.107 0 0 0-.569.426c-.071.142-.142.356-.142.498 0 .284.071.569.356.782.284.143.568.285.853.214.355 0 .782-.072 1.138-.214.355-.213.64-.426.924-.71V8.888ZM192.924 0v12.658h-2.133V0h2.133ZM201.742 12.658h-2.275V.355h2.275v12.303ZM206.009 4.978c.142-.143.355-.356.569-.498.213-.142.426-.285.64-.356.213-.07.497-.213.711-.213.284-.071.569-.071.782-.071.427 0 .853.071 1.28.213.355.142.64.427.924.711.285.285.427.64.569 1.067.142.427.214.853.214 1.351v5.547h-2.134V7.11c0-.427-.071-.853-.355-1.28-.285-.284-.711-.498-1.138-.427-.356 0-.711.071-.996.214-.355.213-.64.426-.924.71v6.33h-2.133V3.91h1.28c.213 0 .497.142.568.356l.143.71ZM218.951 5.618c-.072.07-.071.142-.143.213-.071.071-.142.071-.213.071-.142 0-.213 0-.356-.07l-.426-.214c-.142-.071-.356-.142-.498-.214-.213-.07-.498-.07-.711-.07-.356 0-.711.07-.996.284-.213.142-.355.426-.355.71 0 .143.071.356.213.499.142.142.285.284.498.355.213.071.498.214.711.285.285.07.498.142.782.284.285.071.498.213.782.285.285.142.498.284.712.426.213.214.355.427.497.64.143.285.214.57.214.925 0 .426-.071.782-.214 1.138-.142.355-.355.64-.64.924a4.239 4.239 0 0 1-1.066.64 5.419 5.419 0 0 1-1.494.213c-.284 0-.569 0-.853-.07l-.853-.214a3.294 3.294 0 0 1-.711-.356c-.214-.142-.427-.284-.569-.426l.498-.783.213-.213c.071-.071.213-.071.355-.071.143 0 .285.071.356.142l.427.213c.142.072.355.214.568.214.285.07.498.142.783.142.213 0 .426 0 .64-.071l.426-.213c.143-.072.214-.214.285-.356.071-.142.071-.284.071-.427 0-.213-.071-.355-.142-.497-.142-.143-.285-.285-.498-.356-.213-.071-.498-.213-.711-.284l-.782-.285c-.285-.071-.498-.213-.783-.284a2.57 2.57 0 0 1-.711-.498 2.554 2.554 0 0 1-.497-.711 1.56 1.56 0 0 1-.143-.996c0-.355.071-.71.214-.995.142-.356.355-.64.64-.854.284-.284.64-.426.995-.569a4.588 4.588 0 0 1 1.422-.213c.569 0 1.138.071 1.636.285.427.142.853.426 1.209.782l-.782.64ZM234.951 12.8c-.64.07-1.28-.214-1.778-.64a2.73 2.73 0 0 1-.64-1.778V5.475h-.925a.538.538 0 0 1-.284-.142.544.544 0 0 1-.142-.355v-.783l1.422-.213.427-2.347a.54.54 0 0 1 .142-.284c.071-.071.213-.071.284-.071h1.067v2.773h2.347v1.493h-2.205v4.765c0 .213.071.427.213.64a.81.81 0 0 0 .569.213c.143 0 .214 0 .356-.07l.213-.072.142-.071c.072 0 .072-.071.143-.071s.071 0 .142.07l.142.143.64.996c-.284.284-.64.426-1.067.569-.426.07-.782.142-1.208.142ZM245.902 3.911v8.747h-1.28c-.213 0-.498-.142-.498-.356l-.142-.71c-.356.355-.711.64-1.209.852-.853.427-1.92.427-2.773.072-.356-.143-.64-.427-.925-.711-.284-.285-.426-.64-.569-1.067a4.146 4.146 0 0 1-.213-1.351V3.91h2.062v5.547c0 .426.071.853.356 1.209.284.284.711.498 1.138.426.355 0 .711-.07.995-.284.356-.142.64-.427.925-.64V3.91h2.133ZM250.88 12.8c-.64.07-1.28-.214-1.778-.64a2.735 2.735 0 0 1-.64-1.778V5.475h-.924a.538.538 0 0 1-.284-.142.54.54 0 0 1-.143-.355v-.783l1.423-.213.426-2.347a.54.54 0 0 1 .142-.284c.072-.071.214-.071.285-.071h1.067v2.773h2.346v1.493h-2.346v4.765c0 .213.071.427.213.64a.806.806 0 0 0 .569.213c.142 0 .213 0 .355-.07l.214-.072.142-.071c.071 0 .071-.071.142-.071s.071 0 .142.07l.143.143.64.996c-.285.284-.64.426-1.067.569-.285.07-.64.142-1.067.142ZM255.786 8.533c0 .427.072.782.214 1.138.142.284.284.569.498.782.213.213.426.356.711.498.284.071.64.142.924.142.285 0 .569-.071.853-.142.214-.071.427-.142.64-.285l.498-.284c.142-.071.285-.142.427-.142a.39.39 0 0 1 .355.213l.64.782c-.213.285-.497.498-.782.712a2.203 2.203 0 0 1-.924.426c-.285.142-.64.213-.996.213-.284.072-.64.072-.924.072-.569 0-1.138-.072-1.707-.285-.498-.213-.995-.498-1.351-.924-.427-.427-.711-.925-.924-1.494-.214-.64-.356-1.35-.356-1.99 0-.57.071-1.139.284-1.707.214-.498.498-.996.854-1.352.355-.426.853-.71 1.351-.924.569-.213 1.138-.356 1.778-.356.497 0 1.066.072 1.493.285.427.142.853.427 1.209.782.355.356.64.782.782 1.28.213.569.285 1.138.285 1.707 0 .213 0 .426-.072.64-.071.142-.213.213-.355.142l-5.405.071Zm4.054-1.28c0-.284-.071-.498-.142-.782-.072-.213-.214-.427-.356-.64a1.107 1.107 0 0 0-.569-.427c-.284-.142-.569-.142-.853-.142-.498 0-1.067.142-1.422.498-.356.426-.64.924-.64 1.493h3.982ZM268.017 12.658V5.547l-.782-.143c-.142 0-.285-.07-.427-.142a.544.544 0 0 1-.142-.355v-.925h1.28v-.64c0-.427.071-.924.213-1.351.143-.356.356-.711.64-.996.285-.284.64-.497.996-.64a4.465 4.465 0 0 1 1.351-.213c.356 0 .711.071 1.067.142v1.067c0 .071 0 .142-.071.213l-.143.143c-.071 0-.142.07-.213.07h-.142c-.214 0-.427 0-.64.072-.427.07-.711.426-.782.782-.072.284-.143.569-.072.782v.57h2.276v1.492h-2.204v7.183h-2.205ZM277.119 3.769c.569 0 1.209.071 1.778.284.498.214.995.498 1.351.854.356.426.711.924.853 1.422.214.569.285 1.209.285 1.849 0 .64-.071 1.28-.285 1.849a5.786 5.786 0 0 1-.853 1.422c-.356.427-.853.711-1.351.925-.569.213-1.138.355-1.778.284-.64 0-1.209-.071-1.778-.284-.497-.214-.995-.498-1.351-.925-.355-.427-.711-.924-.853-1.422-.213-.57-.356-1.21-.285-1.85 0-.64.072-1.28.285-1.848.213-.498.498-.996.853-1.422.356-.427.854-.711 1.351-.925a7.166 7.166 0 0 1 1.778-.213Zm0 7.396c.64.07 1.209-.214 1.636-.711.355-.64.569-1.352.497-2.134.072-.782-.142-1.493-.497-2.133a1.79 1.79 0 0 0-1.636-.711 1.695 1.695 0 0 0-1.635.782c-.427.64-.569 1.351-.569 2.133-.071.782.142 1.494.569 2.134.355.426.995.71 1.635.64ZM285.013 5.405c.213-.498.568-.925.995-1.21.356-.284.853-.426 1.351-.426.356 0 .711.071.996.284l-.142 1.565c0 .071-.072.142-.143.213-.071.071-.142.071-.213.071-.142 0-.284 0-.356-.07-.142 0-.355-.072-.497-.072-.214 0-.427 0-.64.071-.214.071-.356.142-.498.285-.142.142-.285.284-.356.426-.142.214-.213.427-.284.64v5.405h-2.205V3.91h1.209c.143 0 .356 0 .427.142.071.143.142.285.142.427l.214.925ZM141.155 19.556v12.302h-2.276v-5.405h-5.76v5.405h-2.275V19.556h2.275v5.333h5.76v-5.333h2.276ZM144.924 27.733c0 .427.071.782.214 1.138.142.284.284.569.497.782.214.213.427.356.712.498.284.071.64.142.924.142.284 0 .569 0 .853-.142.214-.071.427-.142.64-.285l.498-.284c.142-.071.285-.142.427-.142.142 0 .284.071.426.213l.64.925c-.213.284-.497.497-.782.71a2.203 2.203 0 0 1-.924.427c-.285.143-.64.214-.996.214-.284.07-.64.07-.924.07-.569 0-1.138-.07-1.707-.284-.498-.213-.995-.497-1.351-.924-.427-.427-.711-.925-.924-1.493-.214-.64-.356-1.351-.356-1.991 0-.57.071-1.138.284-1.707.214-.498.498-.996.854-1.351.355-.427.782-.711 1.351-.925.569-.213 1.138-.355 1.778-.355.497 0 1.066.07 1.493.284.427.142.853.427 1.209.782.355.356.64.783.782 1.28.213.57.285 1.138.285 1.707 0 .213 0 .427-.072.64-.071.142-.213.213-.426.142l-5.405-.07Zm3.983-1.28c0-.284 0-.498-.143-.782-.071-.213-.213-.427-.355-.64a1.106 1.106 0 0 0-.569-.427 2.375 2.375 0 0 0-2.276.356c-.355.427-.64.924-.64 1.493h3.983ZM152.179 24.32c.995-.924 2.275-1.422 3.626-1.35.498 0 .925.07 1.351.212.356.143.712.427.996.712.284.284.498.64.64 1.066.142.427.213.925.213 1.351v5.547h-.924c-.142 0-.285 0-.427-.071-.142-.071-.213-.213-.284-.356l-.214-.64a3.862 3.862 0 0 1-.64.498c-.213.142-.426.284-.64.356a1.37 1.37 0 0 1-.711.213c-.284.071-.569.071-.853.071-.356 0-.711-.071-.996-.142a1.7 1.7 0 0 1-.782-.427c-.213-.213-.426-.427-.569-.71a2.857 2.857 0 0 1-.213-1.068c0-.213.071-.426.142-.64.071-.213.214-.426.356-.64.213-.213.426-.426.64-.569.284-.213.64-.355.995-.497.427-.143.925-.214 1.351-.356.569-.07 1.209-.142 1.778-.142v-.427a1.618 1.618 0 0 0-.355-1.28 1.569 1.569 0 0 0-1.067-.426c-.284 0-.569 0-.853.142-.214.071-.427.142-.569.284l-.427.285c-.142.07-.284.142-.427.142a.542.542 0 0 1-.355-.142c-.071-.071-.213-.142-.285-.285l-.497-.71Zm4.835 3.84c-.498 0-.995.071-1.564.142-.356.072-.711.143-.996.285a1.11 1.11 0 0 0-.569.427c-.284.426-.213.995.143 1.28.284.142.568.284.853.213.355 0 .782-.071 1.138-.213.355-.214.64-.427.924-.712l.071-1.422ZM163.129 19.2v12.658h-2.133V19.2h2.133ZM168.106 32c-.64.071-1.28-.213-1.778-.64a2.735 2.735 0 0 1-.64-1.778v-4.906h-.853c-.142 0-.213 0-.285-.143a.543.543 0 0 1-.142-.355v-.853l1.422-.214.427-2.418a.54.54 0 0 1 .142-.284c.071-.071.214-.071.285-.071h1.066v2.773h2.347v1.494h-2.275v4.764c0 .213.071.427.213.64a.806.806 0 0 0 .569.213c.142 0 .213 0 .355-.07.071 0 .143-.072.214-.072l.142-.071c.071 0 .071-.071.142-.071s.142 0 .142.071l.143.142.64.996c-.285.284-.64.426-1.067.569a2.513 2.513 0 0 1-1.209.284ZM173.583 24.036c.355-.285.711-.57 1.137-.783.427-.213.925-.284 1.423-.284.426 0 .853.071 1.28.213.355.143.711.427.924.712.284.284.427.64.569 1.066.142.427.213.854.213 1.351v5.547h-2.133v-5.547c0-.426-.071-.853-.356-1.28-.284-.284-.711-.497-1.137-.426a2.27 2.27 0 0 0-.996.213c-.356.213-.64.427-.924.711v6.329h-2.134V19.2h2.134v4.836ZM184.959 24.32c.996-.924 2.276-1.422 3.627-1.35.498 0 .924.07 1.351.212.355.143.711.427.995.712.285.284.498.64.64 1.066.143.427.214.925.214 1.351v5.547h-.925c-.142 0-.284 0-.426-.071-.143-.071-.214-.213-.285-.356l-.213-.64c-.213.214-.427.356-.64.498-.213.142-.427.284-.64.356a1.372 1.372 0 0 1-.711.213c-.285.071-.569.071-.854.071-.355 0-.711-.071-.995-.142a1.69 1.69 0 0 1-.782-.427c-.214-.213-.427-.427-.498-.71a2.857 2.857 0 0 1-.213-1.068c0-.213.071-.426.142-.64.071-.213.213-.426.355-.64.214-.213.427-.426.64-.569.285-.213.64-.355.996-.497a9.46 9.46 0 0 1 1.351-.356c.569-.07 1.209-.142 1.778-.142v-.427a1.615 1.615 0 0 0-.356-1.28c-.284-.284-.711-.426-1.066-.426-.285 0-.569 0-.854.142-.213.071-.426.142-.569.284l-.497.285c-.143.07-.285.142-.427.142a.545.545 0 0 1-.356-.142c-.071-.071-.213-.142-.213-.285l-.569-.71Zm4.836 3.84c-.498 0-.996.071-1.565.142-.355.072-.711.143-.995.285a1.103 1.103 0 0 0-.569.427c-.071.142-.142.355-.142.497 0 .285.071.57.355.783.285.213.569.284.853.284.356 0 .783-.071 1.138-.213.356-.214.64-.427.925-.711V28.16ZM195.698 24.178a4.08 4.08 0 0 1 .569-.498c.213-.142.427-.284.64-.355.213-.072.498-.214.711-.214.285-.071.569-.071.782-.071.427 0 .854.071 1.28.213.356.143.64.427.925.712.284.284.426.64.569 1.066.142.427.213.854.213 1.351v5.547h-2.133V26.31c0-.427-.071-.853-.356-1.28-.284-.284-.711-.498-1.138-.426a2.27 2.27 0 0 0-.995.213c-.356.213-.64.426-.925.71v6.33h-2.133V23.11h1.28c.284 0 .498.142.569.356l.142.71ZM210.916 19.2v12.658h-1.28c-.214 0-.498-.142-.569-.356l-.142-.853c-.356.427-.783.711-1.209.996-.498.284-1.067.355-1.565.355-.426 0-.924-.07-1.28-.284a3.147 3.147 0 0 1-1.066-.854 5.11 5.11 0 0 1-.64-1.422 8.78 8.78 0 0 1-.214-1.92c0-.64.071-1.209.285-1.778.142-.497.426-.995.782-1.422.284-.427.711-.71 1.209-.924.498-.214.995-.356 1.564-.356.427 0 .854.071 1.28.213.356.143.64.356.925.64V19.2h1.92Zm-2.134 6.187a2.214 2.214 0 0 0-.782-.64c-.284-.142-.569-.213-.924-.142-.285 0-.569.07-.854.142-.284.142-.497.284-.64.569a2.205 2.205 0 0 0-.426.924c-.071.427-.143.854-.143 1.28 0 .427 0 .854.143 1.28.071.285.213.64.355.854.142.213.356.355.569.497.213.071.498.143.711.143.356 0 .782-.072 1.138-.285a3.02 3.02 0 0 0 .853-.782v-3.84ZM225.849 28.942c.142 0 .213.071.356.142l.924.996a4.483 4.483 0 0 1-1.849 1.422c-.853.356-1.706.498-2.631.498-.853 0-1.707-.142-2.489-.498a4.814 4.814 0 0 1-1.849-1.28 7.14 7.14 0 0 1-1.209-1.99 7.335 7.335 0 0 1-.426-2.49c0-.853.142-1.706.426-2.56.285-.71.712-1.422 1.28-1.99a5.684 5.684 0 0 1 1.92-1.28c.783-.285 1.636-.499 2.489-.427a6.92 6.92 0 0 1 2.418.426c.64.285 1.28.64 1.778 1.138l-.853.995-.143.143c-.071.07-.213.07-.284.07-.071 0-.213 0-.285-.07a.538.538 0 0 0-.284-.143l-.356-.213c-.142-.071-.355-.142-.497-.213-.214-.071-.427-.142-.64-.142-.285-.072-.569-.072-.854-.072-.497 0-1.066.072-1.493.285a4.675 4.675 0 0 0-1.209.853c-.355.427-.569.854-.782 1.351-.213.57-.285 1.21-.285 1.85 0 .64.072 1.28.285 1.848.142.498.427.996.782 1.351.356.356.711.64 1.209.854.427.213.996.284 1.493.284.285 0 .569 0 .854-.071.426-.071.924-.213 1.28-.427.213-.142.426-.284.569-.426.071-.072.142-.072.142-.143.071-.07.142-.07.213-.07ZM228.124 24.32c.995-.924 2.275-1.422 3.627-1.35.497 0 .924.07 1.351.212a3.09 3.09 0 0 1 1.635 1.778c.142.427.214.925.214 1.351v5.547h-.925c-.142 0-.284 0-.427-.071-.142-.071-.213-.213-.284-.356l-.213-.64a3.946 3.946 0 0 1-.64.498c-.214.142-.427.284-.64.356a1.375 1.375 0 0 1-.711.213c-.285.071-.569.071-.854.071-.355 0-.711-.071-.995-.142a1.698 1.698 0 0 1-.783-.427c-.213-.213-.426-.427-.568-.71a2.84 2.84 0 0 1-.214-1.068c0-.213.071-.426.071-.64.071-.213.214-.426.356-.64.213-.213.427-.426.64-.569.284-.213.64-.355.995-.497.427-.143.854-.214 1.352-.356.568-.07 1.208-.142 1.777-.142v-.427a1.618 1.618 0 0 0-.355-1.28 1.569 1.569 0 0 0-1.067-.426c-.284 0-.569 0-.853.142-.214.071-.427.142-.569.284l-.427.285c-.142.07-.284.142-.426.142a.543.543 0 0 1-.356-.142c-.071-.071-.213-.142-.284-.285l-.427-.71Zm4.764 3.84c-.497 0-.995.071-1.493.142-.356.072-.711.143-.996.285a1.104 1.104 0 0 0-.568.427c-.285.426-.214.995.142 1.28.284.142.569.284.853.213a3.22 3.22 0 0 0 1.138-.213c.355-.214.64-.427.924-.712V28.16ZM238.861 24.604c.214-.497.569-.924.996-1.209.356-.284.853-.426 1.351-.426.356 0 .711.07.996.284l-.143 1.565c0 .07-.071.142-.142.213-.071.071-.142.071-.213.071-.142 0-.285 0-.356-.071-.142 0-.355-.071-.497-.071-.214 0-.427 0-.64.142-.214.071-.356.142-.498.285-.142.142-.285.284-.356.497-.142.214-.213.427-.284.64v5.405h-2.134V23.11h1.209c.143 0 .285 0 .427.142.071.142.142.285.142.427l.142.924ZM244.622 27.733c0 .427.072.782.214 1.138.071.285.284.569.498.782.213.214.426.356.711.498.284.071.64.142.924.142.285 0 .569-.07.853-.142.214-.071.427-.142.64-.284l.498-.285c.142-.07.285-.142.427-.142a.39.39 0 0 1 .355.213l.64.783c-.213.284-.497.497-.782.71a2.203 2.203 0 0 1-.924.427c-.285.143-.64.214-.996.214-.284.07-.64.07-.924.07-.569 0-1.138-.07-1.707-.284-.498-.213-.995-.497-1.351-.924-.427-.427-.711-.925-.924-1.493-.214-.64-.356-1.352-.356-1.992 0-.568.071-1.137.284-1.706.214-.498.498-.996.854-1.351.355-.427.853-.712 1.351-.925.569-.213 1.138-.355 1.778-.355.497 0 1.066.07 1.493.284.427.142.853.427 1.209.782.355.356.64.783.782 1.28.213.57.285 1.138.285 1.707 0 .213 0 .427-.072.64-.071.142-.213.213-.355.142l-5.405.071Zm3.983-1.28c0-.284 0-.497-.143-.782-.071-.213-.213-.427-.355-.64a1.107 1.107 0 0 0-.569-.427c-.284-.142-.569-.142-.853-.142-.498 0-1.067.142-1.423.498-.355.427-.64.924-.64 1.493h3.983ZM266.098 31.858h-2.062c-.356 0-.711-.142-.854-.427l-2.56-3.91c-.071-.143-.213-.214-.355-.285-.142-.071-.356-.071-.498-.071h-.995V32h-2.276V19.556h3.769c.711 0 1.422.07 2.133.284.498.142 1.067.356 1.494.711.355.285.64.711.853 1.138.355.853.355 1.778.071 2.631-.213.711-.711 1.351-1.351 1.778-.356.213-.711.427-1.138.569.142.07.285.213.427.284.142.142.213.285.355.427l2.987 4.48Zm-5.902-6.471c.355 0 .782-.071 1.138-.142.284-.072.568-.214.782-.427.213-.213.355-.427.426-.711.143-.285.143-.57.143-.854 0-.568-.214-1.066-.64-1.422-.569-.355-1.209-.569-1.849-.498h-1.494v4.125l1.494-.071ZM268.089 27.733c0 .427.071.782.214 1.138.142.285.284.569.497.782.214.214.427.356.711.498.285.071.64.142.925.142.284 0 .569-.07.853-.142.214-.071.427-.142.64-.284l.498-.285c.142-.07.284-.142.427-.142a.39.39 0 0 1 .355.213l.64.783c-.213.284-.498.497-.782.71a2.203 2.203 0 0 1-.924.427c-.285.143-.64.214-.996.214-.284.07-.64.07-.924.07-.569 0-1.138-.07-1.707-.284-.498-.213-.996-.497-1.351-.924-.427-.427-.711-.925-.925-1.493-.213-.64-.355-1.352-.355-1.992 0-.568.071-1.137.284-1.706.214-.498.498-.996.854-1.351.355-.427.853-.712 1.351-.925.569-.213 1.137-.355 1.777-.355.498 0 1.067.07 1.494.284.426.142.853.427 1.209.782.355.356.64.783.782 1.28.213.57.284 1.138.284 1.707 0 .213 0 .427-.071.64-.071.142-.213.213-.355.142l-5.405.071Zm3.982-1.28c0-.284 0-.497-.142-.782-.071-.213-.213-.427-.355-.64a1.11 1.11 0 0 0-.569-.427c-.285-.142-.569-.142-.854-.142-.497 0-1.066.142-1.422.498-.355.427-.64.924-.64 1.493h3.982ZM280.888 24.818c-.071.071-.071.142-.142.213-.071.071-.142.071-.213.071-.143 0-.214 0-.356-.07l-.427-.214c-.142-.071-.355-.142-.497-.213-.214-.072-.498-.072-.712-.072-.355 0-.711.072-.995.285-.213.142-.356.427-.356.711 0 .142.071.356.214.498.142.142.284.284.497.355.214.143.498.214.712.285.284.07.497.142.782.213.284.071.498.213.782.285.284.142.498.284.711.426.213.214.356.427.498.64.142.285.213.57.213.925 0 .426-.071.782-.213 1.138-.142.355-.356.64-.64.924-.356.284-.711.498-1.067.569a5.408 5.408 0 0 1-1.493.213c-.285 0-.569 0-.853-.07l-.854-.214a3.321 3.321 0 0 1-.711-.356c-.213-.142-.427-.284-.569-.427l.498-.782.213-.213c.071-.071.214-.071.356-.071s.284.07.355.142l.427.213c.142.072.356.214.569.214.284.07.498.142.782.142.214 0 .427 0 .64-.071l.427-.213c.142-.072.213-.214.284-.356.071-.142.071-.284.071-.427 0-.213-.071-.355-.142-.497-.142-.143-.284-.285-.498-.356-.213-.071-.497-.213-.711-.285l-.853-.284c-.284-.071-.498-.213-.782-.355a2.539 2.539 0 0 1-.711-.498 2.535 2.535 0 0 1-.498-.711 1.566 1.566 0 0 1-.142-.996c0-.355.071-.711.213-.995.142-.356.356-.64.64-.854.284-.284.64-.427.996-.569a4.58 4.58 0 0 1 1.422-.213c.569 0 1.138.071 1.635.284.427.143.854.427 1.209.783l-.711.853ZM284.587 27.733c0 .427.071.782.214 1.138.142.285.284.569.497.782.214.214.427.356.711.498.285.071.64.142.925.142.284 0 .569-.07.853-.142.214-.071.427-.142.64-.284l.498-.285c.142-.07.284-.142.427-.142a.39.39 0 0 1 .355.213l.64.783c-.213.284-.498.497-.782.71a2.203 2.203 0 0 1-.924.427c-.285.143-.64.214-.996.214-.284.07-.64.07-.924.07-.569 0-1.138-.07-1.707-.284-.498-.213-.996-.497-1.351-.924-.427-.427-.711-.925-.925-1.493-.213-.64-.355-1.352-.355-1.992 0-.568.142-1.137.355-1.706.214-.498.498-.996.854-1.351.355-.427.853-.712 1.351-.925.569-.213 1.138-.355 1.778-.355.497 0 1.066.07 1.493.284.427.142.853.427 1.209.782.355.356.64.783.782 1.28.213.57.284 1.138.284 1.707 0 .213 0 .427-.071.64-.071.142-.213.213-.355.142l-5.476.071Zm4.054-1.28c0-.284 0-.497-.143-.782-.071-.213-.213-.427-.355-.64a1.107 1.107 0 0 0-.569-.427c-.285-.142-.569-.142-.853-.142-.498 0-1.067.142-1.423.498-.355.427-.64.924-.64 1.493h3.983ZM291.84 24.32c.995-.924 2.275-1.422 3.627-1.35.497 0 .924.07 1.351.212.355.143.711.427.995.712.285.284.498.64.64 1.066.142.427.214.925.214 1.351v5.547h-.925c-.142 0-.284 0-.427-.071-.142-.071-.213-.213-.284-.356l-.213-.64a3.946 3.946 0 0 1-.64.498c-.214.142-.427.284-.64.356a1.375 1.375 0 0 1-.711.213c-.285.071-.569.071-.854.071-.355 0-.711-.071-.995-.142a1.698 1.698 0 0 1-.783-.427c-.213-.213-.426-.427-.497-.71a2.84 2.84 0 0 1-.214-1.068c0-.213.071-.426.071-.64.072-.213.214-.426.356-.64.213-.213.427-.426.64-.569.284-.213.64-.355.996-.497.426-.143.853-.285 1.351-.356.569-.07 1.209-.142 1.777-.142v-.427a1.614 1.614 0 0 0-.355-1.28 1.569 1.569 0 0 0-1.067-.426c-.284 0-.569 0-.853.142-.213.071-.427.142-.569.284l-.427.285c-.142.07-.284.142-.497.142a.543.543 0 0 1-.356-.142c-.071-.071-.213-.142-.284-.285l-.427-.71Zm4.835 3.84c-.497 0-.995.071-1.493.142-.355.072-.711.143-.995.285a1.103 1.103 0 0 0-.569.427c-.285.426-.214.995.142 1.28.284.142.569.284.853.213a3.22 3.22 0 0 0 1.138-.213c.356-.214.64-.427.924-.712V28.16ZM302.649 24.604c.213-.497.568-.924.995-1.209.356-.284.853-.426 1.351-.426.356 0 .711.07.996.284l-.142 1.565c0 .07-.072.142-.143.213-.071.071-.142.071-.213.071-.142 0-.284 0-.356-.071-.142 0-.355-.071-.497-.071-.214 0-.427 0-.64.142-.214.071-.356.142-.498.285-.142.142-.285.284-.356.497-.142.214-.213.427-.284.64v5.405h-2.133V23.11h1.208c.285-.071.569.142.64.355v.143l.072.995ZM312.959 24.96l-.213.213c-.071.071-.142.071-.284.071-.143 0-.214-.07-.285-.07l-.355-.214c-.143-.071-.356-.142-.498-.213-.214-.072-.498-.143-.711-.072-.356 0-.64.072-.996.214-.284.142-.498.355-.711.569a2.207 2.207 0 0 0-.427.924c-.071.427-.142.782-.142 1.209 0 .427.071.853.142 1.28.071.356.214.64.427.925.213.213.427.426.711.568.285.143.569.214.925.214.284 0 .568 0 .782-.142.213-.072.355-.143.498-.285l.355-.284a.543.543 0 0 1 .356-.143.39.39 0 0 1 .355.214l.64.782c-.213.284-.498.498-.782.711a2.409 2.409 0 0 1-.853.427 1.971 1.971 0 0 1-.925.213c-.284.071-.64.071-.924.071-.498 0-1.067-.071-1.494-.284a4.05 4.05 0 0 1-1.28-.854 5.82 5.82 0 0 1-.853-1.422 6.552 6.552 0 0 1 0-3.698c.142-.497.427-.995.782-1.422.356-.427.854-.711 1.351-.924a5.343 5.343 0 0 1 1.849-.356c.569 0 1.138.071 1.707.285.498.213.924.497 1.28.853l-.427.64ZM317.014 24.036c.356-.285.711-.57 1.138-.783.427-.213.924-.284 1.422-.284.427 0 .854.071 1.28.213.356.143.64.427.925.712.284.284.426.64.569 1.066.142.427.213.854.213 1.351v5.547h-2.133v-5.547c0-.426-.072-.853-.356-1.28-.284-.284-.711-.497-1.138-.426a2.27 2.27 0 0 0-.995.213c-.356.213-.64.427-.925.711v6.329h-2.133V19.2h2.133v4.836ZM160.997 1.351c0 .142-.072.356-.143.498-.071.142-.142.284-.284.427-.142.142-.285.213-.427.284-.142.071-.355.142-.498.142-.142 0-.355 0-.497-.142a1.475 1.475 0 0 1-.427-.284c-.142-.143-.213-.285-.284-.427-.072-.142-.143-.356-.072-.498 0-.213 0-.355.072-.498.071-.142.142-.284.284-.426.142-.143.284-.214.427-.285.142-.07.355-.142.497-.142.214 0 .356 0 .498.142.142.071.285.142.427.285.142.142.213.284.284.426.071.143.143.356.143.498Zm-.285 2.56v8.747h-2.133V3.91h2.133ZM154.808 12.8c-.64.07-1.28-.214-1.778-.64a2.735 2.735 0 0 1-.64-1.778V5.475h-.924c-.142 0-.214-.07-.285-.142a.544.544 0 0 1-.142-.355v-.783l1.422-.213.427-2.347a.54.54 0 0 1 .142-.284c.071-.071.214-.071.285-.071h1.066v2.773h2.347v1.493h-2.347v4.765c0 .213.071.427.214.64a.806.806 0 0 0 .569.213c.142 0 .213 0 .355-.07l.213-.072.143-.071c.071 0 .071-.071.142-.071s.071 0 .142.07l.142.143.64.996c-.284.284-.64.426-1.066.569a4.843 4.843 0 0 1-1.067.142ZM230.186 1.351c0 .142-.071.356-.071.498-.071.142-.142.284-.285.427a1.485 1.485 0 0 1-.426.284 1.34 1.34 0 0 1-.569.142c-.142 0-.356-.07-.498-.142-.142-.071-.284-.142-.427-.284-.142-.143-.213-.285-.284-.427-.071-.142-.142-.356-.071-.498 0-.213 0-.355.071-.498.071-.142.142-.284.284-.426.143-.143.285-.214.427-.285.142-.07.356-.142.498-.142.213 0 .355 0 .569.142.284.142.569.427.711.711 0 .143.071.356.071.498Zm-.284 2.56v8.747h-2.134V3.91h2.134ZM223.999 12.8c-.64.07-1.28-.214-1.777-.64a2.73 2.73 0 0 1-.64-1.778V5.475h-.925a.538.538 0 0 1-.284-.142.544.544 0 0 1-.143-.355v-.783l1.423-.213.426-2.347c0-.07.071-.213.143-.284.071-.071.213-.071.284-.071h1.067v2.773h2.346v1.493h-2.346v4.765c0 .213.071.427.213.64a.808.808 0 0 0 .569.213c.142 0 .213 0 .355-.07.072 0 .143-.072.214-.072l.142-.071c.071 0 .071-.071.142-.071s.071 0 .142.07l.143.143.64.996c-.285.284-.64.426-1.067.569-.213.07-.64.142-1.067.142Z"/></svg>