<svg xmlns="http://www.w3.org/2000/svg" width="240" height="24" fill="none"><g clip-path="url(#a)"><path fill="#193E72" d="M15.93.213v14.56L4.815.213H0V23.84h5.133V8.8l11.484 15.04h4.446V.213h-5.134ZM30.483.213h-5.239V23.84h5.24V.213ZM49.482.213v9.494h-9.631V.213h-5.24V23.84h5.24v-9.067h9.631v9.067h5.187V.213h-5.187ZM70.704 9.707H64.09v-4.8h6.615c1.111.053 2.7.48 2.7 2.4s-1.589 2.4-2.7 2.4Zm2.646 4.213c2.964-.64 5.187-2.933 5.187-6.773 0-4.267-2.964-6.827-6.616-6.934H58.85V23.84h5.239v-9.067h3.863l5.557 9.067h5.98l-6.139-9.92Z"/><path fill="#EA5D4E" d="M89.279.213h-2.064v23.68h2.064V.213Z"/><path fill="#193E72" d="M105.049.267v9.226h-.847c-.106 0-.212 0-.318-.053-.105-.053-.211-.16-.264-.213l-4.763-6.134c0 .267.053.534.053.8v5.654h-1.535V.267h1.111c.053 0 .106 0 .16.053.052 0 .105.053.105.107l.106.16 4.816 6.186-.053-.426V.267h1.429ZM106.532 3.84c.741-.693 1.694-1.067 2.699-1.013.371 0 .688.053 1.006.16.264.106.529.32.741.533.211.213.37.48.476.8.106.32.159.64.159 1.013v4.16h-.688c-.106 0-.212 0-.318-.053-.106-.053-.159-.16-.212-.267l-.158-.48c-.159.16-.318.267-.477.374-.158.106-.317.213-.476.266-.159.107-.37.16-.529.16-.212.054-.423.054-.635.054a3.1 3.1 0 0 1-.741-.107 1.258 1.258 0 0 1-.582-.32c-.159-.16-.318-.32-.371-.533a2.124 2.124 0 0 1-.158-.747c0-.16.052-.32.105-.48.053-.16.159-.32.265-.48.159-.16.318-.32.476-.427.212-.16.477-.266.741-.32.318-.106.635-.16 1.006-.213a11.04 11.04 0 0 1 1.323-.107v-.48a1.217 1.217 0 0 0-.265-.96c-.212-.213-.529-.32-.847-.32-.211 0-.423 0-.635.107-.158.053-.317.107-.423.213l-.37.214c-.106.053-.212.106-.318.106a.404.404 0 0 1-.265-.106c-.053-.054-.158-.107-.158-.214l-.371-.533Zm3.599 2.827c-.371 0-.741.053-1.164.106-.265.054-.53.107-.741.214a.825.825 0 0 0-.424.32.994.994 0 0 0-.106.373c0 .213.053.427.265.587.212.106.423.213.635.16.265 0 .582-.054.847-.16.264-.16.476-.32.688-.534V6.667ZM124.048 2.827c.424 0 .9.053 1.323.213.794.32 1.376.907 1.641 1.707.159.426.212.906.212 1.386 0 .48-.053.96-.212 1.387-.159.373-.37.747-.635 1.067-.265.32-.635.533-1.006.693-.423.16-.846.267-1.323.213-.476 0-.899-.053-1.323-.213a3.099 3.099 0 0 1-1.005-.693c-.265-.32-.529-.694-.635-1.067-.159-.427-.265-.907-.212-1.387 0-.48.053-.96.212-1.386.159-.427.37-.747.688-1.067.264-.32.635-.533 1.005-.693a4.6 4.6 0 0 1 1.27-.16Zm0 5.546c.477.054.9-.16 1.218-.533.264-.48.423-1.013.37-1.6.053-.587-.106-1.12-.37-1.6a1.327 1.327 0 0 0-1.218-.533 1.26 1.26 0 0 0-1.217.586c-.317.48-.423 1.014-.423 1.6-.053.587.106 1.12.423 1.6.265.32.741.534 1.217.48ZM129.87 3.733c.106-.106.265-.266.424-.373.159-.107.317-.213.476-.267.159-.053.371-.16.529-.16.212-.053.424-.053.583-.053.317 0 .635.053.952.16.265.107.476.32.688.533.212.214.318.48.423.8.106.32.159.64.159 1.014v4.16h-1.587V5.333c0-.32-.053-.64-.265-.96-.212-.213-.529-.373-.847-.32-.264 0-.529.054-.741.16-.264.16-.476.32-.688.534v4.746h-1.587v-6.56h.952c.212 0 .371.107.424.267l.105.533ZM135.427 3.84c.741-.693 1.693-1.067 2.699-1.013.37 0 .688.053 1.005.16.265.106.53.32.741.533.212.213.371.48.477.8.105.32.158.693.158 1.013V9.44h-.741c-.105 0-.211 0-.317-.053-.106-.054-.159-.16-.212-.267l-.159-.48c-.158.16-.317.267-.476.373-.159.107-.317.214-.476.267-.159.107-.371.16-.529.16-.212.053-.424.053-.635.053-.265 0-.53-.053-.741-.106a1.253 1.253 0 0 1-.582-.32c-.159-.16-.318-.32-.371-.534a2.105 2.105 0 0 1-.159-.746c0-.16.053-.32.106-.48.053-.16.159-.32.265-.48.159-.16.317-.32.476-.427.212-.16.476-.267.741-.32.318-.107.688-.213 1.006-.213a11.04 11.04 0 0 1 1.323-.107v-.427a1.217 1.217 0 0 0-.265-.96 1.162 1.162 0 0 0-.794-.32c-.212 0-.423 0-.635.107-.159.053-.317.107-.423.213l-.371.214c-.106.053-.211.106-.317.106a.404.404 0 0 1-.265-.106c-.053-.054-.159-.107-.159-.214l-.37-.533Zm3.599 2.827c-.371 0-.741.053-1.165.106-.264.054-.529.107-.741.214a.826.826 0 0 0-.423.32.994.994 0 0 0-.106.373c0 .213.053.427.265.587.211.106.423.213.635.16.264 0 .582-.054.847-.16.264-.16.476-.32.688-.534V6.667ZM143.576 0v9.493h-1.588V0h1.588ZM150.139 9.493h-1.694V.267h1.694v9.226ZM153.314 3.733c.106-.106.264-.266.423-.373.159-.107.318-.213.477-.267.158-.053.37-.16.529-.16.211-.053.423-.053.582-.053.317 0 .635.053.952.16.265.107.477.32.688.533.212.214.318.48.424.8.106.32.159.64.159 1.014v4.16h-1.588V5.333c0-.32-.053-.64-.265-.96-.211-.213-.529-.373-.846-.32-.265 0-.53.054-.741.16-.265.16-.477.32-.688.534v4.746h-1.588v-6.56h.953c.158 0 .37.107.423.267l.106.533ZM162.947 4.213c-.053.054-.053.107-.106.16-.053.054-.106.054-.159.054-.106 0-.159 0-.265-.054l-.317-.16c-.106-.053-.265-.106-.371-.16C161.571 4 161.359 4 161.2 4c-.264 0-.529.053-.741.213a.66.66 0 0 0-.264.534c0 .106.053.266.158.373.106.107.212.213.371.267.159.053.37.16.529.213.212.053.371.107.582.213.212.054.371.16.582.214.212.106.371.213.53.32.158.16.264.32.37.48.106.213.159.426.159.693 0 .32-.053.587-.159.853a2.04 2.04 0 0 1-.476.694 3.154 3.154 0 0 1-.794.48c-.37.106-.741.16-1.111.16-.212 0-.424 0-.635-.054l-.636-.16a2.486 2.486 0 0 1-.529-.266c-.158-.107-.317-.214-.423-.32l.37-.587.159-.16c.053-.053.159-.053.265-.053a.4.4 0 0 1 .264.106l.318.16c.106.054.264.16.423.16.212.054.371.107.582.107.159 0 .318 0 .477-.053l.317-.16c.106-.054.159-.16.212-.267.053-.107.053-.213.053-.32a.774.774 0 0 0-.106-.373c-.106-.107-.212-.214-.37-.267-.159-.053-.371-.16-.53-.213l-.582-.214c-.212-.053-.37-.16-.582-.213a1.899 1.899 0 0 1-.529-.373 1.916 1.916 0 0 1-.371-.534 1.193 1.193 0 0 1-.106-.746c0-.267.053-.534.159-.747.106-.267.265-.48.477-.64.211-.213.476-.32.74-.427.318-.106.688-.16 1.059-.16.423 0 .847.054 1.217.214.318.106.635.32.9.586l-.582.48ZM174.854 9.6c-.477.053-.953-.16-1.323-.48a2.056 2.056 0 0 1-.477-1.333v-3.68h-.688a.398.398 0 0 1-.211-.107.409.409 0 0 1-.106-.267v-.586l1.058-.16.318-1.76c0-.054.053-.16.106-.214.053-.053.158-.053.211-.053h.794v2.08h1.747v1.12h-1.641v3.573c0 .16.053.32.159.48.106.107.264.16.423.16.106 0 .159 0 .265-.053l.158-.053.106-.054c.053 0 .053-.053.106-.053s.053 0 .106.053l.106.107.476.747c-.212.213-.476.32-.794.426-.317.054-.582.107-.899.107ZM183.002 2.933v6.56h-.952c-.159 0-.371-.106-.371-.266l-.105-.534c-.265.267-.53.48-.9.64-.635.32-1.429.32-2.064.054-.265-.107-.476-.32-.688-.534-.212-.213-.318-.48-.423-.8a3.123 3.123 0 0 1-.159-1.013V2.933h1.535v4.16c0 .32.052.64.264.907.212.213.529.373.847.32.265 0 .529-.053.741-.213.264-.107.476-.32.688-.48V2.933h1.587ZM186.707 9.6c-.476.053-.952-.16-1.323-.48a2.06 2.06 0 0 1-.476-1.333v-3.68h-.688a.4.4 0 0 1-.212-.107.409.409 0 0 1-.106-.267v-.586l1.059-.16.317-1.76c0-.054.053-.16.106-.214.053-.053.159-.053.212-.053h.794v2.08h1.746v1.12h-1.746v3.573c0 .16.053.32.158.48a.6.6 0 0 0 .424.16c.106 0 .159 0 .264-.053l.159-.053.106-.054c.053 0 .053-.053.106-.053s.053 0 .106.053l.106.107.476.747c-.212.213-.476.32-.794.426a3.18 3.18 0 0 1-.794.107ZM190.359 6.4c0 .32.053.587.159.853.106.214.212.427.371.587.158.16.317.267.529.373.211.054.476.107.688.107.211 0 .423-.053.635-.107a1.87 1.87 0 0 0 .476-.213l.371-.213c.105-.054.211-.107.317-.107.106 0 .212.053.265.16l.476.587c-.159.213-.37.373-.582.533a1.64 1.64 0 0 1-.688.32 1.68 1.68 0 0 1-.741.16c-.212.053-.476.053-.688.053-.423 0-.847-.053-1.27-.213-.371-.16-.741-.373-1.006-.693-.317-.32-.529-.694-.688-1.12-.158-.48-.264-1.014-.264-1.494 0-.426.053-.853.211-1.28.159-.373.371-.746.636-1.013.264-.32.635-.533 1.005-.693.423-.16.847-.267 1.323-.267.371 0 .794.053 1.111.213.318.107.635.32.9.587.265.267.476.587.582.96.159.427.212.853.212 1.28 0 .16 0 .32-.053.48-.053.107-.159.16-.265.107l-4.022.053Zm3.017-.96c0-.213-.053-.373-.106-.587-.053-.16-.159-.32-.265-.48a.819.819 0 0 0-.423-.32c-.212-.106-.423-.106-.635-.106-.37 0-.794.106-1.058.373-.265.32-.477.693-.477 1.12h2.964ZM199.463 9.493V4.16l-.583-.107c-.105 0-.211-.053-.317-.106a.409.409 0 0 1-.106-.267v-.693h.953v-.48c0-.32.053-.694.158-1.014.106-.266.265-.533.477-.746.211-.214.476-.374.741-.48.317-.107.688-.16 1.005-.16.265 0 .529.053.794.106v.8c0 .054 0 .107-.053.16l-.106.107c-.053 0-.106.053-.159.053h-.105c-.159 0-.318 0-.477.054-.317.053-.529.32-.582.586-.053.214-.106.427-.053.587v.427h1.694v1.12h-1.641v5.386h-1.64ZM206.236 2.827c.423 0 .9.053 1.323.213.37.16.741.373 1.005.64.265.32.53.693.636 1.067.158.426.211.906.211 1.386 0 .48-.053.96-.211 1.387a4.366 4.366 0 0 1-.636 1.067c-.264.32-.635.533-1.005.693-.423.16-.847.267-1.323.213-.476 0-.9-.053-1.323-.213-.371-.16-.741-.373-1.006-.693-.264-.32-.529-.694-.635-1.067-.158-.427-.264-.907-.211-1.387 0-.48.053-.96.211-1.386.159-.374.371-.747.635-1.067.265-.32.635-.533 1.006-.693.423-.107.847-.16 1.323-.16Zm0 5.546c.476.054.9-.16 1.217-.533.265-.48.424-1.013.371-1.6.053-.587-.106-1.12-.371-1.6a1.326 1.326 0 0 0-1.217-.533 1.258 1.258 0 0 0-1.217.586c-.318.48-.424 1.014-.424 1.6-.053.587.106 1.12.424 1.6.264.32.741.534 1.217.48ZM212.111 4.053c.158-.373.423-.693.741-.906.264-.214.635-.32 1.005-.32.265 0 .529.053.741.213l-.106 1.173c0 .054-.053.107-.106.16-.053.054-.106.054-.158.054-.106 0-.212 0-.265-.054-.106 0-.265-.053-.37-.053-.159 0-.318 0-.477.053a.85.85 0 0 0-.37.214c-.106.106-.212.213-.265.32-.106.16-.159.32-.212.48V9.44h-1.64V2.933h.9c.105 0 .264 0 .317.107.053.107.106.213.106.32l.159.693ZM105.049 14.667v9.226h-1.694V19.84h-4.287v4.053h-1.693v-9.226h1.694v4h4.286v-4h1.694ZM107.855 20.8c0 .32.053.587.159.853.106.214.212.427.37.587.159.16.318.267.53.373.211.054.476.107.688.107.211 0 .423 0 .635-.107.158-.053.317-.106.476-.213l.37-.213c.106-.054.212-.107.318-.107.106 0 .212.053.318.16l.476.693c-.159.214-.371.374-.582.534a1.64 1.64 0 0 1-.688.32c-.212.106-.477.16-.741.16-.212.053-.477.053-.688.053-.424 0-.847-.053-1.27-.213-.371-.16-.741-.374-1.006-.694-.317-.32-.529-.693-.688-1.12a4.924 4.924 0 0 1-.264-1.493c0-.427.052-.853.211-1.28.159-.373.371-.747.635-1.013.265-.32.582-.534 1.006-.694.423-.16.847-.266 1.323-.266.37 0 .794.053 1.111.213.318.107.635.32.9.587.265.266.476.586.582.96.159.426.212.853.212 1.28 0 .16 0 .32-.053.48-.053.106-.159.16-.318.106l-4.022-.053Zm2.964-.96c0-.213 0-.373-.106-.587-.053-.16-.159-.32-.265-.48a.819.819 0 0 0-.423-.32 1.755 1.755 0 0 0-1.693.267c-.265.32-.477.693-.477 1.12h2.964ZM113.253 18.24c.741-.693 1.694-1.067 2.699-1.013.371 0 .688.053 1.006.16.264.106.529.32.741.533.211.213.37.48.476.8.106.32.159.693.159 1.013v4.16h-.688c-.106 0-.212 0-.318-.053-.106-.053-.159-.16-.212-.267l-.158-.48c-.159.16-.318.267-.477.374-.158.106-.317.213-.476.266-.159.107-.37.16-.529.16-.212.054-.424.054-.635.054-.265 0-.529-.054-.741-.107a1.253 1.253 0 0 1-.582-.32c-.159-.16-.318-.32-.424-.533a2.15 2.15 0 0 1-.158-.8c0-.16.052-.32.105-.48.053-.16.159-.32.265-.48.159-.16.318-.32.476-.427.212-.16.477-.267.741-.373.318-.107.688-.16 1.006-.267.423-.053.899-.107 1.323-.107v-.32a1.217 1.217 0 0 0-.265-.96 1.162 1.162 0 0 0-.794-.32c-.211 0-.423 0-.635.107-.158.053-.317.107-.423.213l-.318.214c-.105.053-.211.106-.317.106a.404.404 0 0 1-.265-.106c-.053-.054-.159-.107-.211-.214l-.371-.533Zm3.599 2.88c-.371 0-.741.053-1.165.107-.264.053-.529.106-.74.213a.825.825 0 0 0-.424.32c-.211.32-.159.747.106.96.212.107.423.213.635.16.265 0 .582-.053.847-.16.264-.16.476-.32.688-.533l.053-1.067ZM121.402 14.4v9.493h-1.588V14.4h1.588ZM125.107 24c-.476.053-.952-.16-1.323-.48a2.06 2.06 0 0 1-.476-1.333v-3.68h-.635c-.106 0-.159 0-.212-.107a.409.409 0 0 1-.106-.267v-.64l1.059-.16.317-1.813c0-.053.053-.16.106-.213.053-.054.159-.054.212-.054h.794v2.08h1.746v1.12h-1.693v3.574c0 .16.053.32.158.48a.6.6 0 0 0 .424.16c.106 0 .159 0 .264-.054.053 0 .106-.053.159-.053l.106-.053c.053 0 .053-.054.106-.054s.106 0 .106.054l.106.106.476.747c-.212.213-.476.32-.794.427-.317.16-.582.213-.9.213ZM129.181 18.027c.265-.214.53-.427.847-.587.318-.16.688-.213 1.059-.213.317 0 .635.053.952.16.265.106.529.32.688.533.212.213.318.48.424.8.105.32.158.64.158 1.013v4.16h-1.587v-4.16c0-.32-.053-.64-.265-.96-.212-.213-.529-.373-.847-.32-.264 0-.529.054-.741.16-.264.16-.476.32-.688.534v4.746h-1.587V14.4h1.587v3.627ZM137.649 18.24c.741-.693 1.694-1.067 2.699-1.013.371 0 .688.053 1.006.16.265.106.529.32.741.533.211.213.37.48.476.8.106.32.159.693.159 1.013v4.16h-.688c-.106 0-.212 0-.318-.053-.106-.053-.158-.16-.211-.267l-.159-.48c-.159.16-.318.267-.476.374-.159.106-.318.213-.477.266-.158.107-.37.16-.529.16-.212.054-.423.054-.635.054-.265 0-.529-.054-.741-.107a1.258 1.258 0 0 1-.582-.32c-.159-.16-.318-.32-.37-.533a2.152 2.152 0 0 1-.159-.8c0-.16.053-.32.106-.48.053-.16.158-.32.264-.48.159-.16.318-.32.477-.427.211-.16.476-.267.74-.373a7.017 7.017 0 0 1 1.006-.267c.423-.053.9-.107 1.323-.107v-.32a1.217 1.217 0 0 0-.265-.96 1.16 1.16 0 0 0-.793-.32c-.212 0-.424 0-.636.107-.158.053-.317.107-.423.213l-.37.214c-.106.053-.212.106-.318.106a.399.399 0 0 1-.264-.106c-.053-.054-.159-.107-.159-.214l-.424-.533Zm3.599 2.88c-.37 0-.741.053-1.164.107-.265.053-.529.106-.741.213a.825.825 0 0 0-.424.32 1.01 1.01 0 0 0-.105.373c0 .214.053.427.264.587.212.16.424.213.635.213.265 0 .582-.053.847-.16.265-.16.476-.32.688-.533v-1.12ZM145.64 18.133c.106-.106.265-.266.423-.373.159-.107.318-.213.477-.267.158-.053.37-.16.529-.16.212-.053.423-.053.582-.053.318 0 .635.053.953.16.264.107.476.32.688.533.211.214.317.48.423.8.106.32.159.64.159 1.014v4.16h-1.588v-4.214c0-.32-.053-.64-.265-.96-.211-.213-.529-.373-.846-.32a1.68 1.68 0 0 0-.741.16 3.4 3.4 0 0 0-.688.534v4.746h-1.588v-6.56h.953c.211 0 .37.107.423.267l.106.533ZM156.966 14.4v9.493h-.952c-.159 0-.371-.106-.424-.266l-.106-.64c-.264.32-.582.533-.899.746-.371.214-.794.267-1.164.267-.318 0-.688-.053-.953-.213a2.346 2.346 0 0 1-.794-.64 3.86 3.86 0 0 1-.476-1.067 6.66 6.66 0 0 1-.159-1.44c0-.48.053-.907.212-1.333a3.01 3.01 0 0 1 .582-1.067c.212-.32.529-.533.9-.693.37-.16.74-.267 1.164-.267.317 0 .635.053.952.16.265.107.477.267.688.48V14.4h1.429Zm-1.587 4.64a1.665 1.665 0 0 0-.582-.48 1.003 1.003 0 0 0-.688-.107c-.212 0-.424.054-.636.107-.211.107-.37.213-.476.427a1.655 1.655 0 0 0-.317.693c-.053.32-.106.64-.106.96 0 .32 0 .64.106.96.053.213.158.48.264.64.106.16.265.267.424.373.158.054.37.107.529.107.264 0 .582-.053.847-.213.264-.16.476-.374.635-.587v-2.88ZM168.079 21.707c.106 0 .159.053.264.106l.688.747c-.37.48-.846.853-1.376 1.067-.635.266-1.27.373-1.958.373-.635 0-1.27-.107-1.852-.373a3.585 3.585 0 0 1-1.376-.96 5.36 5.36 0 0 1-.9-1.494 5.549 5.549 0 0 1-.317-1.866c0-.64.106-1.28.317-1.92a4.49 4.49 0 0 1 .953-1.494c.423-.426.9-.746 1.429-.96.582-.213 1.217-.373 1.852-.32.635 0 1.217.107 1.8.32.476.214.952.48 1.323.854l-.635.746-.106.107c-.053.053-.159.053-.212.053-.053 0-.159 0-.212-.053a.398.398 0 0 0-.211-.107l-.265-.16c-.106-.053-.265-.106-.37-.16-.159-.053-.318-.106-.477-.106-.211-.054-.423-.054-.635-.054-.37 0-.794.054-1.111.214-.318.16-.635.373-.9.64-.264.32-.423.64-.582 1.013-.159.427-.212.907-.212 1.387s.053.96.212 1.386c.106.374.318.747.582 1.014.265.266.529.48.9.64.317.16.741.213 1.111.213.212 0 .424 0 .635-.053.318-.054.688-.16.953-.32.159-.107.317-.214.423-.32.053-.054.106-.054.106-.107.053-.053.106-.053.159-.053ZM169.773 18.24c.74-.693 1.693-1.067 2.699-1.013.37 0 .688.053 1.005.16a2.31 2.31 0 0 1 1.217 1.333c.106.32.159.693.159 1.013v4.16h-.688c-.106 0-.212 0-.317-.053-.106-.053-.159-.16-.212-.267l-.159-.48c-.159.16-.317.267-.476.374-.159.106-.318.213-.476.266-.159.107-.371.16-.53.16-.211.054-.423.054-.635.054-.264 0-.529-.054-.741-.107a1.262 1.262 0 0 1-.582-.32c-.159-.16-.317-.32-.423-.533a2.152 2.152 0 0 1-.159-.8c0-.16.053-.32.053-.48.053-.16.159-.32.265-.48.158-.16.317-.32.476-.427.212-.16.476-.267.741-.373.317-.107.635-.16 1.005-.267.424-.053.9-.107 1.323-.107v-.32a1.22 1.22 0 0 0-.264-.96 1.162 1.162 0 0 0-.794-.32c-.212 0-.423 0-.635.107-.159.053-.318.107-.424.213l-.317.214c-.106.053-.212.106-.318.106a.403.403 0 0 1-.264-.106c-.053-.054-.159-.107-.212-.214l-.317-.533Zm3.545 2.88c-.37 0-.741.053-1.111.107-.265.053-.529.106-.741.213a.823.823 0 0 0-.423.32c-.212.32-.159.747.106.96.211.107.423.213.635.16.264 0 .582-.053.846-.16.265-.16.477-.32.688-.533V21.12ZM177.765 18.453c.159-.373.423-.693.741-.906.264-.214.635-.32 1.005-.32.265 0 .529.053.741.213l-.106 1.173c0 .054-.053.107-.106.16-.052.054-.105.054-.158.054-.106 0-.212 0-.265-.054-.106 0-.265-.053-.37-.053-.159 0-.318 0-.477.107a.854.854 0 0 0-.37.213c-.106.107-.212.213-.265.373-.106.16-.158.32-.211.48v4.054h-1.588v-6.614h.9c.105 0 .211 0 .317.107.053.107.106.213.106.32l.106.693ZM182.051 20.8c0 .32.053.587.158.854.053.213.212.426.371.586a1.9 1.9 0 0 0 .529.373c.212.054.476.107.688.107.212 0 .424-.053.635-.107.159-.053.318-.106.477-.213l.37-.213c.106-.053.212-.107.317-.107.106 0 .212.054.265.16l.476.587c-.158.213-.37.373-.582.533-.211.16-.423.267-.688.32-.211.107-.476.16-.741.16-.211.053-.476.053-.688.053-.423 0-.846-.053-1.27-.213-.37-.16-.741-.373-1.005-.693-.318-.32-.529-.693-.688-1.12-.159-.48-.265-1.014-.265-1.494 0-.426.053-.853.212-1.28.159-.373.37-.746.635-1.013.265-.32.635-.533 1.005-.693.424-.16.847-.267 1.323-.267.371 0 .794.053 1.112.213.317.107.635.32.899.587.265.267.477.587.583.96.158.427.211.854.211 1.28 0 .16 0 .32-.053.48-.053.107-.158.16-.264.107l-4.022.053Zm2.963-.96c0-.213 0-.373-.105-.587-.053-.16-.159-.32-.265-.48a.826.826 0 0 0-.423-.32c-.212-.106-.424-.106-.636-.106-.37 0-.793.106-1.058.373-.265.32-.476.694-.476 1.12h2.963ZM198.033 23.893h-1.535c-.264 0-.529-.106-.635-.32l-1.905-2.933c-.053-.107-.159-.16-.264-.213-.106-.054-.265-.054-.371-.054h-.741V24h-1.693v-9.333h2.805a5.42 5.42 0 0 1 1.587.213c.371.107.794.267 1.112.533.264.214.476.534.635.854.264.64.264 1.333.053 1.973a2.509 2.509 0 0 1-1.006 1.333c-.265.16-.529.32-.847.427.106.053.212.16.318.213.106.107.159.214.264.32l2.223 3.36Zm-4.392-4.853c.264 0 .582-.053.846-.107.212-.053.424-.16.582-.32.159-.16.265-.32.318-.533.106-.213.106-.427.106-.64 0-.427-.159-.8-.476-1.067-.424-.266-.9-.426-1.376-.373h-1.112v3.093l1.112-.053ZM199.516 20.8c0 .32.052.587.158.854.106.213.212.426.371.586a1.9 1.9 0 0 0 .529.373c.212.054.476.107.688.107.212 0 .423-.053.635-.107.159-.053.318-.106.476-.213l.371-.213c.106-.053.211-.107.317-.107.106 0 .212.054.265.16l.476.587c-.159.213-.37.373-.582.533-.212.16-.423.267-.688.32a1.68 1.68 0 0 1-.741.16c-.211.053-.476.053-.688.053-.423 0-.847-.053-1.27-.213-.37-.16-.741-.373-1.005-.693-.318-.32-.53-.693-.688-1.12-.159-.48-.265-1.014-.265-1.494 0-.426.053-.853.212-1.28.158-.373.37-.746.635-1.013.264-.32.635-.533 1.005-.693.424-.16.847-.267 1.323-.267.371 0 .794.053 1.112.213.317.107.635.32.899.587.265.267.477.587.582.96.159.427.212.854.212 1.28 0 .16 0 .32-.053.48-.053.107-.159.16-.264.107l-4.022.053Zm2.963-.96c0-.213 0-.373-.106-.587-.053-.16-.158-.32-.264-.48a.824.824 0 0 0-.424-.32c-.211-.106-.423-.106-.635-.106-.37 0-.794.106-1.058.373-.265.32-.476.694-.476 1.12h2.963ZM209.04 18.613c-.053.054-.053.107-.105.16-.053.054-.106.054-.159.054-.106 0-.159 0-.265-.054l-.317-.16c-.106-.053-.265-.106-.371-.16-.159-.053-.37-.053-.529-.053-.265 0-.529.053-.741.213a.658.658 0 0 0-.265.534c0 .106.053.266.159.373.106.107.212.213.371.267.158.106.37.16.529.213.212.053.37.107.582.16.212.053.37.16.582.213.212.107.371.214.529.32.159.16.265.32.371.48.106.214.159.427.159.694 0 .32-.053.586-.159.853a2.04 2.04 0 0 1-.476.693c-.265.214-.53.374-.794.427-.371.107-.741.16-1.112.16-.211 0-.423 0-.635-.053l-.635-.16a2.465 2.465 0 0 1-.529-.267c-.159-.107-.318-.213-.423-.32l.37-.587.159-.16c.053-.053.159-.053.264-.053.106 0 .212.053.265.107l.318.16c.105.053.264.16.423.16.212.053.37.106.582.106.159 0 .318 0 .476-.053l.318-.16c.106-.053.159-.16.212-.267.053-.106.053-.213.053-.32 0-.16-.053-.266-.106-.373-.106-.107-.212-.213-.371-.267-.159-.053-.37-.16-.529-.213l-.635-.213c-.212-.054-.37-.16-.582-.267a1.885 1.885 0 0 1-.529-.373 1.915 1.915 0 0 1-.371-.534 1.18 1.18 0 0 1-.106-.746c0-.267.053-.534.159-.747a1.46 1.46 0 0 1 .476-.64c.212-.213.477-.32.741-.427.318-.106.688-.16 1.059-.16.423 0 .846.054 1.217.214.317.106.635.32.9.586l-.53.64ZM211.793 20.8c0 .32.053.587.159.854.106.213.211.426.37.586.159.16.318.267.529.373.212.054.477.107.688.107.212 0 .424-.053.635-.107.159-.053.318-.106.477-.213l.37-.213c.106-.053.212-.107.318-.107a.29.29 0 0 1 .264.16l.477.587c-.159.213-.371.373-.583.533-.211.16-.423.267-.688.32-.211.107-.476.16-.74.16-.212.053-.477.053-.688.053-.424 0-.847-.053-1.271-.213-.37-.16-.74-.373-1.005-.693-.318-.32-.529-.693-.688-1.12-.159-.48-.265-1.014-.265-1.494 0-.426.106-.853.265-1.28.159-.373.37-.746.635-1.013.265-.32.635-.533 1.006-.693.423-.16.846-.267 1.323-.267.37 0 .793.053 1.111.213.317.107.635.32.9.587.264.267.476.587.582.96.158.427.211.854.211 1.28 0 .16 0 .32-.053.48-.052.107-.158.16-.264.107l-4.075.053Zm3.016-.96c0-.213 0-.373-.105-.587-.053-.16-.159-.32-.265-.48a.826.826 0 0 0-.423-.32c-.212-.106-.424-.106-.635-.106-.371 0-.794.106-1.059.373-.264.32-.476.694-.476 1.12h2.963ZM217.19 18.24c.741-.693 1.694-1.067 2.699-1.013.371 0 .688.053 1.006.16.265.106.529.32.741.533.211.213.37.48.476.8.106.32.159.693.159 1.013v4.16h-.688c-.106 0-.212 0-.318-.053-.105-.053-.158-.16-.211-.267l-.159-.48c-.159.16-.318.267-.476.374-.159.106-.318.213-.477.266-.158.107-.37.16-.529.16-.212.054-.423.054-.635.054-.265 0-.529-.054-.741-.107a1.258 1.258 0 0 1-.582-.32c-.159-.16-.318-.32-.37-.533a2.152 2.152 0 0 1-.159-.8c0-.16.053-.32.053-.48.053-.16.158-.32.264-.48.159-.16.318-.32.477-.427.211-.16.476-.267.741-.373.317-.107.635-.214 1.005-.267.423-.053.9-.107 1.323-.107v-.32a1.217 1.217 0 0 0-.265-.96 1.16 1.16 0 0 0-.793-.32c-.212 0-.424 0-.635.107-.159.053-.318.107-.424.213l-.317.214c-.106.053-.212.106-.371.106a.401.401 0 0 1-.264-.106c-.053-.054-.159-.107-.212-.214l-.318-.533Zm3.599 2.88c-.37 0-.741.053-1.111.107-.265.053-.529.106-.741.213a.825.825 0 0 0-.424.32c-.211.32-.158.747.106.96.212.107.424.213.635.16.265 0 .582-.053.847-.16a3.4 3.4 0 0 0 .688-.533V21.12ZM225.236 18.453c.158-.373.423-.693.74-.906.265-.214.635-.32 1.006-.32.265 0 .529.053.741.213l-.106 1.173c0 .054-.053.107-.106.16-.053.054-.106.054-.159.054-.105 0-.211 0-.264-.054-.106 0-.265-.053-.371-.053-.158 0-.317 0-.476.107a.843.843 0 0 0-.37.213c-.106.107-.212.213-.265.373-.106.16-.159.32-.212.48v4.054h-1.587v-6.614h.899c.212-.053.424.107.477.267v.107l.053.746ZM232.909 18.72l-.159.16c-.053.053-.106.053-.211.053-.106 0-.159-.053-.212-.053l-.265-.16c-.106-.053-.264-.107-.37-.16-.159-.053-.371-.107-.529-.053-.265 0-.477.053-.741.16-.212.106-.371.266-.529.426a1.658 1.658 0 0 0-.318.694c-.053.32-.106.586-.106.906 0 .32.053.64.106.96.053.267.159.48.318.694.158.16.317.32.529.426.211.107.423.16.688.16.211 0 .423 0 .582-.106a.849.849 0 0 0 .37-.214l.265-.213a.403.403 0 0 1 .265-.107.29.29 0 0 1 .264.16l.476.587c-.158.213-.37.373-.582.533-.211.16-.423.267-.635.32-.211.107-.423.16-.688.16-.211.054-.476.054-.688.054-.37 0-.794-.054-1.111-.214a3.001 3.001 0 0 1-.953-.64 4.392 4.392 0 0 1-.635-1.066 4.955 4.955 0 0 1 0-2.774c.106-.373.318-.746.582-1.066.265-.32.635-.534 1.006-.694.423-.16.9-.266 1.376-.266.423 0 .847.053 1.27.213.37.16.688.373.953.64l-.318.48ZM235.926 18.027c.264-.214.529-.427.846-.587.318-.16.688-.213 1.059-.213.317 0 .635.053.952.16.265.106.477.32.688.533.212.213.318.48.424.8.106.32.158.64.158 1.013v4.16h-1.587v-4.16c0-.32-.053-.64-.265-.96-.212-.213-.529-.373-.847-.32-.264 0-.529.054-.74.16a3.37 3.37 0 0 0-.688.534v4.746h-1.588V14.4h1.588v3.627ZM119.814 1.013a.994.994 0 0 1-.106.374c-.053.106-.106.213-.212.32-.105.106-.211.16-.317.213a.978.978 0 0 1-.371.107c-.105 0-.264 0-.37-.107a1.091 1.091 0 0 1-.317-.213c-.106-.107-.159-.214-.212-.32-.053-.107-.106-.267-.053-.374 0-.16 0-.266.053-.373.053-.107.106-.213.212-.32.105-.107.211-.16.317-.213a.978.978 0 0 1 .37-.107c.159 0 .265 0 .371.107.106.053.212.106.317.213.106.107.159.213.212.32a.994.994 0 0 1 .106.373Zm-.212 1.92v6.56h-1.587v-6.56h1.587ZM115.211 9.6c-.476.053-.952-.16-1.323-.48a2.06 2.06 0 0 1-.476-1.333v-3.68h-.688c-.106 0-.159-.054-.212-.107a.409.409 0 0 1-.106-.267v-.586l1.059-.16.317-1.76c0-.054.053-.16.106-.214.053-.053.159-.053.212-.053h.794v2.08h1.746v1.12h-1.746v3.573c0 .16.052.32.158.48a.6.6 0 0 0 .424.16c.106 0 .158 0 .264-.053l.159-.053.106-.054c.053 0 .053-.053.106-.053s.053 0 .106.053l.105.107.477.747c-.212.213-.477.32-.794.426a3.575 3.575 0 0 1-.794.107ZM171.308 1.013c0 .107-.053.267-.053.374-.053.106-.106.213-.211.32-.106.106-.212.16-.318.213a.993.993 0 0 1-.423.107.978.978 0 0 1-.371-.107 1.091 1.091 0 0 1-.317-.213c-.106-.107-.159-.214-.212-.32-.053-.107-.106-.267-.053-.374 0-.16 0-.266.053-.373.053-.107.106-.213.212-.32.105-.107.211-.16.317-.213a.978.978 0 0 1 .371-.107c.158 0 .264 0 .423.107.212.106.423.32.529.533 0 .107.053.267.053.373Zm-.212 1.92v6.56h-1.587v-6.56h1.587ZM166.703 9.6c-.476.053-.952-.16-1.323-.48a2.06 2.06 0 0 1-.476-1.333v-3.68h-.688a.4.4 0 0 1-.212-.107.409.409 0 0 1-.106-.267v-.586l1.059-.16.317-1.76c0-.054.053-.16.106-.214.053-.053.159-.053.212-.053h.794v2.08h1.746v1.12h-1.746v3.573c0 .16.053.32.159.48.105.107.264.16.423.16.106 0 .159 0 .264-.053.053 0 .106-.053.159-.053l.106-.054c.053 0 .053-.053.106-.053s.053 0 .106.053l.106.107.476.747c-.212.213-.476.32-.794.426a2.847 2.847 0 0 1-.794.107Z"/></g><defs><clipPath id="a"><path fill="#fff" d="M0 0h240v24H0z"/></clipPath></defs></svg>